M48
; DRILL file {KiCad 8.0.0-8.0.0-1~ubuntu22.04.1} date 2024-09-22T20:46:00-0500
; FORMAT={-:-/ absolute / metric / decimal}
; #@! TF.CreationDate,2024-09-22T20:46:00-05:00
; #@! TF.GenerationSoftware,Kicad,Pcbnew,8.0.0-8.0.0-1~ubuntu22.04.1
; #@! TF.FileFunction,MixedPlating,1,2
FMAT,2
METRIC
; #@! TA.AperFunction,Plated,PTH,ViaDrill
T1C0.300
; #@! TA.AperFunction,Plated,PTH,ComponentDrill
T2C0.500
; #@! TA.AperFunction,Plated,PTH,ComponentDrill
T3C1.000
; #@! TA.AperFunction,Plated,PTH,ComponentDrill
T4C3.200
%
G90
G05
T1
X125.9Y-87.6
X125.9Y-92.4
X126.4Y-82.6
X126.5Y-97.3
X127.8Y-103.3
X128.8Y-120.8
X129.4Y-121.7
X129.7Y-103.3
X131.1Y-116.5
X131.3Y-121.7
X131.6Y-96.9
X131.8Y-102.4
X132.3Y-117.7
X132.5Y-125.1
X132.5Y-129.0
X133.8Y-106.2
X134.2Y-76.6
X134.2Y-78.0
X135.7Y-96.9
X135.8Y-102.3
X136.4Y-104.0
X137.2Y-130.6
X137.2Y-132.0
X139.1Y-82.5
X139.1Y-97.3
X139.119Y-74.8
X140.1Y-127.5
X141.5Y-96.8
X141.5Y-102.4
X142.2Y-87.6
X143.4Y-88.8
X143.6Y-119.2
X143.8Y-114.7
X144.9Y-107.3
X146.1Y-96.9
X146.2Y-102.2
X147.5Y-132.2
X149.7Y-132.1
X150.1Y-122.5
X150.6Y-123.8
X150.9Y-113.1
X151.2Y-133.6
X151.8Y-82.5
X151.874Y-112.126
X151.9Y-97.4
X152.3Y-125.5
X155.7Y-114.6
X156.676Y-114.824
X158.017Y-113.117
X158.7Y-121.3
X159.1Y-122.8
X159.6Y-120.3
X160.2Y-125.0
X160.6Y-113.8
X160.8Y-111.7
X162.0Y-105.5
X163.7Y-120.4
X164.5Y-82.6
X164.6Y-97.4
X166.0Y-113.0
X167.1Y-105.4
X167.1Y-117.0
X167.5Y-112.0
X167.9Y-89.9
X169.9Y-105.4
X171.2Y-115.0
X173.2Y-112.9
X173.2Y-114.8
T2
X121.6Y-74.0
X121.6Y-133.0
X122.303Y-72.303
X122.303Y-75.697
X122.303Y-131.303
X122.303Y-134.697
X124.0Y-71.6
X124.0Y-76.4
X124.0Y-130.6
X124.0Y-135.4
X125.697Y-72.303
X125.697Y-75.697
X125.697Y-131.303
X125.697Y-134.697
X126.4Y-74.0
X126.4Y-133.0
X178.6Y-74.0
X178.6Y-133.0
X179.303Y-72.303
X179.303Y-75.697
X179.303Y-131.303
X179.303Y-134.697
X181.0Y-71.6
X181.0Y-76.4
X181.0Y-130.6
X181.0Y-135.4
X182.697Y-72.303
X182.697Y-75.697
X182.697Y-131.303
X182.697Y-134.697
X183.4Y-74.0
X183.4Y-133.0
T3
X147.36Y-75.9
X149.9Y-75.9
X157.52Y-75.9
X160.06Y-75.9
X162.6Y-75.9
X164.46Y-126.0
X164.46Y-130.0
X167.0Y-126.0
X167.0Y-130.0
T4
X124.0Y-74.0
X124.0Y-133.0
X181.0Y-74.0
X181.0Y-133.0
M30
