%TF.GenerationSoftware,KiCad,Pcbnew,8.0.0-8.0.0-1~ubuntu22.04.1*%
%TF.CreationDate,2024-09-22T20:46:00-05:00*%
%TF.ProjectId,LCR_meter,4c43525f-6d65-4746-9572-2e6b69636164,rev?*%
%TF.SameCoordinates,Original*%
%TF.FileFunction,Soldermask,Top*%
%TF.FilePolarity,Negative*%
%FSLAX46Y46*%
G04 Gerber Fmt 4.6, Leading zero omitted, Abs format (unit mm)*
G04 Created by KiCad (PCBNEW 8.0.0-8.0.0-1~ubuntu22.04.1) date 2024-09-22 20:46:00*
%MOMM*%
%LPD*%
G01*
G04 APERTURE LIST*
G04 Aperture macros list*
%AMRoundRect*
0 Rectangle with rounded corners*
0 $1 Rounding radius*
0 $2 $3 $4 $5 $6 $7 $8 $9 X,Y pos of 4 corners*
0 Add a 4 corners polygon primitive as box body*
4,1,4,$2,$3,$4,$5,$6,$7,$8,$9,$2,$3,0*
0 Add four circle primitives for the rounded corners*
1,1,$1+$1,$2,$3*
1,1,$1+$1,$4,$5*
1,1,$1+$1,$6,$7*
1,1,$1+$1,$8,$9*
0 Add four rect primitives between the rounded corners*
20,1,$1+$1,$2,$3,$4,$5,0*
20,1,$1+$1,$4,$5,$6,$7,0*
20,1,$1+$1,$6,$7,$8,$9,0*
20,1,$1+$1,$8,$9,$2,$3,0*%
G04 Aperture macros list end*
%ADD10C,0.010000*%
%ADD11RoundRect,0.150000X-0.825000X-0.150000X0.825000X-0.150000X0.825000X0.150000X-0.825000X0.150000X0*%
%ADD12RoundRect,0.237500X-0.237500X0.250000X-0.237500X-0.250000X0.237500X-0.250000X0.237500X0.250000X0*%
%ADD13RoundRect,0.237500X0.250000X0.237500X-0.250000X0.237500X-0.250000X-0.237500X0.250000X-0.237500X0*%
%ADD14RoundRect,0.237500X-0.237500X0.300000X-0.237500X-0.300000X0.237500X-0.300000X0.237500X0.300000X0*%
%ADD15C,1.500000*%
%ADD16RoundRect,0.237500X-0.250000X-0.237500X0.250000X-0.237500X0.250000X0.237500X-0.250000X0.237500X0*%
%ADD17RoundRect,0.237500X0.300000X0.237500X-0.300000X0.237500X-0.300000X-0.237500X0.300000X-0.237500X0*%
%ADD18C,0.800000*%
%ADD19C,6.400000*%
%ADD20RoundRect,0.150000X0.150000X-0.587500X0.150000X0.587500X-0.150000X0.587500X-0.150000X-0.587500X0*%
%ADD21R,1.700000X1.700000*%
%ADD22O,1.700000X1.700000*%
%ADD23O,2.004000X1.304000*%
%ADD24O,1.654000X1.254000*%
%ADD25RoundRect,0.511200X0.340800X-0.340800X0.340800X0.340800X-0.340800X0.340800X-0.340800X-0.340800X0*%
%ADD26RoundRect,0.237500X-0.300000X-0.237500X0.300000X-0.237500X0.300000X0.237500X-0.300000X0.237500X0*%
%ADD27RoundRect,0.237500X0.237500X-0.250000X0.237500X0.250000X-0.237500X0.250000X-0.237500X-0.250000X0*%
G04 APERTURE END LIST*
D10*
%TO.C,U5*%
X122270000Y-81110000D02*
X122269000Y-81157000D01*
X122265000Y-81204000D01*
X122259000Y-81251000D01*
X122250000Y-81297000D01*
X122239000Y-81343000D01*
X122226000Y-81388000D01*
X122210000Y-81433000D01*
X122192000Y-81476000D01*
X122172000Y-81519000D01*
X122149000Y-81560000D01*
X122125000Y-81600000D01*
X122098000Y-81639000D01*
X122069000Y-81676000D01*
X122039000Y-81712000D01*
X122006000Y-81746000D01*
X121972000Y-81779000D01*
X121936000Y-81809000D01*
X121899000Y-81838000D01*
X121860000Y-81865000D01*
X121820000Y-81889000D01*
X121779000Y-81912000D01*
X121736000Y-81932000D01*
X121693000Y-81950000D01*
X121648000Y-81966000D01*
X121603000Y-81979000D01*
X121557000Y-81990000D01*
X121511000Y-81999000D01*
X121464000Y-82005000D01*
X121417000Y-82009000D01*
X121370000Y-82010000D01*
X121323000Y-82009000D01*
X121276000Y-82005000D01*
X121229000Y-81999000D01*
X121183000Y-81990000D01*
X121137000Y-81979000D01*
X121092000Y-81966000D01*
X121047000Y-81950000D01*
X121004000Y-81932000D01*
X120961000Y-81912000D01*
X120920000Y-81889000D01*
X120880000Y-81865000D01*
X120841000Y-81838000D01*
X120804000Y-81809000D01*
X120768000Y-81779000D01*
X120734000Y-81746000D01*
X120701000Y-81712000D01*
X120671000Y-81676000D01*
X120642000Y-81639000D01*
X120615000Y-81600000D01*
X120591000Y-81560000D01*
X120568000Y-81519000D01*
X120548000Y-81476000D01*
X120530000Y-81433000D01*
X120514000Y-81388000D01*
X120501000Y-81343000D01*
X120490000Y-81297000D01*
X120481000Y-81251000D01*
X120475000Y-81204000D01*
X120471000Y-81157000D01*
X120470000Y-81110000D01*
X120470000Y-78610000D01*
X122270000Y-78610000D01*
X122270000Y-81110000D01*
G36*
X122270000Y-81110000D02*
G01*
X122269000Y-81157000D01*
X122265000Y-81204000D01*
X122259000Y-81251000D01*
X122250000Y-81297000D01*
X122239000Y-81343000D01*
X122226000Y-81388000D01*
X122210000Y-81433000D01*
X122192000Y-81476000D01*
X122172000Y-81519000D01*
X122149000Y-81560000D01*
X122125000Y-81600000D01*
X122098000Y-81639000D01*
X122069000Y-81676000D01*
X122039000Y-81712000D01*
X122006000Y-81746000D01*
X121972000Y-81779000D01*
X121936000Y-81809000D01*
X121899000Y-81838000D01*
X121860000Y-81865000D01*
X121820000Y-81889000D01*
X121779000Y-81912000D01*
X121736000Y-81932000D01*
X121693000Y-81950000D01*
X121648000Y-81966000D01*
X121603000Y-81979000D01*
X121557000Y-81990000D01*
X121511000Y-81999000D01*
X121464000Y-82005000D01*
X121417000Y-82009000D01*
X121370000Y-82010000D01*
X121323000Y-82009000D01*
X121276000Y-82005000D01*
X121229000Y-81999000D01*
X121183000Y-81990000D01*
X121137000Y-81979000D01*
X121092000Y-81966000D01*
X121047000Y-81950000D01*
X121004000Y-81932000D01*
X120961000Y-81912000D01*
X120920000Y-81889000D01*
X120880000Y-81865000D01*
X120841000Y-81838000D01*
X120804000Y-81809000D01*
X120768000Y-81779000D01*
X120734000Y-81746000D01*
X120701000Y-81712000D01*
X120671000Y-81676000D01*
X120642000Y-81639000D01*
X120615000Y-81600000D01*
X120591000Y-81560000D01*
X120568000Y-81519000D01*
X120548000Y-81476000D01*
X120530000Y-81433000D01*
X120514000Y-81388000D01*
X120501000Y-81343000D01*
X120490000Y-81297000D01*
X120481000Y-81251000D01*
X120475000Y-81204000D01*
X120471000Y-81157000D01*
X120470000Y-81110000D01*
X120470000Y-78610000D01*
X122270000Y-78610000D01*
X122270000Y-81110000D01*
G37*
X121417000Y-97991000D02*
X121464000Y-97995000D01*
X121511000Y-98001000D01*
X121557000Y-98010000D01*
X121603000Y-98021000D01*
X121648000Y-98034000D01*
X121693000Y-98050000D01*
X121736000Y-98068000D01*
X121779000Y-98088000D01*
X121820000Y-98111000D01*
X121860000Y-98135000D01*
X121899000Y-98162000D01*
X121936000Y-98191000D01*
X121972000Y-98221000D01*
X122006000Y-98254000D01*
X122039000Y-98288000D01*
X122069000Y-98324000D01*
X122098000Y-98361000D01*
X122125000Y-98400000D01*
X122149000Y-98440000D01*
X122172000Y-98481000D01*
X122192000Y-98524000D01*
X122210000Y-98567000D01*
X122226000Y-98612000D01*
X122239000Y-98657000D01*
X122250000Y-98703000D01*
X122259000Y-98749000D01*
X122265000Y-98796000D01*
X122269000Y-98843000D01*
X122270000Y-98890000D01*
X122270000Y-101390000D01*
X120470000Y-101390000D01*
X120470000Y-98890000D01*
X120471000Y-98843000D01*
X120475000Y-98796000D01*
X120481000Y-98749000D01*
X120490000Y-98703000D01*
X120501000Y-98657000D01*
X120514000Y-98612000D01*
X120530000Y-98567000D01*
X120548000Y-98524000D01*
X120568000Y-98481000D01*
X120591000Y-98440000D01*
X120615000Y-98400000D01*
X120642000Y-98361000D01*
X120671000Y-98324000D01*
X120701000Y-98288000D01*
X120734000Y-98254000D01*
X120768000Y-98221000D01*
X120804000Y-98191000D01*
X120841000Y-98162000D01*
X120880000Y-98135000D01*
X120920000Y-98111000D01*
X120961000Y-98088000D01*
X121004000Y-98068000D01*
X121047000Y-98050000D01*
X121092000Y-98034000D01*
X121137000Y-98021000D01*
X121183000Y-98010000D01*
X121229000Y-98001000D01*
X121276000Y-97995000D01*
X121323000Y-97991000D01*
X121370000Y-97990000D01*
X121417000Y-97991000D01*
G36*
X121417000Y-97991000D02*
G01*
X121464000Y-97995000D01*
X121511000Y-98001000D01*
X121557000Y-98010000D01*
X121603000Y-98021000D01*
X121648000Y-98034000D01*
X121693000Y-98050000D01*
X121736000Y-98068000D01*
X121779000Y-98088000D01*
X121820000Y-98111000D01*
X121860000Y-98135000D01*
X121899000Y-98162000D01*
X121936000Y-98191000D01*
X121972000Y-98221000D01*
X122006000Y-98254000D01*
X122039000Y-98288000D01*
X122069000Y-98324000D01*
X122098000Y-98361000D01*
X122125000Y-98400000D01*
X122149000Y-98440000D01*
X122172000Y-98481000D01*
X122192000Y-98524000D01*
X122210000Y-98567000D01*
X122226000Y-98612000D01*
X122239000Y-98657000D01*
X122250000Y-98703000D01*
X122259000Y-98749000D01*
X122265000Y-98796000D01*
X122269000Y-98843000D01*
X122270000Y-98890000D01*
X122270000Y-101390000D01*
X120470000Y-101390000D01*
X120470000Y-98890000D01*
X120471000Y-98843000D01*
X120475000Y-98796000D01*
X120481000Y-98749000D01*
X120490000Y-98703000D01*
X120501000Y-98657000D01*
X120514000Y-98612000D01*
X120530000Y-98567000D01*
X120548000Y-98524000D01*
X120568000Y-98481000D01*
X120591000Y-98440000D01*
X120615000Y-98400000D01*
X120642000Y-98361000D01*
X120671000Y-98324000D01*
X120701000Y-98288000D01*
X120734000Y-98254000D01*
X120768000Y-98221000D01*
X120804000Y-98191000D01*
X120841000Y-98162000D01*
X120880000Y-98135000D01*
X120920000Y-98111000D01*
X120961000Y-98088000D01*
X121004000Y-98068000D01*
X121047000Y-98050000D01*
X121092000Y-98034000D01*
X121137000Y-98021000D01*
X121183000Y-98010000D01*
X121229000Y-98001000D01*
X121276000Y-97995000D01*
X121323000Y-97991000D01*
X121370000Y-97990000D01*
X121417000Y-97991000D01*
G37*
X124810000Y-81110000D02*
X124809000Y-81157000D01*
X124805000Y-81204000D01*
X124799000Y-81251000D01*
X124790000Y-81297000D01*
X124779000Y-81343000D01*
X124766000Y-81388000D01*
X124750000Y-81433000D01*
X124732000Y-81476000D01*
X124712000Y-81519000D01*
X124689000Y-81560000D01*
X124665000Y-81600000D01*
X124638000Y-81639000D01*
X124609000Y-81676000D01*
X124579000Y-81712000D01*
X124546000Y-81746000D01*
X124512000Y-81779000D01*
X124476000Y-81809000D01*
X124439000Y-81838000D01*
X124400000Y-81865000D01*
X124360000Y-81889000D01*
X124319000Y-81912000D01*
X124276000Y-81932000D01*
X124233000Y-81950000D01*
X124188000Y-81966000D01*
X124143000Y-81979000D01*
X124097000Y-81990000D01*
X124051000Y-81999000D01*
X124004000Y-82005000D01*
X123957000Y-82009000D01*
X123910000Y-82010000D01*
X123863000Y-82009000D01*
X123816000Y-82005000D01*
X123769000Y-81999000D01*
X123723000Y-81990000D01*
X123677000Y-81979000D01*
X123632000Y-81966000D01*
X123587000Y-81950000D01*
X123544000Y-81932000D01*
X123501000Y-81912000D01*
X123460000Y-81889000D01*
X123420000Y-81865000D01*
X123381000Y-81838000D01*
X123344000Y-81809000D01*
X123308000Y-81779000D01*
X123274000Y-81746000D01*
X123241000Y-81712000D01*
X123211000Y-81676000D01*
X123182000Y-81639000D01*
X123155000Y-81600000D01*
X123131000Y-81560000D01*
X123108000Y-81519000D01*
X123088000Y-81476000D01*
X123070000Y-81433000D01*
X123054000Y-81388000D01*
X123041000Y-81343000D01*
X123030000Y-81297000D01*
X123021000Y-81251000D01*
X123015000Y-81204000D01*
X123011000Y-81157000D01*
X123010000Y-81110000D01*
X123010000Y-78610000D01*
X124810000Y-78610000D01*
X124810000Y-81110000D01*
G36*
X124810000Y-81110000D02*
G01*
X124809000Y-81157000D01*
X124805000Y-81204000D01*
X124799000Y-81251000D01*
X124790000Y-81297000D01*
X124779000Y-81343000D01*
X124766000Y-81388000D01*
X124750000Y-81433000D01*
X124732000Y-81476000D01*
X124712000Y-81519000D01*
X124689000Y-81560000D01*
X124665000Y-81600000D01*
X124638000Y-81639000D01*
X124609000Y-81676000D01*
X124579000Y-81712000D01*
X124546000Y-81746000D01*
X124512000Y-81779000D01*
X124476000Y-81809000D01*
X124439000Y-81838000D01*
X124400000Y-81865000D01*
X124360000Y-81889000D01*
X124319000Y-81912000D01*
X124276000Y-81932000D01*
X124233000Y-81950000D01*
X124188000Y-81966000D01*
X124143000Y-81979000D01*
X124097000Y-81990000D01*
X124051000Y-81999000D01*
X124004000Y-82005000D01*
X123957000Y-82009000D01*
X123910000Y-82010000D01*
X123863000Y-82009000D01*
X123816000Y-82005000D01*
X123769000Y-81999000D01*
X123723000Y-81990000D01*
X123677000Y-81979000D01*
X123632000Y-81966000D01*
X123587000Y-81950000D01*
X123544000Y-81932000D01*
X123501000Y-81912000D01*
X123460000Y-81889000D01*
X123420000Y-81865000D01*
X123381000Y-81838000D01*
X123344000Y-81809000D01*
X123308000Y-81779000D01*
X123274000Y-81746000D01*
X123241000Y-81712000D01*
X123211000Y-81676000D01*
X123182000Y-81639000D01*
X123155000Y-81600000D01*
X123131000Y-81560000D01*
X123108000Y-81519000D01*
X123088000Y-81476000D01*
X123070000Y-81433000D01*
X123054000Y-81388000D01*
X123041000Y-81343000D01*
X123030000Y-81297000D01*
X123021000Y-81251000D01*
X123015000Y-81204000D01*
X123011000Y-81157000D01*
X123010000Y-81110000D01*
X123010000Y-78610000D01*
X124810000Y-78610000D01*
X124810000Y-81110000D01*
G37*
X123957000Y-97991000D02*
X124004000Y-97995000D01*
X124051000Y-98001000D01*
X124097000Y-98010000D01*
X124143000Y-98021000D01*
X124188000Y-98034000D01*
X124233000Y-98050000D01*
X124276000Y-98068000D01*
X124319000Y-98088000D01*
X124360000Y-98111000D01*
X124400000Y-98135000D01*
X124439000Y-98162000D01*
X124476000Y-98191000D01*
X124512000Y-98221000D01*
X124546000Y-98254000D01*
X124579000Y-98288000D01*
X124609000Y-98324000D01*
X124638000Y-98361000D01*
X124665000Y-98400000D01*
X124689000Y-98440000D01*
X124712000Y-98481000D01*
X124732000Y-98524000D01*
X124750000Y-98567000D01*
X124766000Y-98612000D01*
X124779000Y-98657000D01*
X124790000Y-98703000D01*
X124799000Y-98749000D01*
X124805000Y-98796000D01*
X124809000Y-98843000D01*
X124810000Y-98890000D01*
X124810000Y-101390000D01*
X123010000Y-101390000D01*
X123010000Y-98890000D01*
X123011000Y-98843000D01*
X123015000Y-98796000D01*
X123021000Y-98749000D01*
X123030000Y-98703000D01*
X123041000Y-98657000D01*
X123054000Y-98612000D01*
X123070000Y-98567000D01*
X123088000Y-98524000D01*
X123108000Y-98481000D01*
X123131000Y-98440000D01*
X123155000Y-98400000D01*
X123182000Y-98361000D01*
X123211000Y-98324000D01*
X123241000Y-98288000D01*
X123274000Y-98254000D01*
X123308000Y-98221000D01*
X123344000Y-98191000D01*
X123381000Y-98162000D01*
X123420000Y-98135000D01*
X123460000Y-98111000D01*
X123501000Y-98088000D01*
X123544000Y-98068000D01*
X123587000Y-98050000D01*
X123632000Y-98034000D01*
X123677000Y-98021000D01*
X123723000Y-98010000D01*
X123769000Y-98001000D01*
X123816000Y-97995000D01*
X123863000Y-97991000D01*
X123910000Y-97990000D01*
X123957000Y-97991000D01*
G36*
X123957000Y-97991000D02*
G01*
X124004000Y-97995000D01*
X124051000Y-98001000D01*
X124097000Y-98010000D01*
X124143000Y-98021000D01*
X124188000Y-98034000D01*
X124233000Y-98050000D01*
X124276000Y-98068000D01*
X124319000Y-98088000D01*
X124360000Y-98111000D01*
X124400000Y-98135000D01*
X124439000Y-98162000D01*
X124476000Y-98191000D01*
X124512000Y-98221000D01*
X124546000Y-98254000D01*
X124579000Y-98288000D01*
X124609000Y-98324000D01*
X124638000Y-98361000D01*
X124665000Y-98400000D01*
X124689000Y-98440000D01*
X124712000Y-98481000D01*
X124732000Y-98524000D01*
X124750000Y-98567000D01*
X124766000Y-98612000D01*
X124779000Y-98657000D01*
X124790000Y-98703000D01*
X124799000Y-98749000D01*
X124805000Y-98796000D01*
X124809000Y-98843000D01*
X124810000Y-98890000D01*
X124810000Y-101390000D01*
X123010000Y-101390000D01*
X123010000Y-98890000D01*
X123011000Y-98843000D01*
X123015000Y-98796000D01*
X123021000Y-98749000D01*
X123030000Y-98703000D01*
X123041000Y-98657000D01*
X123054000Y-98612000D01*
X123070000Y-98567000D01*
X123088000Y-98524000D01*
X123108000Y-98481000D01*
X123131000Y-98440000D01*
X123155000Y-98400000D01*
X123182000Y-98361000D01*
X123211000Y-98324000D01*
X123241000Y-98288000D01*
X123274000Y-98254000D01*
X123308000Y-98221000D01*
X123344000Y-98191000D01*
X123381000Y-98162000D01*
X123420000Y-98135000D01*
X123460000Y-98111000D01*
X123501000Y-98088000D01*
X123544000Y-98068000D01*
X123587000Y-98050000D01*
X123632000Y-98034000D01*
X123677000Y-98021000D01*
X123723000Y-98010000D01*
X123769000Y-98001000D01*
X123816000Y-97995000D01*
X123863000Y-97991000D01*
X123910000Y-97990000D01*
X123957000Y-97991000D01*
G37*
X129890000Y-81110000D02*
X129889000Y-81157000D01*
X129885000Y-81204000D01*
X129879000Y-81251000D01*
X129870000Y-81297000D01*
X129859000Y-81343000D01*
X129846000Y-81388000D01*
X129830000Y-81433000D01*
X129812000Y-81476000D01*
X129792000Y-81519000D01*
X129769000Y-81560000D01*
X129745000Y-81600000D01*
X129718000Y-81639000D01*
X129689000Y-81676000D01*
X129659000Y-81712000D01*
X129626000Y-81746000D01*
X129592000Y-81779000D01*
X129556000Y-81809000D01*
X129519000Y-81838000D01*
X129480000Y-81865000D01*
X129440000Y-81889000D01*
X129399000Y-81912000D01*
X129356000Y-81932000D01*
X129313000Y-81950000D01*
X129268000Y-81966000D01*
X129223000Y-81979000D01*
X129177000Y-81990000D01*
X129131000Y-81999000D01*
X129084000Y-82005000D01*
X129037000Y-82009000D01*
X128990000Y-82010000D01*
X128943000Y-82009000D01*
X128896000Y-82005000D01*
X128849000Y-81999000D01*
X128803000Y-81990000D01*
X128757000Y-81979000D01*
X128712000Y-81966000D01*
X128667000Y-81950000D01*
X128624000Y-81932000D01*
X128581000Y-81912000D01*
X128540000Y-81889000D01*
X128500000Y-81865000D01*
X128461000Y-81838000D01*
X128424000Y-81809000D01*
X128388000Y-81779000D01*
X128354000Y-81746000D01*
X128321000Y-81712000D01*
X128291000Y-81676000D01*
X128262000Y-81639000D01*
X128235000Y-81600000D01*
X128211000Y-81560000D01*
X128188000Y-81519000D01*
X128168000Y-81476000D01*
X128150000Y-81433000D01*
X128134000Y-81388000D01*
X128121000Y-81343000D01*
X128110000Y-81297000D01*
X128101000Y-81251000D01*
X128095000Y-81204000D01*
X128091000Y-81157000D01*
X128090000Y-81110000D01*
X128090000Y-78610000D01*
X129890000Y-78610000D01*
X129890000Y-81110000D01*
G36*
X129890000Y-81110000D02*
G01*
X129889000Y-81157000D01*
X129885000Y-81204000D01*
X129879000Y-81251000D01*
X129870000Y-81297000D01*
X129859000Y-81343000D01*
X129846000Y-81388000D01*
X129830000Y-81433000D01*
X129812000Y-81476000D01*
X129792000Y-81519000D01*
X129769000Y-81560000D01*
X129745000Y-81600000D01*
X129718000Y-81639000D01*
X129689000Y-81676000D01*
X129659000Y-81712000D01*
X129626000Y-81746000D01*
X129592000Y-81779000D01*
X129556000Y-81809000D01*
X129519000Y-81838000D01*
X129480000Y-81865000D01*
X129440000Y-81889000D01*
X129399000Y-81912000D01*
X129356000Y-81932000D01*
X129313000Y-81950000D01*
X129268000Y-81966000D01*
X129223000Y-81979000D01*
X129177000Y-81990000D01*
X129131000Y-81999000D01*
X129084000Y-82005000D01*
X129037000Y-82009000D01*
X128990000Y-82010000D01*
X128943000Y-82009000D01*
X128896000Y-82005000D01*
X128849000Y-81999000D01*
X128803000Y-81990000D01*
X128757000Y-81979000D01*
X128712000Y-81966000D01*
X128667000Y-81950000D01*
X128624000Y-81932000D01*
X128581000Y-81912000D01*
X128540000Y-81889000D01*
X128500000Y-81865000D01*
X128461000Y-81838000D01*
X128424000Y-81809000D01*
X128388000Y-81779000D01*
X128354000Y-81746000D01*
X128321000Y-81712000D01*
X128291000Y-81676000D01*
X128262000Y-81639000D01*
X128235000Y-81600000D01*
X128211000Y-81560000D01*
X128188000Y-81519000D01*
X128168000Y-81476000D01*
X128150000Y-81433000D01*
X128134000Y-81388000D01*
X128121000Y-81343000D01*
X128110000Y-81297000D01*
X128101000Y-81251000D01*
X128095000Y-81204000D01*
X128091000Y-81157000D01*
X128090000Y-81110000D01*
X128090000Y-78610000D01*
X129890000Y-78610000D01*
X129890000Y-81110000D01*
G37*
X129037000Y-97991000D02*
X129084000Y-97995000D01*
X129131000Y-98001000D01*
X129177000Y-98010000D01*
X129223000Y-98021000D01*
X129268000Y-98034000D01*
X129313000Y-98050000D01*
X129356000Y-98068000D01*
X129399000Y-98088000D01*
X129440000Y-98111000D01*
X129480000Y-98135000D01*
X129519000Y-98162000D01*
X129556000Y-98191000D01*
X129592000Y-98221000D01*
X129626000Y-98254000D01*
X129659000Y-98288000D01*
X129689000Y-98324000D01*
X129718000Y-98361000D01*
X129745000Y-98400000D01*
X129769000Y-98440000D01*
X129792000Y-98481000D01*
X129812000Y-98524000D01*
X129830000Y-98567000D01*
X129846000Y-98612000D01*
X129859000Y-98657000D01*
X129870000Y-98703000D01*
X129879000Y-98749000D01*
X129885000Y-98796000D01*
X129889000Y-98843000D01*
X129890000Y-98890000D01*
X129890000Y-101390000D01*
X128090000Y-101390000D01*
X128090000Y-98890000D01*
X128091000Y-98843000D01*
X128095000Y-98796000D01*
X128101000Y-98749000D01*
X128110000Y-98703000D01*
X128121000Y-98657000D01*
X128134000Y-98612000D01*
X128150000Y-98567000D01*
X128168000Y-98524000D01*
X128188000Y-98481000D01*
X128211000Y-98440000D01*
X128235000Y-98400000D01*
X128262000Y-98361000D01*
X128291000Y-98324000D01*
X128321000Y-98288000D01*
X128354000Y-98254000D01*
X128388000Y-98221000D01*
X128424000Y-98191000D01*
X128461000Y-98162000D01*
X128500000Y-98135000D01*
X128540000Y-98111000D01*
X128581000Y-98088000D01*
X128624000Y-98068000D01*
X128667000Y-98050000D01*
X128712000Y-98034000D01*
X128757000Y-98021000D01*
X128803000Y-98010000D01*
X128849000Y-98001000D01*
X128896000Y-97995000D01*
X128943000Y-97991000D01*
X128990000Y-97990000D01*
X129037000Y-97991000D01*
G36*
X129037000Y-97991000D02*
G01*
X129084000Y-97995000D01*
X129131000Y-98001000D01*
X129177000Y-98010000D01*
X129223000Y-98021000D01*
X129268000Y-98034000D01*
X129313000Y-98050000D01*
X129356000Y-98068000D01*
X129399000Y-98088000D01*
X129440000Y-98111000D01*
X129480000Y-98135000D01*
X129519000Y-98162000D01*
X129556000Y-98191000D01*
X129592000Y-98221000D01*
X129626000Y-98254000D01*
X129659000Y-98288000D01*
X129689000Y-98324000D01*
X129718000Y-98361000D01*
X129745000Y-98400000D01*
X129769000Y-98440000D01*
X129792000Y-98481000D01*
X129812000Y-98524000D01*
X129830000Y-98567000D01*
X129846000Y-98612000D01*
X129859000Y-98657000D01*
X129870000Y-98703000D01*
X129879000Y-98749000D01*
X129885000Y-98796000D01*
X129889000Y-98843000D01*
X129890000Y-98890000D01*
X129890000Y-101390000D01*
X128090000Y-101390000D01*
X128090000Y-98890000D01*
X128091000Y-98843000D01*
X128095000Y-98796000D01*
X128101000Y-98749000D01*
X128110000Y-98703000D01*
X128121000Y-98657000D01*
X128134000Y-98612000D01*
X128150000Y-98567000D01*
X128168000Y-98524000D01*
X128188000Y-98481000D01*
X128211000Y-98440000D01*
X128235000Y-98400000D01*
X128262000Y-98361000D01*
X128291000Y-98324000D01*
X128321000Y-98288000D01*
X128354000Y-98254000D01*
X128388000Y-98221000D01*
X128424000Y-98191000D01*
X128461000Y-98162000D01*
X128500000Y-98135000D01*
X128540000Y-98111000D01*
X128581000Y-98088000D01*
X128624000Y-98068000D01*
X128667000Y-98050000D01*
X128712000Y-98034000D01*
X128757000Y-98021000D01*
X128803000Y-98010000D01*
X128849000Y-98001000D01*
X128896000Y-97995000D01*
X128943000Y-97991000D01*
X128990000Y-97990000D01*
X129037000Y-97991000D01*
G37*
X132430000Y-81110000D02*
X132429000Y-81157000D01*
X132425000Y-81204000D01*
X132419000Y-81251000D01*
X132410000Y-81297000D01*
X132399000Y-81343000D01*
X132386000Y-81388000D01*
X132370000Y-81433000D01*
X132352000Y-81476000D01*
X132332000Y-81519000D01*
X132309000Y-81560000D01*
X132285000Y-81600000D01*
X132258000Y-81639000D01*
X132229000Y-81676000D01*
X132199000Y-81712000D01*
X132166000Y-81746000D01*
X132132000Y-81779000D01*
X132096000Y-81809000D01*
X132059000Y-81838000D01*
X132020000Y-81865000D01*
X131980000Y-81889000D01*
X131939000Y-81912000D01*
X131896000Y-81932000D01*
X131853000Y-81950000D01*
X131808000Y-81966000D01*
X131763000Y-81979000D01*
X131717000Y-81990000D01*
X131671000Y-81999000D01*
X131624000Y-82005000D01*
X131577000Y-82009000D01*
X131530000Y-82010000D01*
X131483000Y-82009000D01*
X131436000Y-82005000D01*
X131389000Y-81999000D01*
X131343000Y-81990000D01*
X131297000Y-81979000D01*
X131252000Y-81966000D01*
X131207000Y-81950000D01*
X131164000Y-81932000D01*
X131121000Y-81912000D01*
X131080000Y-81889000D01*
X131040000Y-81865000D01*
X131001000Y-81838000D01*
X130964000Y-81809000D01*
X130928000Y-81779000D01*
X130894000Y-81746000D01*
X130861000Y-81712000D01*
X130831000Y-81676000D01*
X130802000Y-81639000D01*
X130775000Y-81600000D01*
X130751000Y-81560000D01*
X130728000Y-81519000D01*
X130708000Y-81476000D01*
X130690000Y-81433000D01*
X130674000Y-81388000D01*
X130661000Y-81343000D01*
X130650000Y-81297000D01*
X130641000Y-81251000D01*
X130635000Y-81204000D01*
X130631000Y-81157000D01*
X130630000Y-81110000D01*
X130630000Y-78610000D01*
X132430000Y-78610000D01*
X132430000Y-81110000D01*
G36*
X132430000Y-81110000D02*
G01*
X132429000Y-81157000D01*
X132425000Y-81204000D01*
X132419000Y-81251000D01*
X132410000Y-81297000D01*
X132399000Y-81343000D01*
X132386000Y-81388000D01*
X132370000Y-81433000D01*
X132352000Y-81476000D01*
X132332000Y-81519000D01*
X132309000Y-81560000D01*
X132285000Y-81600000D01*
X132258000Y-81639000D01*
X132229000Y-81676000D01*
X132199000Y-81712000D01*
X132166000Y-81746000D01*
X132132000Y-81779000D01*
X132096000Y-81809000D01*
X132059000Y-81838000D01*
X132020000Y-81865000D01*
X131980000Y-81889000D01*
X131939000Y-81912000D01*
X131896000Y-81932000D01*
X131853000Y-81950000D01*
X131808000Y-81966000D01*
X131763000Y-81979000D01*
X131717000Y-81990000D01*
X131671000Y-81999000D01*
X131624000Y-82005000D01*
X131577000Y-82009000D01*
X131530000Y-82010000D01*
X131483000Y-82009000D01*
X131436000Y-82005000D01*
X131389000Y-81999000D01*
X131343000Y-81990000D01*
X131297000Y-81979000D01*
X131252000Y-81966000D01*
X131207000Y-81950000D01*
X131164000Y-81932000D01*
X131121000Y-81912000D01*
X131080000Y-81889000D01*
X131040000Y-81865000D01*
X131001000Y-81838000D01*
X130964000Y-81809000D01*
X130928000Y-81779000D01*
X130894000Y-81746000D01*
X130861000Y-81712000D01*
X130831000Y-81676000D01*
X130802000Y-81639000D01*
X130775000Y-81600000D01*
X130751000Y-81560000D01*
X130728000Y-81519000D01*
X130708000Y-81476000D01*
X130690000Y-81433000D01*
X130674000Y-81388000D01*
X130661000Y-81343000D01*
X130650000Y-81297000D01*
X130641000Y-81251000D01*
X130635000Y-81204000D01*
X130631000Y-81157000D01*
X130630000Y-81110000D01*
X130630000Y-78610000D01*
X132430000Y-78610000D01*
X132430000Y-81110000D01*
G37*
X131577000Y-97991000D02*
X131624000Y-97995000D01*
X131671000Y-98001000D01*
X131717000Y-98010000D01*
X131763000Y-98021000D01*
X131808000Y-98034000D01*
X131853000Y-98050000D01*
X131896000Y-98068000D01*
X131939000Y-98088000D01*
X131980000Y-98111000D01*
X132020000Y-98135000D01*
X132059000Y-98162000D01*
X132096000Y-98191000D01*
X132132000Y-98221000D01*
X132166000Y-98254000D01*
X132199000Y-98288000D01*
X132229000Y-98324000D01*
X132258000Y-98361000D01*
X132285000Y-98400000D01*
X132309000Y-98440000D01*
X132332000Y-98481000D01*
X132352000Y-98524000D01*
X132370000Y-98567000D01*
X132386000Y-98612000D01*
X132399000Y-98657000D01*
X132410000Y-98703000D01*
X132419000Y-98749000D01*
X132425000Y-98796000D01*
X132429000Y-98843000D01*
X132430000Y-98890000D01*
X132430000Y-101390000D01*
X130630000Y-101390000D01*
X130630000Y-98890000D01*
X130631000Y-98843000D01*
X130635000Y-98796000D01*
X130641000Y-98749000D01*
X130650000Y-98703000D01*
X130661000Y-98657000D01*
X130674000Y-98612000D01*
X130690000Y-98567000D01*
X130708000Y-98524000D01*
X130728000Y-98481000D01*
X130751000Y-98440000D01*
X130775000Y-98400000D01*
X130802000Y-98361000D01*
X130831000Y-98324000D01*
X130861000Y-98288000D01*
X130894000Y-98254000D01*
X130928000Y-98221000D01*
X130964000Y-98191000D01*
X131001000Y-98162000D01*
X131040000Y-98135000D01*
X131080000Y-98111000D01*
X131121000Y-98088000D01*
X131164000Y-98068000D01*
X131207000Y-98050000D01*
X131252000Y-98034000D01*
X131297000Y-98021000D01*
X131343000Y-98010000D01*
X131389000Y-98001000D01*
X131436000Y-97995000D01*
X131483000Y-97991000D01*
X131530000Y-97990000D01*
X131577000Y-97991000D01*
G36*
X131577000Y-97991000D02*
G01*
X131624000Y-97995000D01*
X131671000Y-98001000D01*
X131717000Y-98010000D01*
X131763000Y-98021000D01*
X131808000Y-98034000D01*
X131853000Y-98050000D01*
X131896000Y-98068000D01*
X131939000Y-98088000D01*
X131980000Y-98111000D01*
X132020000Y-98135000D01*
X132059000Y-98162000D01*
X132096000Y-98191000D01*
X132132000Y-98221000D01*
X132166000Y-98254000D01*
X132199000Y-98288000D01*
X132229000Y-98324000D01*
X132258000Y-98361000D01*
X132285000Y-98400000D01*
X132309000Y-98440000D01*
X132332000Y-98481000D01*
X132352000Y-98524000D01*
X132370000Y-98567000D01*
X132386000Y-98612000D01*
X132399000Y-98657000D01*
X132410000Y-98703000D01*
X132419000Y-98749000D01*
X132425000Y-98796000D01*
X132429000Y-98843000D01*
X132430000Y-98890000D01*
X132430000Y-101390000D01*
X130630000Y-101390000D01*
X130630000Y-98890000D01*
X130631000Y-98843000D01*
X130635000Y-98796000D01*
X130641000Y-98749000D01*
X130650000Y-98703000D01*
X130661000Y-98657000D01*
X130674000Y-98612000D01*
X130690000Y-98567000D01*
X130708000Y-98524000D01*
X130728000Y-98481000D01*
X130751000Y-98440000D01*
X130775000Y-98400000D01*
X130802000Y-98361000D01*
X130831000Y-98324000D01*
X130861000Y-98288000D01*
X130894000Y-98254000D01*
X130928000Y-98221000D01*
X130964000Y-98191000D01*
X131001000Y-98162000D01*
X131040000Y-98135000D01*
X131080000Y-98111000D01*
X131121000Y-98088000D01*
X131164000Y-98068000D01*
X131207000Y-98050000D01*
X131252000Y-98034000D01*
X131297000Y-98021000D01*
X131343000Y-98010000D01*
X131389000Y-98001000D01*
X131436000Y-97995000D01*
X131483000Y-97991000D01*
X131530000Y-97990000D01*
X131577000Y-97991000D01*
G37*
X134970000Y-81110000D02*
X134969000Y-81157000D01*
X134965000Y-81204000D01*
X134959000Y-81251000D01*
X134950000Y-81297000D01*
X134939000Y-81343000D01*
X134926000Y-81388000D01*
X134910000Y-81433000D01*
X134892000Y-81476000D01*
X134872000Y-81519000D01*
X134849000Y-81560000D01*
X134825000Y-81600000D01*
X134798000Y-81639000D01*
X134769000Y-81676000D01*
X134739000Y-81712000D01*
X134706000Y-81746000D01*
X134672000Y-81779000D01*
X134636000Y-81809000D01*
X134599000Y-81838000D01*
X134560000Y-81865000D01*
X134520000Y-81889000D01*
X134479000Y-81912000D01*
X134436000Y-81932000D01*
X134393000Y-81950000D01*
X134348000Y-81966000D01*
X134303000Y-81979000D01*
X134257000Y-81990000D01*
X134211000Y-81999000D01*
X134164000Y-82005000D01*
X134117000Y-82009000D01*
X134070000Y-82010000D01*
X134023000Y-82009000D01*
X133976000Y-82005000D01*
X133929000Y-81999000D01*
X133883000Y-81990000D01*
X133837000Y-81979000D01*
X133792000Y-81966000D01*
X133747000Y-81950000D01*
X133704000Y-81932000D01*
X133661000Y-81912000D01*
X133620000Y-81889000D01*
X133580000Y-81865000D01*
X133541000Y-81838000D01*
X133504000Y-81809000D01*
X133468000Y-81779000D01*
X133434000Y-81746000D01*
X133401000Y-81712000D01*
X133371000Y-81676000D01*
X133342000Y-81639000D01*
X133315000Y-81600000D01*
X133291000Y-81560000D01*
X133268000Y-81519000D01*
X133248000Y-81476000D01*
X133230000Y-81433000D01*
X133214000Y-81388000D01*
X133201000Y-81343000D01*
X133190000Y-81297000D01*
X133181000Y-81251000D01*
X133175000Y-81204000D01*
X133171000Y-81157000D01*
X133170000Y-81110000D01*
X133170000Y-78610000D01*
X134970000Y-78610000D01*
X134970000Y-81110000D01*
G36*
X134970000Y-81110000D02*
G01*
X134969000Y-81157000D01*
X134965000Y-81204000D01*
X134959000Y-81251000D01*
X134950000Y-81297000D01*
X134939000Y-81343000D01*
X134926000Y-81388000D01*
X134910000Y-81433000D01*
X134892000Y-81476000D01*
X134872000Y-81519000D01*
X134849000Y-81560000D01*
X134825000Y-81600000D01*
X134798000Y-81639000D01*
X134769000Y-81676000D01*
X134739000Y-81712000D01*
X134706000Y-81746000D01*
X134672000Y-81779000D01*
X134636000Y-81809000D01*
X134599000Y-81838000D01*
X134560000Y-81865000D01*
X134520000Y-81889000D01*
X134479000Y-81912000D01*
X134436000Y-81932000D01*
X134393000Y-81950000D01*
X134348000Y-81966000D01*
X134303000Y-81979000D01*
X134257000Y-81990000D01*
X134211000Y-81999000D01*
X134164000Y-82005000D01*
X134117000Y-82009000D01*
X134070000Y-82010000D01*
X134023000Y-82009000D01*
X133976000Y-82005000D01*
X133929000Y-81999000D01*
X133883000Y-81990000D01*
X133837000Y-81979000D01*
X133792000Y-81966000D01*
X133747000Y-81950000D01*
X133704000Y-81932000D01*
X133661000Y-81912000D01*
X133620000Y-81889000D01*
X133580000Y-81865000D01*
X133541000Y-81838000D01*
X133504000Y-81809000D01*
X133468000Y-81779000D01*
X133434000Y-81746000D01*
X133401000Y-81712000D01*
X133371000Y-81676000D01*
X133342000Y-81639000D01*
X133315000Y-81600000D01*
X133291000Y-81560000D01*
X133268000Y-81519000D01*
X133248000Y-81476000D01*
X133230000Y-81433000D01*
X133214000Y-81388000D01*
X133201000Y-81343000D01*
X133190000Y-81297000D01*
X133181000Y-81251000D01*
X133175000Y-81204000D01*
X133171000Y-81157000D01*
X133170000Y-81110000D01*
X133170000Y-78610000D01*
X134970000Y-78610000D01*
X134970000Y-81110000D01*
G37*
X134117000Y-97991000D02*
X134164000Y-97995000D01*
X134211000Y-98001000D01*
X134257000Y-98010000D01*
X134303000Y-98021000D01*
X134348000Y-98034000D01*
X134393000Y-98050000D01*
X134436000Y-98068000D01*
X134479000Y-98088000D01*
X134520000Y-98111000D01*
X134560000Y-98135000D01*
X134599000Y-98162000D01*
X134636000Y-98191000D01*
X134672000Y-98221000D01*
X134706000Y-98254000D01*
X134739000Y-98288000D01*
X134769000Y-98324000D01*
X134798000Y-98361000D01*
X134825000Y-98400000D01*
X134849000Y-98440000D01*
X134872000Y-98481000D01*
X134892000Y-98524000D01*
X134910000Y-98567000D01*
X134926000Y-98612000D01*
X134939000Y-98657000D01*
X134950000Y-98703000D01*
X134959000Y-98749000D01*
X134965000Y-98796000D01*
X134969000Y-98843000D01*
X134970000Y-98890000D01*
X134970000Y-101390000D01*
X133170000Y-101390000D01*
X133170000Y-98890000D01*
X133171000Y-98843000D01*
X133175000Y-98796000D01*
X133181000Y-98749000D01*
X133190000Y-98703000D01*
X133201000Y-98657000D01*
X133214000Y-98612000D01*
X133230000Y-98567000D01*
X133248000Y-98524000D01*
X133268000Y-98481000D01*
X133291000Y-98440000D01*
X133315000Y-98400000D01*
X133342000Y-98361000D01*
X133371000Y-98324000D01*
X133401000Y-98288000D01*
X133434000Y-98254000D01*
X133468000Y-98221000D01*
X133504000Y-98191000D01*
X133541000Y-98162000D01*
X133580000Y-98135000D01*
X133620000Y-98111000D01*
X133661000Y-98088000D01*
X133704000Y-98068000D01*
X133747000Y-98050000D01*
X133792000Y-98034000D01*
X133837000Y-98021000D01*
X133883000Y-98010000D01*
X133929000Y-98001000D01*
X133976000Y-97995000D01*
X134023000Y-97991000D01*
X134070000Y-97990000D01*
X134117000Y-97991000D01*
G36*
X134117000Y-97991000D02*
G01*
X134164000Y-97995000D01*
X134211000Y-98001000D01*
X134257000Y-98010000D01*
X134303000Y-98021000D01*
X134348000Y-98034000D01*
X134393000Y-98050000D01*
X134436000Y-98068000D01*
X134479000Y-98088000D01*
X134520000Y-98111000D01*
X134560000Y-98135000D01*
X134599000Y-98162000D01*
X134636000Y-98191000D01*
X134672000Y-98221000D01*
X134706000Y-98254000D01*
X134739000Y-98288000D01*
X134769000Y-98324000D01*
X134798000Y-98361000D01*
X134825000Y-98400000D01*
X134849000Y-98440000D01*
X134872000Y-98481000D01*
X134892000Y-98524000D01*
X134910000Y-98567000D01*
X134926000Y-98612000D01*
X134939000Y-98657000D01*
X134950000Y-98703000D01*
X134959000Y-98749000D01*
X134965000Y-98796000D01*
X134969000Y-98843000D01*
X134970000Y-98890000D01*
X134970000Y-101390000D01*
X133170000Y-101390000D01*
X133170000Y-98890000D01*
X133171000Y-98843000D01*
X133175000Y-98796000D01*
X133181000Y-98749000D01*
X133190000Y-98703000D01*
X133201000Y-98657000D01*
X133214000Y-98612000D01*
X133230000Y-98567000D01*
X133248000Y-98524000D01*
X133268000Y-98481000D01*
X133291000Y-98440000D01*
X133315000Y-98400000D01*
X133342000Y-98361000D01*
X133371000Y-98324000D01*
X133401000Y-98288000D01*
X133434000Y-98254000D01*
X133468000Y-98221000D01*
X133504000Y-98191000D01*
X133541000Y-98162000D01*
X133580000Y-98135000D01*
X133620000Y-98111000D01*
X133661000Y-98088000D01*
X133704000Y-98068000D01*
X133747000Y-98050000D01*
X133792000Y-98034000D01*
X133837000Y-98021000D01*
X133883000Y-98010000D01*
X133929000Y-98001000D01*
X133976000Y-97995000D01*
X134023000Y-97991000D01*
X134070000Y-97990000D01*
X134117000Y-97991000D01*
G37*
X137510000Y-81110000D02*
X137509000Y-81157000D01*
X137505000Y-81204000D01*
X137499000Y-81251000D01*
X137490000Y-81297000D01*
X137479000Y-81343000D01*
X137466000Y-81388000D01*
X137450000Y-81433000D01*
X137432000Y-81476000D01*
X137412000Y-81519000D01*
X137389000Y-81560000D01*
X137365000Y-81600000D01*
X137338000Y-81639000D01*
X137309000Y-81676000D01*
X137279000Y-81712000D01*
X137246000Y-81746000D01*
X137212000Y-81779000D01*
X137176000Y-81809000D01*
X137139000Y-81838000D01*
X137100000Y-81865000D01*
X137060000Y-81889000D01*
X137019000Y-81912000D01*
X136976000Y-81932000D01*
X136933000Y-81950000D01*
X136888000Y-81966000D01*
X136843000Y-81979000D01*
X136797000Y-81990000D01*
X136751000Y-81999000D01*
X136704000Y-82005000D01*
X136657000Y-82009000D01*
X136610000Y-82010000D01*
X136563000Y-82009000D01*
X136516000Y-82005000D01*
X136469000Y-81999000D01*
X136423000Y-81990000D01*
X136377000Y-81979000D01*
X136332000Y-81966000D01*
X136287000Y-81950000D01*
X136244000Y-81932000D01*
X136201000Y-81912000D01*
X136160000Y-81889000D01*
X136120000Y-81865000D01*
X136081000Y-81838000D01*
X136044000Y-81809000D01*
X136008000Y-81779000D01*
X135974000Y-81746000D01*
X135941000Y-81712000D01*
X135911000Y-81676000D01*
X135882000Y-81639000D01*
X135855000Y-81600000D01*
X135831000Y-81560000D01*
X135808000Y-81519000D01*
X135788000Y-81476000D01*
X135770000Y-81433000D01*
X135754000Y-81388000D01*
X135741000Y-81343000D01*
X135730000Y-81297000D01*
X135721000Y-81251000D01*
X135715000Y-81204000D01*
X135711000Y-81157000D01*
X135710000Y-81110000D01*
X135710000Y-78610000D01*
X137510000Y-78610000D01*
X137510000Y-81110000D01*
G36*
X137510000Y-81110000D02*
G01*
X137509000Y-81157000D01*
X137505000Y-81204000D01*
X137499000Y-81251000D01*
X137490000Y-81297000D01*
X137479000Y-81343000D01*
X137466000Y-81388000D01*
X137450000Y-81433000D01*
X137432000Y-81476000D01*
X137412000Y-81519000D01*
X137389000Y-81560000D01*
X137365000Y-81600000D01*
X137338000Y-81639000D01*
X137309000Y-81676000D01*
X137279000Y-81712000D01*
X137246000Y-81746000D01*
X137212000Y-81779000D01*
X137176000Y-81809000D01*
X137139000Y-81838000D01*
X137100000Y-81865000D01*
X137060000Y-81889000D01*
X137019000Y-81912000D01*
X136976000Y-81932000D01*
X136933000Y-81950000D01*
X136888000Y-81966000D01*
X136843000Y-81979000D01*
X136797000Y-81990000D01*
X136751000Y-81999000D01*
X136704000Y-82005000D01*
X136657000Y-82009000D01*
X136610000Y-82010000D01*
X136563000Y-82009000D01*
X136516000Y-82005000D01*
X136469000Y-81999000D01*
X136423000Y-81990000D01*
X136377000Y-81979000D01*
X136332000Y-81966000D01*
X136287000Y-81950000D01*
X136244000Y-81932000D01*
X136201000Y-81912000D01*
X136160000Y-81889000D01*
X136120000Y-81865000D01*
X136081000Y-81838000D01*
X136044000Y-81809000D01*
X136008000Y-81779000D01*
X135974000Y-81746000D01*
X135941000Y-81712000D01*
X135911000Y-81676000D01*
X135882000Y-81639000D01*
X135855000Y-81600000D01*
X135831000Y-81560000D01*
X135808000Y-81519000D01*
X135788000Y-81476000D01*
X135770000Y-81433000D01*
X135754000Y-81388000D01*
X135741000Y-81343000D01*
X135730000Y-81297000D01*
X135721000Y-81251000D01*
X135715000Y-81204000D01*
X135711000Y-81157000D01*
X135710000Y-81110000D01*
X135710000Y-78610000D01*
X137510000Y-78610000D01*
X137510000Y-81110000D01*
G37*
X136657000Y-97991000D02*
X136704000Y-97995000D01*
X136751000Y-98001000D01*
X136797000Y-98010000D01*
X136843000Y-98021000D01*
X136888000Y-98034000D01*
X136933000Y-98050000D01*
X136976000Y-98068000D01*
X137019000Y-98088000D01*
X137060000Y-98111000D01*
X137100000Y-98135000D01*
X137139000Y-98162000D01*
X137176000Y-98191000D01*
X137212000Y-98221000D01*
X137246000Y-98254000D01*
X137279000Y-98288000D01*
X137309000Y-98324000D01*
X137338000Y-98361000D01*
X137365000Y-98400000D01*
X137389000Y-98440000D01*
X137412000Y-98481000D01*
X137432000Y-98524000D01*
X137450000Y-98567000D01*
X137466000Y-98612000D01*
X137479000Y-98657000D01*
X137490000Y-98703000D01*
X137499000Y-98749000D01*
X137505000Y-98796000D01*
X137509000Y-98843000D01*
X137510000Y-98890000D01*
X137510000Y-101390000D01*
X135710000Y-101390000D01*
X135710000Y-98890000D01*
X135711000Y-98843000D01*
X135715000Y-98796000D01*
X135721000Y-98749000D01*
X135730000Y-98703000D01*
X135741000Y-98657000D01*
X135754000Y-98612000D01*
X135770000Y-98567000D01*
X135788000Y-98524000D01*
X135808000Y-98481000D01*
X135831000Y-98440000D01*
X135855000Y-98400000D01*
X135882000Y-98361000D01*
X135911000Y-98324000D01*
X135941000Y-98288000D01*
X135974000Y-98254000D01*
X136008000Y-98221000D01*
X136044000Y-98191000D01*
X136081000Y-98162000D01*
X136120000Y-98135000D01*
X136160000Y-98111000D01*
X136201000Y-98088000D01*
X136244000Y-98068000D01*
X136287000Y-98050000D01*
X136332000Y-98034000D01*
X136377000Y-98021000D01*
X136423000Y-98010000D01*
X136469000Y-98001000D01*
X136516000Y-97995000D01*
X136563000Y-97991000D01*
X136610000Y-97990000D01*
X136657000Y-97991000D01*
G36*
X136657000Y-97991000D02*
G01*
X136704000Y-97995000D01*
X136751000Y-98001000D01*
X136797000Y-98010000D01*
X136843000Y-98021000D01*
X136888000Y-98034000D01*
X136933000Y-98050000D01*
X136976000Y-98068000D01*
X137019000Y-98088000D01*
X137060000Y-98111000D01*
X137100000Y-98135000D01*
X137139000Y-98162000D01*
X137176000Y-98191000D01*
X137212000Y-98221000D01*
X137246000Y-98254000D01*
X137279000Y-98288000D01*
X137309000Y-98324000D01*
X137338000Y-98361000D01*
X137365000Y-98400000D01*
X137389000Y-98440000D01*
X137412000Y-98481000D01*
X137432000Y-98524000D01*
X137450000Y-98567000D01*
X137466000Y-98612000D01*
X137479000Y-98657000D01*
X137490000Y-98703000D01*
X137499000Y-98749000D01*
X137505000Y-98796000D01*
X137509000Y-98843000D01*
X137510000Y-98890000D01*
X137510000Y-101390000D01*
X135710000Y-101390000D01*
X135710000Y-98890000D01*
X135711000Y-98843000D01*
X135715000Y-98796000D01*
X135721000Y-98749000D01*
X135730000Y-98703000D01*
X135741000Y-98657000D01*
X135754000Y-98612000D01*
X135770000Y-98567000D01*
X135788000Y-98524000D01*
X135808000Y-98481000D01*
X135831000Y-98440000D01*
X135855000Y-98400000D01*
X135882000Y-98361000D01*
X135911000Y-98324000D01*
X135941000Y-98288000D01*
X135974000Y-98254000D01*
X136008000Y-98221000D01*
X136044000Y-98191000D01*
X136081000Y-98162000D01*
X136120000Y-98135000D01*
X136160000Y-98111000D01*
X136201000Y-98088000D01*
X136244000Y-98068000D01*
X136287000Y-98050000D01*
X136332000Y-98034000D01*
X136377000Y-98021000D01*
X136423000Y-98010000D01*
X136469000Y-98001000D01*
X136516000Y-97995000D01*
X136563000Y-97991000D01*
X136610000Y-97990000D01*
X136657000Y-97991000D01*
G37*
X142590000Y-81110000D02*
X142589000Y-81157000D01*
X142585000Y-81204000D01*
X142579000Y-81251000D01*
X142570000Y-81297000D01*
X142559000Y-81343000D01*
X142546000Y-81388000D01*
X142530000Y-81433000D01*
X142512000Y-81476000D01*
X142492000Y-81519000D01*
X142469000Y-81560000D01*
X142445000Y-81600000D01*
X142418000Y-81639000D01*
X142389000Y-81676000D01*
X142359000Y-81712000D01*
X142326000Y-81746000D01*
X142292000Y-81779000D01*
X142256000Y-81809000D01*
X142219000Y-81838000D01*
X142180000Y-81865000D01*
X142140000Y-81889000D01*
X142099000Y-81912000D01*
X142056000Y-81932000D01*
X142013000Y-81950000D01*
X141968000Y-81966000D01*
X141923000Y-81979000D01*
X141877000Y-81990000D01*
X141831000Y-81999000D01*
X141784000Y-82005000D01*
X141737000Y-82009000D01*
X141690000Y-82010000D01*
X141643000Y-82009000D01*
X141596000Y-82005000D01*
X141549000Y-81999000D01*
X141503000Y-81990000D01*
X141457000Y-81979000D01*
X141412000Y-81966000D01*
X141367000Y-81950000D01*
X141324000Y-81932000D01*
X141281000Y-81912000D01*
X141240000Y-81889000D01*
X141200000Y-81865000D01*
X141161000Y-81838000D01*
X141124000Y-81809000D01*
X141088000Y-81779000D01*
X141054000Y-81746000D01*
X141021000Y-81712000D01*
X140991000Y-81676000D01*
X140962000Y-81639000D01*
X140935000Y-81600000D01*
X140911000Y-81560000D01*
X140888000Y-81519000D01*
X140868000Y-81476000D01*
X140850000Y-81433000D01*
X140834000Y-81388000D01*
X140821000Y-81343000D01*
X140810000Y-81297000D01*
X140801000Y-81251000D01*
X140795000Y-81204000D01*
X140791000Y-81157000D01*
X140790000Y-81110000D01*
X140790000Y-78610000D01*
X142590000Y-78610000D01*
X142590000Y-81110000D01*
G36*
X142590000Y-81110000D02*
G01*
X142589000Y-81157000D01*
X142585000Y-81204000D01*
X142579000Y-81251000D01*
X142570000Y-81297000D01*
X142559000Y-81343000D01*
X142546000Y-81388000D01*
X142530000Y-81433000D01*
X142512000Y-81476000D01*
X142492000Y-81519000D01*
X142469000Y-81560000D01*
X142445000Y-81600000D01*
X142418000Y-81639000D01*
X142389000Y-81676000D01*
X142359000Y-81712000D01*
X142326000Y-81746000D01*
X142292000Y-81779000D01*
X142256000Y-81809000D01*
X142219000Y-81838000D01*
X142180000Y-81865000D01*
X142140000Y-81889000D01*
X142099000Y-81912000D01*
X142056000Y-81932000D01*
X142013000Y-81950000D01*
X141968000Y-81966000D01*
X141923000Y-81979000D01*
X141877000Y-81990000D01*
X141831000Y-81999000D01*
X141784000Y-82005000D01*
X141737000Y-82009000D01*
X141690000Y-82010000D01*
X141643000Y-82009000D01*
X141596000Y-82005000D01*
X141549000Y-81999000D01*
X141503000Y-81990000D01*
X141457000Y-81979000D01*
X141412000Y-81966000D01*
X141367000Y-81950000D01*
X141324000Y-81932000D01*
X141281000Y-81912000D01*
X141240000Y-81889000D01*
X141200000Y-81865000D01*
X141161000Y-81838000D01*
X141124000Y-81809000D01*
X141088000Y-81779000D01*
X141054000Y-81746000D01*
X141021000Y-81712000D01*
X140991000Y-81676000D01*
X140962000Y-81639000D01*
X140935000Y-81600000D01*
X140911000Y-81560000D01*
X140888000Y-81519000D01*
X140868000Y-81476000D01*
X140850000Y-81433000D01*
X140834000Y-81388000D01*
X140821000Y-81343000D01*
X140810000Y-81297000D01*
X140801000Y-81251000D01*
X140795000Y-81204000D01*
X140791000Y-81157000D01*
X140790000Y-81110000D01*
X140790000Y-78610000D01*
X142590000Y-78610000D01*
X142590000Y-81110000D01*
G37*
X141737000Y-97991000D02*
X141784000Y-97995000D01*
X141831000Y-98001000D01*
X141877000Y-98010000D01*
X141923000Y-98021000D01*
X141968000Y-98034000D01*
X142013000Y-98050000D01*
X142056000Y-98068000D01*
X142099000Y-98088000D01*
X142140000Y-98111000D01*
X142180000Y-98135000D01*
X142219000Y-98162000D01*
X142256000Y-98191000D01*
X142292000Y-98221000D01*
X142326000Y-98254000D01*
X142359000Y-98288000D01*
X142389000Y-98324000D01*
X142418000Y-98361000D01*
X142445000Y-98400000D01*
X142469000Y-98440000D01*
X142492000Y-98481000D01*
X142512000Y-98524000D01*
X142530000Y-98567000D01*
X142546000Y-98612000D01*
X142559000Y-98657000D01*
X142570000Y-98703000D01*
X142579000Y-98749000D01*
X142585000Y-98796000D01*
X142589000Y-98843000D01*
X142590000Y-98890000D01*
X142590000Y-101390000D01*
X140790000Y-101390000D01*
X140790000Y-98890000D01*
X140791000Y-98843000D01*
X140795000Y-98796000D01*
X140801000Y-98749000D01*
X140810000Y-98703000D01*
X140821000Y-98657000D01*
X140834000Y-98612000D01*
X140850000Y-98567000D01*
X140868000Y-98524000D01*
X140888000Y-98481000D01*
X140911000Y-98440000D01*
X140935000Y-98400000D01*
X140962000Y-98361000D01*
X140991000Y-98324000D01*
X141021000Y-98288000D01*
X141054000Y-98254000D01*
X141088000Y-98221000D01*
X141124000Y-98191000D01*
X141161000Y-98162000D01*
X141200000Y-98135000D01*
X141240000Y-98111000D01*
X141281000Y-98088000D01*
X141324000Y-98068000D01*
X141367000Y-98050000D01*
X141412000Y-98034000D01*
X141457000Y-98021000D01*
X141503000Y-98010000D01*
X141549000Y-98001000D01*
X141596000Y-97995000D01*
X141643000Y-97991000D01*
X141690000Y-97990000D01*
X141737000Y-97991000D01*
G36*
X141737000Y-97991000D02*
G01*
X141784000Y-97995000D01*
X141831000Y-98001000D01*
X141877000Y-98010000D01*
X141923000Y-98021000D01*
X141968000Y-98034000D01*
X142013000Y-98050000D01*
X142056000Y-98068000D01*
X142099000Y-98088000D01*
X142140000Y-98111000D01*
X142180000Y-98135000D01*
X142219000Y-98162000D01*
X142256000Y-98191000D01*
X142292000Y-98221000D01*
X142326000Y-98254000D01*
X142359000Y-98288000D01*
X142389000Y-98324000D01*
X142418000Y-98361000D01*
X142445000Y-98400000D01*
X142469000Y-98440000D01*
X142492000Y-98481000D01*
X142512000Y-98524000D01*
X142530000Y-98567000D01*
X142546000Y-98612000D01*
X142559000Y-98657000D01*
X142570000Y-98703000D01*
X142579000Y-98749000D01*
X142585000Y-98796000D01*
X142589000Y-98843000D01*
X142590000Y-98890000D01*
X142590000Y-101390000D01*
X140790000Y-101390000D01*
X140790000Y-98890000D01*
X140791000Y-98843000D01*
X140795000Y-98796000D01*
X140801000Y-98749000D01*
X140810000Y-98703000D01*
X140821000Y-98657000D01*
X140834000Y-98612000D01*
X140850000Y-98567000D01*
X140868000Y-98524000D01*
X140888000Y-98481000D01*
X140911000Y-98440000D01*
X140935000Y-98400000D01*
X140962000Y-98361000D01*
X140991000Y-98324000D01*
X141021000Y-98288000D01*
X141054000Y-98254000D01*
X141088000Y-98221000D01*
X141124000Y-98191000D01*
X141161000Y-98162000D01*
X141200000Y-98135000D01*
X141240000Y-98111000D01*
X141281000Y-98088000D01*
X141324000Y-98068000D01*
X141367000Y-98050000D01*
X141412000Y-98034000D01*
X141457000Y-98021000D01*
X141503000Y-98010000D01*
X141549000Y-98001000D01*
X141596000Y-97995000D01*
X141643000Y-97991000D01*
X141690000Y-97990000D01*
X141737000Y-97991000D01*
G37*
X145130000Y-81110000D02*
X145129000Y-81157000D01*
X145125000Y-81204000D01*
X145119000Y-81251000D01*
X145110000Y-81297000D01*
X145099000Y-81343000D01*
X145086000Y-81388000D01*
X145070000Y-81433000D01*
X145052000Y-81476000D01*
X145032000Y-81519000D01*
X145009000Y-81560000D01*
X144985000Y-81600000D01*
X144958000Y-81639000D01*
X144929000Y-81676000D01*
X144899000Y-81712000D01*
X144866000Y-81746000D01*
X144832000Y-81779000D01*
X144796000Y-81809000D01*
X144759000Y-81838000D01*
X144720000Y-81865000D01*
X144680000Y-81889000D01*
X144639000Y-81912000D01*
X144596000Y-81932000D01*
X144553000Y-81950000D01*
X144508000Y-81966000D01*
X144463000Y-81979000D01*
X144417000Y-81990000D01*
X144371000Y-81999000D01*
X144324000Y-82005000D01*
X144277000Y-82009000D01*
X144230000Y-82010000D01*
X144183000Y-82009000D01*
X144136000Y-82005000D01*
X144089000Y-81999000D01*
X144043000Y-81990000D01*
X143997000Y-81979000D01*
X143952000Y-81966000D01*
X143907000Y-81950000D01*
X143864000Y-81932000D01*
X143821000Y-81912000D01*
X143780000Y-81889000D01*
X143740000Y-81865000D01*
X143701000Y-81838000D01*
X143664000Y-81809000D01*
X143628000Y-81779000D01*
X143594000Y-81746000D01*
X143561000Y-81712000D01*
X143531000Y-81676000D01*
X143502000Y-81639000D01*
X143475000Y-81600000D01*
X143451000Y-81560000D01*
X143428000Y-81519000D01*
X143408000Y-81476000D01*
X143390000Y-81433000D01*
X143374000Y-81388000D01*
X143361000Y-81343000D01*
X143350000Y-81297000D01*
X143341000Y-81251000D01*
X143335000Y-81204000D01*
X143331000Y-81157000D01*
X143330000Y-81110000D01*
X143330000Y-78610000D01*
X145130000Y-78610000D01*
X145130000Y-81110000D01*
G36*
X145130000Y-81110000D02*
G01*
X145129000Y-81157000D01*
X145125000Y-81204000D01*
X145119000Y-81251000D01*
X145110000Y-81297000D01*
X145099000Y-81343000D01*
X145086000Y-81388000D01*
X145070000Y-81433000D01*
X145052000Y-81476000D01*
X145032000Y-81519000D01*
X145009000Y-81560000D01*
X144985000Y-81600000D01*
X144958000Y-81639000D01*
X144929000Y-81676000D01*
X144899000Y-81712000D01*
X144866000Y-81746000D01*
X144832000Y-81779000D01*
X144796000Y-81809000D01*
X144759000Y-81838000D01*
X144720000Y-81865000D01*
X144680000Y-81889000D01*
X144639000Y-81912000D01*
X144596000Y-81932000D01*
X144553000Y-81950000D01*
X144508000Y-81966000D01*
X144463000Y-81979000D01*
X144417000Y-81990000D01*
X144371000Y-81999000D01*
X144324000Y-82005000D01*
X144277000Y-82009000D01*
X144230000Y-82010000D01*
X144183000Y-82009000D01*
X144136000Y-82005000D01*
X144089000Y-81999000D01*
X144043000Y-81990000D01*
X143997000Y-81979000D01*
X143952000Y-81966000D01*
X143907000Y-81950000D01*
X143864000Y-81932000D01*
X143821000Y-81912000D01*
X143780000Y-81889000D01*
X143740000Y-81865000D01*
X143701000Y-81838000D01*
X143664000Y-81809000D01*
X143628000Y-81779000D01*
X143594000Y-81746000D01*
X143561000Y-81712000D01*
X143531000Y-81676000D01*
X143502000Y-81639000D01*
X143475000Y-81600000D01*
X143451000Y-81560000D01*
X143428000Y-81519000D01*
X143408000Y-81476000D01*
X143390000Y-81433000D01*
X143374000Y-81388000D01*
X143361000Y-81343000D01*
X143350000Y-81297000D01*
X143341000Y-81251000D01*
X143335000Y-81204000D01*
X143331000Y-81157000D01*
X143330000Y-81110000D01*
X143330000Y-78610000D01*
X145130000Y-78610000D01*
X145130000Y-81110000D01*
G37*
X144277000Y-97991000D02*
X144324000Y-97995000D01*
X144371000Y-98001000D01*
X144417000Y-98010000D01*
X144463000Y-98021000D01*
X144508000Y-98034000D01*
X144553000Y-98050000D01*
X144596000Y-98068000D01*
X144639000Y-98088000D01*
X144680000Y-98111000D01*
X144720000Y-98135000D01*
X144759000Y-98162000D01*
X144796000Y-98191000D01*
X144832000Y-98221000D01*
X144866000Y-98254000D01*
X144899000Y-98288000D01*
X144929000Y-98324000D01*
X144958000Y-98361000D01*
X144985000Y-98400000D01*
X145009000Y-98440000D01*
X145032000Y-98481000D01*
X145052000Y-98524000D01*
X145070000Y-98567000D01*
X145086000Y-98612000D01*
X145099000Y-98657000D01*
X145110000Y-98703000D01*
X145119000Y-98749000D01*
X145125000Y-98796000D01*
X145129000Y-98843000D01*
X145130000Y-98890000D01*
X145130000Y-101390000D01*
X143330000Y-101390000D01*
X143330000Y-98890000D01*
X143331000Y-98843000D01*
X143335000Y-98796000D01*
X143341000Y-98749000D01*
X143350000Y-98703000D01*
X143361000Y-98657000D01*
X143374000Y-98612000D01*
X143390000Y-98567000D01*
X143408000Y-98524000D01*
X143428000Y-98481000D01*
X143451000Y-98440000D01*
X143475000Y-98400000D01*
X143502000Y-98361000D01*
X143531000Y-98324000D01*
X143561000Y-98288000D01*
X143594000Y-98254000D01*
X143628000Y-98221000D01*
X143664000Y-98191000D01*
X143701000Y-98162000D01*
X143740000Y-98135000D01*
X143780000Y-98111000D01*
X143821000Y-98088000D01*
X143864000Y-98068000D01*
X143907000Y-98050000D01*
X143952000Y-98034000D01*
X143997000Y-98021000D01*
X144043000Y-98010000D01*
X144089000Y-98001000D01*
X144136000Y-97995000D01*
X144183000Y-97991000D01*
X144230000Y-97990000D01*
X144277000Y-97991000D01*
G36*
X144277000Y-97991000D02*
G01*
X144324000Y-97995000D01*
X144371000Y-98001000D01*
X144417000Y-98010000D01*
X144463000Y-98021000D01*
X144508000Y-98034000D01*
X144553000Y-98050000D01*
X144596000Y-98068000D01*
X144639000Y-98088000D01*
X144680000Y-98111000D01*
X144720000Y-98135000D01*
X144759000Y-98162000D01*
X144796000Y-98191000D01*
X144832000Y-98221000D01*
X144866000Y-98254000D01*
X144899000Y-98288000D01*
X144929000Y-98324000D01*
X144958000Y-98361000D01*
X144985000Y-98400000D01*
X145009000Y-98440000D01*
X145032000Y-98481000D01*
X145052000Y-98524000D01*
X145070000Y-98567000D01*
X145086000Y-98612000D01*
X145099000Y-98657000D01*
X145110000Y-98703000D01*
X145119000Y-98749000D01*
X145125000Y-98796000D01*
X145129000Y-98843000D01*
X145130000Y-98890000D01*
X145130000Y-101390000D01*
X143330000Y-101390000D01*
X143330000Y-98890000D01*
X143331000Y-98843000D01*
X143335000Y-98796000D01*
X143341000Y-98749000D01*
X143350000Y-98703000D01*
X143361000Y-98657000D01*
X143374000Y-98612000D01*
X143390000Y-98567000D01*
X143408000Y-98524000D01*
X143428000Y-98481000D01*
X143451000Y-98440000D01*
X143475000Y-98400000D01*
X143502000Y-98361000D01*
X143531000Y-98324000D01*
X143561000Y-98288000D01*
X143594000Y-98254000D01*
X143628000Y-98221000D01*
X143664000Y-98191000D01*
X143701000Y-98162000D01*
X143740000Y-98135000D01*
X143780000Y-98111000D01*
X143821000Y-98088000D01*
X143864000Y-98068000D01*
X143907000Y-98050000D01*
X143952000Y-98034000D01*
X143997000Y-98021000D01*
X144043000Y-98010000D01*
X144089000Y-98001000D01*
X144136000Y-97995000D01*
X144183000Y-97991000D01*
X144230000Y-97990000D01*
X144277000Y-97991000D01*
G37*
X147670000Y-81110000D02*
X147669000Y-81157000D01*
X147665000Y-81204000D01*
X147659000Y-81251000D01*
X147650000Y-81297000D01*
X147639000Y-81343000D01*
X147626000Y-81388000D01*
X147610000Y-81433000D01*
X147592000Y-81476000D01*
X147572000Y-81519000D01*
X147549000Y-81560000D01*
X147525000Y-81600000D01*
X147498000Y-81639000D01*
X147469000Y-81676000D01*
X147439000Y-81712000D01*
X147406000Y-81746000D01*
X147372000Y-81779000D01*
X147336000Y-81809000D01*
X147299000Y-81838000D01*
X147260000Y-81865000D01*
X147220000Y-81889000D01*
X147179000Y-81912000D01*
X147136000Y-81932000D01*
X147093000Y-81950000D01*
X147048000Y-81966000D01*
X147003000Y-81979000D01*
X146957000Y-81990000D01*
X146911000Y-81999000D01*
X146864000Y-82005000D01*
X146817000Y-82009000D01*
X146770000Y-82010000D01*
X146723000Y-82009000D01*
X146676000Y-82005000D01*
X146629000Y-81999000D01*
X146583000Y-81990000D01*
X146537000Y-81979000D01*
X146492000Y-81966000D01*
X146447000Y-81950000D01*
X146404000Y-81932000D01*
X146361000Y-81912000D01*
X146320000Y-81889000D01*
X146280000Y-81865000D01*
X146241000Y-81838000D01*
X146204000Y-81809000D01*
X146168000Y-81779000D01*
X146134000Y-81746000D01*
X146101000Y-81712000D01*
X146071000Y-81676000D01*
X146042000Y-81639000D01*
X146015000Y-81600000D01*
X145991000Y-81560000D01*
X145968000Y-81519000D01*
X145948000Y-81476000D01*
X145930000Y-81433000D01*
X145914000Y-81388000D01*
X145901000Y-81343000D01*
X145890000Y-81297000D01*
X145881000Y-81251000D01*
X145875000Y-81204000D01*
X145871000Y-81157000D01*
X145870000Y-81110000D01*
X145870000Y-78610000D01*
X147670000Y-78610000D01*
X147670000Y-81110000D01*
G36*
X147670000Y-81110000D02*
G01*
X147669000Y-81157000D01*
X147665000Y-81204000D01*
X147659000Y-81251000D01*
X147650000Y-81297000D01*
X147639000Y-81343000D01*
X147626000Y-81388000D01*
X147610000Y-81433000D01*
X147592000Y-81476000D01*
X147572000Y-81519000D01*
X147549000Y-81560000D01*
X147525000Y-81600000D01*
X147498000Y-81639000D01*
X147469000Y-81676000D01*
X147439000Y-81712000D01*
X147406000Y-81746000D01*
X147372000Y-81779000D01*
X147336000Y-81809000D01*
X147299000Y-81838000D01*
X147260000Y-81865000D01*
X147220000Y-81889000D01*
X147179000Y-81912000D01*
X147136000Y-81932000D01*
X147093000Y-81950000D01*
X147048000Y-81966000D01*
X147003000Y-81979000D01*
X146957000Y-81990000D01*
X146911000Y-81999000D01*
X146864000Y-82005000D01*
X146817000Y-82009000D01*
X146770000Y-82010000D01*
X146723000Y-82009000D01*
X146676000Y-82005000D01*
X146629000Y-81999000D01*
X146583000Y-81990000D01*
X146537000Y-81979000D01*
X146492000Y-81966000D01*
X146447000Y-81950000D01*
X146404000Y-81932000D01*
X146361000Y-81912000D01*
X146320000Y-81889000D01*
X146280000Y-81865000D01*
X146241000Y-81838000D01*
X146204000Y-81809000D01*
X146168000Y-81779000D01*
X146134000Y-81746000D01*
X146101000Y-81712000D01*
X146071000Y-81676000D01*
X146042000Y-81639000D01*
X146015000Y-81600000D01*
X145991000Y-81560000D01*
X145968000Y-81519000D01*
X145948000Y-81476000D01*
X145930000Y-81433000D01*
X145914000Y-81388000D01*
X145901000Y-81343000D01*
X145890000Y-81297000D01*
X145881000Y-81251000D01*
X145875000Y-81204000D01*
X145871000Y-81157000D01*
X145870000Y-81110000D01*
X145870000Y-78610000D01*
X147670000Y-78610000D01*
X147670000Y-81110000D01*
G37*
X146817000Y-97991000D02*
X146864000Y-97995000D01*
X146911000Y-98001000D01*
X146957000Y-98010000D01*
X147003000Y-98021000D01*
X147048000Y-98034000D01*
X147093000Y-98050000D01*
X147136000Y-98068000D01*
X147179000Y-98088000D01*
X147220000Y-98111000D01*
X147260000Y-98135000D01*
X147299000Y-98162000D01*
X147336000Y-98191000D01*
X147372000Y-98221000D01*
X147406000Y-98254000D01*
X147439000Y-98288000D01*
X147469000Y-98324000D01*
X147498000Y-98361000D01*
X147525000Y-98400000D01*
X147549000Y-98440000D01*
X147572000Y-98481000D01*
X147592000Y-98524000D01*
X147610000Y-98567000D01*
X147626000Y-98612000D01*
X147639000Y-98657000D01*
X147650000Y-98703000D01*
X147659000Y-98749000D01*
X147665000Y-98796000D01*
X147669000Y-98843000D01*
X147670000Y-98890000D01*
X147670000Y-101390000D01*
X145870000Y-101390000D01*
X145870000Y-98890000D01*
X145871000Y-98843000D01*
X145875000Y-98796000D01*
X145881000Y-98749000D01*
X145890000Y-98703000D01*
X145901000Y-98657000D01*
X145914000Y-98612000D01*
X145930000Y-98567000D01*
X145948000Y-98524000D01*
X145968000Y-98481000D01*
X145991000Y-98440000D01*
X146015000Y-98400000D01*
X146042000Y-98361000D01*
X146071000Y-98324000D01*
X146101000Y-98288000D01*
X146134000Y-98254000D01*
X146168000Y-98221000D01*
X146204000Y-98191000D01*
X146241000Y-98162000D01*
X146280000Y-98135000D01*
X146320000Y-98111000D01*
X146361000Y-98088000D01*
X146404000Y-98068000D01*
X146447000Y-98050000D01*
X146492000Y-98034000D01*
X146537000Y-98021000D01*
X146583000Y-98010000D01*
X146629000Y-98001000D01*
X146676000Y-97995000D01*
X146723000Y-97991000D01*
X146770000Y-97990000D01*
X146817000Y-97991000D01*
G36*
X146817000Y-97991000D02*
G01*
X146864000Y-97995000D01*
X146911000Y-98001000D01*
X146957000Y-98010000D01*
X147003000Y-98021000D01*
X147048000Y-98034000D01*
X147093000Y-98050000D01*
X147136000Y-98068000D01*
X147179000Y-98088000D01*
X147220000Y-98111000D01*
X147260000Y-98135000D01*
X147299000Y-98162000D01*
X147336000Y-98191000D01*
X147372000Y-98221000D01*
X147406000Y-98254000D01*
X147439000Y-98288000D01*
X147469000Y-98324000D01*
X147498000Y-98361000D01*
X147525000Y-98400000D01*
X147549000Y-98440000D01*
X147572000Y-98481000D01*
X147592000Y-98524000D01*
X147610000Y-98567000D01*
X147626000Y-98612000D01*
X147639000Y-98657000D01*
X147650000Y-98703000D01*
X147659000Y-98749000D01*
X147665000Y-98796000D01*
X147669000Y-98843000D01*
X147670000Y-98890000D01*
X147670000Y-101390000D01*
X145870000Y-101390000D01*
X145870000Y-98890000D01*
X145871000Y-98843000D01*
X145875000Y-98796000D01*
X145881000Y-98749000D01*
X145890000Y-98703000D01*
X145901000Y-98657000D01*
X145914000Y-98612000D01*
X145930000Y-98567000D01*
X145948000Y-98524000D01*
X145968000Y-98481000D01*
X145991000Y-98440000D01*
X146015000Y-98400000D01*
X146042000Y-98361000D01*
X146071000Y-98324000D01*
X146101000Y-98288000D01*
X146134000Y-98254000D01*
X146168000Y-98221000D01*
X146204000Y-98191000D01*
X146241000Y-98162000D01*
X146280000Y-98135000D01*
X146320000Y-98111000D01*
X146361000Y-98088000D01*
X146404000Y-98068000D01*
X146447000Y-98050000D01*
X146492000Y-98034000D01*
X146537000Y-98021000D01*
X146583000Y-98010000D01*
X146629000Y-98001000D01*
X146676000Y-97995000D01*
X146723000Y-97991000D01*
X146770000Y-97990000D01*
X146817000Y-97991000D01*
G37*
X150210000Y-81110000D02*
X150209000Y-81157000D01*
X150205000Y-81204000D01*
X150199000Y-81251000D01*
X150190000Y-81297000D01*
X150179000Y-81343000D01*
X150166000Y-81388000D01*
X150150000Y-81433000D01*
X150132000Y-81476000D01*
X150112000Y-81519000D01*
X150089000Y-81560000D01*
X150065000Y-81600000D01*
X150038000Y-81639000D01*
X150009000Y-81676000D01*
X149979000Y-81712000D01*
X149946000Y-81746000D01*
X149912000Y-81779000D01*
X149876000Y-81809000D01*
X149839000Y-81838000D01*
X149800000Y-81865000D01*
X149760000Y-81889000D01*
X149719000Y-81912000D01*
X149676000Y-81932000D01*
X149633000Y-81950000D01*
X149588000Y-81966000D01*
X149543000Y-81979000D01*
X149497000Y-81990000D01*
X149451000Y-81999000D01*
X149404000Y-82005000D01*
X149357000Y-82009000D01*
X149310000Y-82010000D01*
X149263000Y-82009000D01*
X149216000Y-82005000D01*
X149169000Y-81999000D01*
X149123000Y-81990000D01*
X149077000Y-81979000D01*
X149032000Y-81966000D01*
X148987000Y-81950000D01*
X148944000Y-81932000D01*
X148901000Y-81912000D01*
X148860000Y-81889000D01*
X148820000Y-81865000D01*
X148781000Y-81838000D01*
X148744000Y-81809000D01*
X148708000Y-81779000D01*
X148674000Y-81746000D01*
X148641000Y-81712000D01*
X148611000Y-81676000D01*
X148582000Y-81639000D01*
X148555000Y-81600000D01*
X148531000Y-81560000D01*
X148508000Y-81519000D01*
X148488000Y-81476000D01*
X148470000Y-81433000D01*
X148454000Y-81388000D01*
X148441000Y-81343000D01*
X148430000Y-81297000D01*
X148421000Y-81251000D01*
X148415000Y-81204000D01*
X148411000Y-81157000D01*
X148410000Y-81110000D01*
X148410000Y-78610000D01*
X150210000Y-78610000D01*
X150210000Y-81110000D01*
G36*
X150210000Y-81110000D02*
G01*
X150209000Y-81157000D01*
X150205000Y-81204000D01*
X150199000Y-81251000D01*
X150190000Y-81297000D01*
X150179000Y-81343000D01*
X150166000Y-81388000D01*
X150150000Y-81433000D01*
X150132000Y-81476000D01*
X150112000Y-81519000D01*
X150089000Y-81560000D01*
X150065000Y-81600000D01*
X150038000Y-81639000D01*
X150009000Y-81676000D01*
X149979000Y-81712000D01*
X149946000Y-81746000D01*
X149912000Y-81779000D01*
X149876000Y-81809000D01*
X149839000Y-81838000D01*
X149800000Y-81865000D01*
X149760000Y-81889000D01*
X149719000Y-81912000D01*
X149676000Y-81932000D01*
X149633000Y-81950000D01*
X149588000Y-81966000D01*
X149543000Y-81979000D01*
X149497000Y-81990000D01*
X149451000Y-81999000D01*
X149404000Y-82005000D01*
X149357000Y-82009000D01*
X149310000Y-82010000D01*
X149263000Y-82009000D01*
X149216000Y-82005000D01*
X149169000Y-81999000D01*
X149123000Y-81990000D01*
X149077000Y-81979000D01*
X149032000Y-81966000D01*
X148987000Y-81950000D01*
X148944000Y-81932000D01*
X148901000Y-81912000D01*
X148860000Y-81889000D01*
X148820000Y-81865000D01*
X148781000Y-81838000D01*
X148744000Y-81809000D01*
X148708000Y-81779000D01*
X148674000Y-81746000D01*
X148641000Y-81712000D01*
X148611000Y-81676000D01*
X148582000Y-81639000D01*
X148555000Y-81600000D01*
X148531000Y-81560000D01*
X148508000Y-81519000D01*
X148488000Y-81476000D01*
X148470000Y-81433000D01*
X148454000Y-81388000D01*
X148441000Y-81343000D01*
X148430000Y-81297000D01*
X148421000Y-81251000D01*
X148415000Y-81204000D01*
X148411000Y-81157000D01*
X148410000Y-81110000D01*
X148410000Y-78610000D01*
X150210000Y-78610000D01*
X150210000Y-81110000D01*
G37*
X149357000Y-97991000D02*
X149404000Y-97995000D01*
X149451000Y-98001000D01*
X149497000Y-98010000D01*
X149543000Y-98021000D01*
X149588000Y-98034000D01*
X149633000Y-98050000D01*
X149676000Y-98068000D01*
X149719000Y-98088000D01*
X149760000Y-98111000D01*
X149800000Y-98135000D01*
X149839000Y-98162000D01*
X149876000Y-98191000D01*
X149912000Y-98221000D01*
X149946000Y-98254000D01*
X149979000Y-98288000D01*
X150009000Y-98324000D01*
X150038000Y-98361000D01*
X150065000Y-98400000D01*
X150089000Y-98440000D01*
X150112000Y-98481000D01*
X150132000Y-98524000D01*
X150150000Y-98567000D01*
X150166000Y-98612000D01*
X150179000Y-98657000D01*
X150190000Y-98703000D01*
X150199000Y-98749000D01*
X150205000Y-98796000D01*
X150209000Y-98843000D01*
X150210000Y-98890000D01*
X150210000Y-101390000D01*
X148410000Y-101390000D01*
X148410000Y-98890000D01*
X148411000Y-98843000D01*
X148415000Y-98796000D01*
X148421000Y-98749000D01*
X148430000Y-98703000D01*
X148441000Y-98657000D01*
X148454000Y-98612000D01*
X148470000Y-98567000D01*
X148488000Y-98524000D01*
X148508000Y-98481000D01*
X148531000Y-98440000D01*
X148555000Y-98400000D01*
X148582000Y-98361000D01*
X148611000Y-98324000D01*
X148641000Y-98288000D01*
X148674000Y-98254000D01*
X148708000Y-98221000D01*
X148744000Y-98191000D01*
X148781000Y-98162000D01*
X148820000Y-98135000D01*
X148860000Y-98111000D01*
X148901000Y-98088000D01*
X148944000Y-98068000D01*
X148987000Y-98050000D01*
X149032000Y-98034000D01*
X149077000Y-98021000D01*
X149123000Y-98010000D01*
X149169000Y-98001000D01*
X149216000Y-97995000D01*
X149263000Y-97991000D01*
X149310000Y-97990000D01*
X149357000Y-97991000D01*
G36*
X149357000Y-97991000D02*
G01*
X149404000Y-97995000D01*
X149451000Y-98001000D01*
X149497000Y-98010000D01*
X149543000Y-98021000D01*
X149588000Y-98034000D01*
X149633000Y-98050000D01*
X149676000Y-98068000D01*
X149719000Y-98088000D01*
X149760000Y-98111000D01*
X149800000Y-98135000D01*
X149839000Y-98162000D01*
X149876000Y-98191000D01*
X149912000Y-98221000D01*
X149946000Y-98254000D01*
X149979000Y-98288000D01*
X150009000Y-98324000D01*
X150038000Y-98361000D01*
X150065000Y-98400000D01*
X150089000Y-98440000D01*
X150112000Y-98481000D01*
X150132000Y-98524000D01*
X150150000Y-98567000D01*
X150166000Y-98612000D01*
X150179000Y-98657000D01*
X150190000Y-98703000D01*
X150199000Y-98749000D01*
X150205000Y-98796000D01*
X150209000Y-98843000D01*
X150210000Y-98890000D01*
X150210000Y-101390000D01*
X148410000Y-101390000D01*
X148410000Y-98890000D01*
X148411000Y-98843000D01*
X148415000Y-98796000D01*
X148421000Y-98749000D01*
X148430000Y-98703000D01*
X148441000Y-98657000D01*
X148454000Y-98612000D01*
X148470000Y-98567000D01*
X148488000Y-98524000D01*
X148508000Y-98481000D01*
X148531000Y-98440000D01*
X148555000Y-98400000D01*
X148582000Y-98361000D01*
X148611000Y-98324000D01*
X148641000Y-98288000D01*
X148674000Y-98254000D01*
X148708000Y-98221000D01*
X148744000Y-98191000D01*
X148781000Y-98162000D01*
X148820000Y-98135000D01*
X148860000Y-98111000D01*
X148901000Y-98088000D01*
X148944000Y-98068000D01*
X148987000Y-98050000D01*
X149032000Y-98034000D01*
X149077000Y-98021000D01*
X149123000Y-98010000D01*
X149169000Y-98001000D01*
X149216000Y-97995000D01*
X149263000Y-97991000D01*
X149310000Y-97990000D01*
X149357000Y-97991000D01*
G37*
X155290000Y-81110000D02*
X155289000Y-81157000D01*
X155285000Y-81204000D01*
X155279000Y-81251000D01*
X155270000Y-81297000D01*
X155259000Y-81343000D01*
X155246000Y-81388000D01*
X155230000Y-81433000D01*
X155212000Y-81476000D01*
X155192000Y-81519000D01*
X155169000Y-81560000D01*
X155145000Y-81600000D01*
X155118000Y-81639000D01*
X155089000Y-81676000D01*
X155059000Y-81712000D01*
X155026000Y-81746000D01*
X154992000Y-81779000D01*
X154956000Y-81809000D01*
X154919000Y-81838000D01*
X154880000Y-81865000D01*
X154840000Y-81889000D01*
X154799000Y-81912000D01*
X154756000Y-81932000D01*
X154713000Y-81950000D01*
X154668000Y-81966000D01*
X154623000Y-81979000D01*
X154577000Y-81990000D01*
X154531000Y-81999000D01*
X154484000Y-82005000D01*
X154437000Y-82009000D01*
X154390000Y-82010000D01*
X154343000Y-82009000D01*
X154296000Y-82005000D01*
X154249000Y-81999000D01*
X154203000Y-81990000D01*
X154157000Y-81979000D01*
X154112000Y-81966000D01*
X154067000Y-81950000D01*
X154024000Y-81932000D01*
X153981000Y-81912000D01*
X153940000Y-81889000D01*
X153900000Y-81865000D01*
X153861000Y-81838000D01*
X153824000Y-81809000D01*
X153788000Y-81779000D01*
X153754000Y-81746000D01*
X153721000Y-81712000D01*
X153691000Y-81676000D01*
X153662000Y-81639000D01*
X153635000Y-81600000D01*
X153611000Y-81560000D01*
X153588000Y-81519000D01*
X153568000Y-81476000D01*
X153550000Y-81433000D01*
X153534000Y-81388000D01*
X153521000Y-81343000D01*
X153510000Y-81297000D01*
X153501000Y-81251000D01*
X153495000Y-81204000D01*
X153491000Y-81157000D01*
X153490000Y-81110000D01*
X153490000Y-78610000D01*
X155290000Y-78610000D01*
X155290000Y-81110000D01*
G36*
X155290000Y-81110000D02*
G01*
X155289000Y-81157000D01*
X155285000Y-81204000D01*
X155279000Y-81251000D01*
X155270000Y-81297000D01*
X155259000Y-81343000D01*
X155246000Y-81388000D01*
X155230000Y-81433000D01*
X155212000Y-81476000D01*
X155192000Y-81519000D01*
X155169000Y-81560000D01*
X155145000Y-81600000D01*
X155118000Y-81639000D01*
X155089000Y-81676000D01*
X155059000Y-81712000D01*
X155026000Y-81746000D01*
X154992000Y-81779000D01*
X154956000Y-81809000D01*
X154919000Y-81838000D01*
X154880000Y-81865000D01*
X154840000Y-81889000D01*
X154799000Y-81912000D01*
X154756000Y-81932000D01*
X154713000Y-81950000D01*
X154668000Y-81966000D01*
X154623000Y-81979000D01*
X154577000Y-81990000D01*
X154531000Y-81999000D01*
X154484000Y-82005000D01*
X154437000Y-82009000D01*
X154390000Y-82010000D01*
X154343000Y-82009000D01*
X154296000Y-82005000D01*
X154249000Y-81999000D01*
X154203000Y-81990000D01*
X154157000Y-81979000D01*
X154112000Y-81966000D01*
X154067000Y-81950000D01*
X154024000Y-81932000D01*
X153981000Y-81912000D01*
X153940000Y-81889000D01*
X153900000Y-81865000D01*
X153861000Y-81838000D01*
X153824000Y-81809000D01*
X153788000Y-81779000D01*
X153754000Y-81746000D01*
X153721000Y-81712000D01*
X153691000Y-81676000D01*
X153662000Y-81639000D01*
X153635000Y-81600000D01*
X153611000Y-81560000D01*
X153588000Y-81519000D01*
X153568000Y-81476000D01*
X153550000Y-81433000D01*
X153534000Y-81388000D01*
X153521000Y-81343000D01*
X153510000Y-81297000D01*
X153501000Y-81251000D01*
X153495000Y-81204000D01*
X153491000Y-81157000D01*
X153490000Y-81110000D01*
X153490000Y-78610000D01*
X155290000Y-78610000D01*
X155290000Y-81110000D01*
G37*
X154437000Y-97991000D02*
X154484000Y-97995000D01*
X154531000Y-98001000D01*
X154577000Y-98010000D01*
X154623000Y-98021000D01*
X154668000Y-98034000D01*
X154713000Y-98050000D01*
X154756000Y-98068000D01*
X154799000Y-98088000D01*
X154840000Y-98111000D01*
X154880000Y-98135000D01*
X154919000Y-98162000D01*
X154956000Y-98191000D01*
X154992000Y-98221000D01*
X155026000Y-98254000D01*
X155059000Y-98288000D01*
X155089000Y-98324000D01*
X155118000Y-98361000D01*
X155145000Y-98400000D01*
X155169000Y-98440000D01*
X155192000Y-98481000D01*
X155212000Y-98524000D01*
X155230000Y-98567000D01*
X155246000Y-98612000D01*
X155259000Y-98657000D01*
X155270000Y-98703000D01*
X155279000Y-98749000D01*
X155285000Y-98796000D01*
X155289000Y-98843000D01*
X155290000Y-98890000D01*
X155290000Y-101390000D01*
X153490000Y-101390000D01*
X153490000Y-98890000D01*
X153491000Y-98843000D01*
X153495000Y-98796000D01*
X153501000Y-98749000D01*
X153510000Y-98703000D01*
X153521000Y-98657000D01*
X153534000Y-98612000D01*
X153550000Y-98567000D01*
X153568000Y-98524000D01*
X153588000Y-98481000D01*
X153611000Y-98440000D01*
X153635000Y-98400000D01*
X153662000Y-98361000D01*
X153691000Y-98324000D01*
X153721000Y-98288000D01*
X153754000Y-98254000D01*
X153788000Y-98221000D01*
X153824000Y-98191000D01*
X153861000Y-98162000D01*
X153900000Y-98135000D01*
X153940000Y-98111000D01*
X153981000Y-98088000D01*
X154024000Y-98068000D01*
X154067000Y-98050000D01*
X154112000Y-98034000D01*
X154157000Y-98021000D01*
X154203000Y-98010000D01*
X154249000Y-98001000D01*
X154296000Y-97995000D01*
X154343000Y-97991000D01*
X154390000Y-97990000D01*
X154437000Y-97991000D01*
G36*
X154437000Y-97991000D02*
G01*
X154484000Y-97995000D01*
X154531000Y-98001000D01*
X154577000Y-98010000D01*
X154623000Y-98021000D01*
X154668000Y-98034000D01*
X154713000Y-98050000D01*
X154756000Y-98068000D01*
X154799000Y-98088000D01*
X154840000Y-98111000D01*
X154880000Y-98135000D01*
X154919000Y-98162000D01*
X154956000Y-98191000D01*
X154992000Y-98221000D01*
X155026000Y-98254000D01*
X155059000Y-98288000D01*
X155089000Y-98324000D01*
X155118000Y-98361000D01*
X155145000Y-98400000D01*
X155169000Y-98440000D01*
X155192000Y-98481000D01*
X155212000Y-98524000D01*
X155230000Y-98567000D01*
X155246000Y-98612000D01*
X155259000Y-98657000D01*
X155270000Y-98703000D01*
X155279000Y-98749000D01*
X155285000Y-98796000D01*
X155289000Y-98843000D01*
X155290000Y-98890000D01*
X155290000Y-101390000D01*
X153490000Y-101390000D01*
X153490000Y-98890000D01*
X153491000Y-98843000D01*
X153495000Y-98796000D01*
X153501000Y-98749000D01*
X153510000Y-98703000D01*
X153521000Y-98657000D01*
X153534000Y-98612000D01*
X153550000Y-98567000D01*
X153568000Y-98524000D01*
X153588000Y-98481000D01*
X153611000Y-98440000D01*
X153635000Y-98400000D01*
X153662000Y-98361000D01*
X153691000Y-98324000D01*
X153721000Y-98288000D01*
X153754000Y-98254000D01*
X153788000Y-98221000D01*
X153824000Y-98191000D01*
X153861000Y-98162000D01*
X153900000Y-98135000D01*
X153940000Y-98111000D01*
X153981000Y-98088000D01*
X154024000Y-98068000D01*
X154067000Y-98050000D01*
X154112000Y-98034000D01*
X154157000Y-98021000D01*
X154203000Y-98010000D01*
X154249000Y-98001000D01*
X154296000Y-97995000D01*
X154343000Y-97991000D01*
X154390000Y-97990000D01*
X154437000Y-97991000D01*
G37*
X157830000Y-81110000D02*
X157829000Y-81157000D01*
X157825000Y-81204000D01*
X157819000Y-81251000D01*
X157810000Y-81297000D01*
X157799000Y-81343000D01*
X157786000Y-81388000D01*
X157770000Y-81433000D01*
X157752000Y-81476000D01*
X157732000Y-81519000D01*
X157709000Y-81560000D01*
X157685000Y-81600000D01*
X157658000Y-81639000D01*
X157629000Y-81676000D01*
X157599000Y-81712000D01*
X157566000Y-81746000D01*
X157532000Y-81779000D01*
X157496000Y-81809000D01*
X157459000Y-81838000D01*
X157420000Y-81865000D01*
X157380000Y-81889000D01*
X157339000Y-81912000D01*
X157296000Y-81932000D01*
X157253000Y-81950000D01*
X157208000Y-81966000D01*
X157163000Y-81979000D01*
X157117000Y-81990000D01*
X157071000Y-81999000D01*
X157024000Y-82005000D01*
X156977000Y-82009000D01*
X156930000Y-82010000D01*
X156883000Y-82009000D01*
X156836000Y-82005000D01*
X156789000Y-81999000D01*
X156743000Y-81990000D01*
X156697000Y-81979000D01*
X156652000Y-81966000D01*
X156607000Y-81950000D01*
X156564000Y-81932000D01*
X156521000Y-81912000D01*
X156480000Y-81889000D01*
X156440000Y-81865000D01*
X156401000Y-81838000D01*
X156364000Y-81809000D01*
X156328000Y-81779000D01*
X156294000Y-81746000D01*
X156261000Y-81712000D01*
X156231000Y-81676000D01*
X156202000Y-81639000D01*
X156175000Y-81600000D01*
X156151000Y-81560000D01*
X156128000Y-81519000D01*
X156108000Y-81476000D01*
X156090000Y-81433000D01*
X156074000Y-81388000D01*
X156061000Y-81343000D01*
X156050000Y-81297000D01*
X156041000Y-81251000D01*
X156035000Y-81204000D01*
X156031000Y-81157000D01*
X156030000Y-81110000D01*
X156030000Y-78610000D01*
X157830000Y-78610000D01*
X157830000Y-81110000D01*
G36*
X157830000Y-81110000D02*
G01*
X157829000Y-81157000D01*
X157825000Y-81204000D01*
X157819000Y-81251000D01*
X157810000Y-81297000D01*
X157799000Y-81343000D01*
X157786000Y-81388000D01*
X157770000Y-81433000D01*
X157752000Y-81476000D01*
X157732000Y-81519000D01*
X157709000Y-81560000D01*
X157685000Y-81600000D01*
X157658000Y-81639000D01*
X157629000Y-81676000D01*
X157599000Y-81712000D01*
X157566000Y-81746000D01*
X157532000Y-81779000D01*
X157496000Y-81809000D01*
X157459000Y-81838000D01*
X157420000Y-81865000D01*
X157380000Y-81889000D01*
X157339000Y-81912000D01*
X157296000Y-81932000D01*
X157253000Y-81950000D01*
X157208000Y-81966000D01*
X157163000Y-81979000D01*
X157117000Y-81990000D01*
X157071000Y-81999000D01*
X157024000Y-82005000D01*
X156977000Y-82009000D01*
X156930000Y-82010000D01*
X156883000Y-82009000D01*
X156836000Y-82005000D01*
X156789000Y-81999000D01*
X156743000Y-81990000D01*
X156697000Y-81979000D01*
X156652000Y-81966000D01*
X156607000Y-81950000D01*
X156564000Y-81932000D01*
X156521000Y-81912000D01*
X156480000Y-81889000D01*
X156440000Y-81865000D01*
X156401000Y-81838000D01*
X156364000Y-81809000D01*
X156328000Y-81779000D01*
X156294000Y-81746000D01*
X156261000Y-81712000D01*
X156231000Y-81676000D01*
X156202000Y-81639000D01*
X156175000Y-81600000D01*
X156151000Y-81560000D01*
X156128000Y-81519000D01*
X156108000Y-81476000D01*
X156090000Y-81433000D01*
X156074000Y-81388000D01*
X156061000Y-81343000D01*
X156050000Y-81297000D01*
X156041000Y-81251000D01*
X156035000Y-81204000D01*
X156031000Y-81157000D01*
X156030000Y-81110000D01*
X156030000Y-78610000D01*
X157830000Y-78610000D01*
X157830000Y-81110000D01*
G37*
X156977000Y-97991000D02*
X157024000Y-97995000D01*
X157071000Y-98001000D01*
X157117000Y-98010000D01*
X157163000Y-98021000D01*
X157208000Y-98034000D01*
X157253000Y-98050000D01*
X157296000Y-98068000D01*
X157339000Y-98088000D01*
X157380000Y-98111000D01*
X157420000Y-98135000D01*
X157459000Y-98162000D01*
X157496000Y-98191000D01*
X157532000Y-98221000D01*
X157566000Y-98254000D01*
X157599000Y-98288000D01*
X157629000Y-98324000D01*
X157658000Y-98361000D01*
X157685000Y-98400000D01*
X157709000Y-98440000D01*
X157732000Y-98481000D01*
X157752000Y-98524000D01*
X157770000Y-98567000D01*
X157786000Y-98612000D01*
X157799000Y-98657000D01*
X157810000Y-98703000D01*
X157819000Y-98749000D01*
X157825000Y-98796000D01*
X157829000Y-98843000D01*
X157830000Y-98890000D01*
X157830000Y-101390000D01*
X156030000Y-101390000D01*
X156030000Y-98890000D01*
X156031000Y-98843000D01*
X156035000Y-98796000D01*
X156041000Y-98749000D01*
X156050000Y-98703000D01*
X156061000Y-98657000D01*
X156074000Y-98612000D01*
X156090000Y-98567000D01*
X156108000Y-98524000D01*
X156128000Y-98481000D01*
X156151000Y-98440000D01*
X156175000Y-98400000D01*
X156202000Y-98361000D01*
X156231000Y-98324000D01*
X156261000Y-98288000D01*
X156294000Y-98254000D01*
X156328000Y-98221000D01*
X156364000Y-98191000D01*
X156401000Y-98162000D01*
X156440000Y-98135000D01*
X156480000Y-98111000D01*
X156521000Y-98088000D01*
X156564000Y-98068000D01*
X156607000Y-98050000D01*
X156652000Y-98034000D01*
X156697000Y-98021000D01*
X156743000Y-98010000D01*
X156789000Y-98001000D01*
X156836000Y-97995000D01*
X156883000Y-97991000D01*
X156930000Y-97990000D01*
X156977000Y-97991000D01*
G36*
X156977000Y-97991000D02*
G01*
X157024000Y-97995000D01*
X157071000Y-98001000D01*
X157117000Y-98010000D01*
X157163000Y-98021000D01*
X157208000Y-98034000D01*
X157253000Y-98050000D01*
X157296000Y-98068000D01*
X157339000Y-98088000D01*
X157380000Y-98111000D01*
X157420000Y-98135000D01*
X157459000Y-98162000D01*
X157496000Y-98191000D01*
X157532000Y-98221000D01*
X157566000Y-98254000D01*
X157599000Y-98288000D01*
X157629000Y-98324000D01*
X157658000Y-98361000D01*
X157685000Y-98400000D01*
X157709000Y-98440000D01*
X157732000Y-98481000D01*
X157752000Y-98524000D01*
X157770000Y-98567000D01*
X157786000Y-98612000D01*
X157799000Y-98657000D01*
X157810000Y-98703000D01*
X157819000Y-98749000D01*
X157825000Y-98796000D01*
X157829000Y-98843000D01*
X157830000Y-98890000D01*
X157830000Y-101390000D01*
X156030000Y-101390000D01*
X156030000Y-98890000D01*
X156031000Y-98843000D01*
X156035000Y-98796000D01*
X156041000Y-98749000D01*
X156050000Y-98703000D01*
X156061000Y-98657000D01*
X156074000Y-98612000D01*
X156090000Y-98567000D01*
X156108000Y-98524000D01*
X156128000Y-98481000D01*
X156151000Y-98440000D01*
X156175000Y-98400000D01*
X156202000Y-98361000D01*
X156231000Y-98324000D01*
X156261000Y-98288000D01*
X156294000Y-98254000D01*
X156328000Y-98221000D01*
X156364000Y-98191000D01*
X156401000Y-98162000D01*
X156440000Y-98135000D01*
X156480000Y-98111000D01*
X156521000Y-98088000D01*
X156564000Y-98068000D01*
X156607000Y-98050000D01*
X156652000Y-98034000D01*
X156697000Y-98021000D01*
X156743000Y-98010000D01*
X156789000Y-98001000D01*
X156836000Y-97995000D01*
X156883000Y-97991000D01*
X156930000Y-97990000D01*
X156977000Y-97991000D01*
G37*
X160370000Y-81110000D02*
X160369000Y-81157000D01*
X160365000Y-81204000D01*
X160359000Y-81251000D01*
X160350000Y-81297000D01*
X160339000Y-81343000D01*
X160326000Y-81388000D01*
X160310000Y-81433000D01*
X160292000Y-81476000D01*
X160272000Y-81519000D01*
X160249000Y-81560000D01*
X160225000Y-81600000D01*
X160198000Y-81639000D01*
X160169000Y-81676000D01*
X160139000Y-81712000D01*
X160106000Y-81746000D01*
X160072000Y-81779000D01*
X160036000Y-81809000D01*
X159999000Y-81838000D01*
X159960000Y-81865000D01*
X159920000Y-81889000D01*
X159879000Y-81912000D01*
X159836000Y-81932000D01*
X159793000Y-81950000D01*
X159748000Y-81966000D01*
X159703000Y-81979000D01*
X159657000Y-81990000D01*
X159611000Y-81999000D01*
X159564000Y-82005000D01*
X159517000Y-82009000D01*
X159470000Y-82010000D01*
X159423000Y-82009000D01*
X159376000Y-82005000D01*
X159329000Y-81999000D01*
X159283000Y-81990000D01*
X159237000Y-81979000D01*
X159192000Y-81966000D01*
X159147000Y-81950000D01*
X159104000Y-81932000D01*
X159061000Y-81912000D01*
X159020000Y-81889000D01*
X158980000Y-81865000D01*
X158941000Y-81838000D01*
X158904000Y-81809000D01*
X158868000Y-81779000D01*
X158834000Y-81746000D01*
X158801000Y-81712000D01*
X158771000Y-81676000D01*
X158742000Y-81639000D01*
X158715000Y-81600000D01*
X158691000Y-81560000D01*
X158668000Y-81519000D01*
X158648000Y-81476000D01*
X158630000Y-81433000D01*
X158614000Y-81388000D01*
X158601000Y-81343000D01*
X158590000Y-81297000D01*
X158581000Y-81251000D01*
X158575000Y-81204000D01*
X158571000Y-81157000D01*
X158570000Y-81110000D01*
X158570000Y-78610000D01*
X160370000Y-78610000D01*
X160370000Y-81110000D01*
G36*
X160370000Y-81110000D02*
G01*
X160369000Y-81157000D01*
X160365000Y-81204000D01*
X160359000Y-81251000D01*
X160350000Y-81297000D01*
X160339000Y-81343000D01*
X160326000Y-81388000D01*
X160310000Y-81433000D01*
X160292000Y-81476000D01*
X160272000Y-81519000D01*
X160249000Y-81560000D01*
X160225000Y-81600000D01*
X160198000Y-81639000D01*
X160169000Y-81676000D01*
X160139000Y-81712000D01*
X160106000Y-81746000D01*
X160072000Y-81779000D01*
X160036000Y-81809000D01*
X159999000Y-81838000D01*
X159960000Y-81865000D01*
X159920000Y-81889000D01*
X159879000Y-81912000D01*
X159836000Y-81932000D01*
X159793000Y-81950000D01*
X159748000Y-81966000D01*
X159703000Y-81979000D01*
X159657000Y-81990000D01*
X159611000Y-81999000D01*
X159564000Y-82005000D01*
X159517000Y-82009000D01*
X159470000Y-82010000D01*
X159423000Y-82009000D01*
X159376000Y-82005000D01*
X159329000Y-81999000D01*
X159283000Y-81990000D01*
X159237000Y-81979000D01*
X159192000Y-81966000D01*
X159147000Y-81950000D01*
X159104000Y-81932000D01*
X159061000Y-81912000D01*
X159020000Y-81889000D01*
X158980000Y-81865000D01*
X158941000Y-81838000D01*
X158904000Y-81809000D01*
X158868000Y-81779000D01*
X158834000Y-81746000D01*
X158801000Y-81712000D01*
X158771000Y-81676000D01*
X158742000Y-81639000D01*
X158715000Y-81600000D01*
X158691000Y-81560000D01*
X158668000Y-81519000D01*
X158648000Y-81476000D01*
X158630000Y-81433000D01*
X158614000Y-81388000D01*
X158601000Y-81343000D01*
X158590000Y-81297000D01*
X158581000Y-81251000D01*
X158575000Y-81204000D01*
X158571000Y-81157000D01*
X158570000Y-81110000D01*
X158570000Y-78610000D01*
X160370000Y-78610000D01*
X160370000Y-81110000D01*
G37*
X159517000Y-97991000D02*
X159564000Y-97995000D01*
X159611000Y-98001000D01*
X159657000Y-98010000D01*
X159703000Y-98021000D01*
X159748000Y-98034000D01*
X159793000Y-98050000D01*
X159836000Y-98068000D01*
X159879000Y-98088000D01*
X159920000Y-98111000D01*
X159960000Y-98135000D01*
X159999000Y-98162000D01*
X160036000Y-98191000D01*
X160072000Y-98221000D01*
X160106000Y-98254000D01*
X160139000Y-98288000D01*
X160169000Y-98324000D01*
X160198000Y-98361000D01*
X160225000Y-98400000D01*
X160249000Y-98440000D01*
X160272000Y-98481000D01*
X160292000Y-98524000D01*
X160310000Y-98567000D01*
X160326000Y-98612000D01*
X160339000Y-98657000D01*
X160350000Y-98703000D01*
X160359000Y-98749000D01*
X160365000Y-98796000D01*
X160369000Y-98843000D01*
X160370000Y-98890000D01*
X160370000Y-101390000D01*
X158570000Y-101390000D01*
X158570000Y-98890000D01*
X158571000Y-98843000D01*
X158575000Y-98796000D01*
X158581000Y-98749000D01*
X158590000Y-98703000D01*
X158601000Y-98657000D01*
X158614000Y-98612000D01*
X158630000Y-98567000D01*
X158648000Y-98524000D01*
X158668000Y-98481000D01*
X158691000Y-98440000D01*
X158715000Y-98400000D01*
X158742000Y-98361000D01*
X158771000Y-98324000D01*
X158801000Y-98288000D01*
X158834000Y-98254000D01*
X158868000Y-98221000D01*
X158904000Y-98191000D01*
X158941000Y-98162000D01*
X158980000Y-98135000D01*
X159020000Y-98111000D01*
X159061000Y-98088000D01*
X159104000Y-98068000D01*
X159147000Y-98050000D01*
X159192000Y-98034000D01*
X159237000Y-98021000D01*
X159283000Y-98010000D01*
X159329000Y-98001000D01*
X159376000Y-97995000D01*
X159423000Y-97991000D01*
X159470000Y-97990000D01*
X159517000Y-97991000D01*
G36*
X159517000Y-97991000D02*
G01*
X159564000Y-97995000D01*
X159611000Y-98001000D01*
X159657000Y-98010000D01*
X159703000Y-98021000D01*
X159748000Y-98034000D01*
X159793000Y-98050000D01*
X159836000Y-98068000D01*
X159879000Y-98088000D01*
X159920000Y-98111000D01*
X159960000Y-98135000D01*
X159999000Y-98162000D01*
X160036000Y-98191000D01*
X160072000Y-98221000D01*
X160106000Y-98254000D01*
X160139000Y-98288000D01*
X160169000Y-98324000D01*
X160198000Y-98361000D01*
X160225000Y-98400000D01*
X160249000Y-98440000D01*
X160272000Y-98481000D01*
X160292000Y-98524000D01*
X160310000Y-98567000D01*
X160326000Y-98612000D01*
X160339000Y-98657000D01*
X160350000Y-98703000D01*
X160359000Y-98749000D01*
X160365000Y-98796000D01*
X160369000Y-98843000D01*
X160370000Y-98890000D01*
X160370000Y-101390000D01*
X158570000Y-101390000D01*
X158570000Y-98890000D01*
X158571000Y-98843000D01*
X158575000Y-98796000D01*
X158581000Y-98749000D01*
X158590000Y-98703000D01*
X158601000Y-98657000D01*
X158614000Y-98612000D01*
X158630000Y-98567000D01*
X158648000Y-98524000D01*
X158668000Y-98481000D01*
X158691000Y-98440000D01*
X158715000Y-98400000D01*
X158742000Y-98361000D01*
X158771000Y-98324000D01*
X158801000Y-98288000D01*
X158834000Y-98254000D01*
X158868000Y-98221000D01*
X158904000Y-98191000D01*
X158941000Y-98162000D01*
X158980000Y-98135000D01*
X159020000Y-98111000D01*
X159061000Y-98088000D01*
X159104000Y-98068000D01*
X159147000Y-98050000D01*
X159192000Y-98034000D01*
X159237000Y-98021000D01*
X159283000Y-98010000D01*
X159329000Y-98001000D01*
X159376000Y-97995000D01*
X159423000Y-97991000D01*
X159470000Y-97990000D01*
X159517000Y-97991000D01*
G37*
X162910000Y-81110000D02*
X162909000Y-81157000D01*
X162905000Y-81204000D01*
X162899000Y-81251000D01*
X162890000Y-81297000D01*
X162879000Y-81343000D01*
X162866000Y-81388000D01*
X162850000Y-81433000D01*
X162832000Y-81476000D01*
X162812000Y-81519000D01*
X162789000Y-81560000D01*
X162765000Y-81600000D01*
X162738000Y-81639000D01*
X162709000Y-81676000D01*
X162679000Y-81712000D01*
X162646000Y-81746000D01*
X162612000Y-81779000D01*
X162576000Y-81809000D01*
X162539000Y-81838000D01*
X162500000Y-81865000D01*
X162460000Y-81889000D01*
X162419000Y-81912000D01*
X162376000Y-81932000D01*
X162333000Y-81950000D01*
X162288000Y-81966000D01*
X162243000Y-81979000D01*
X162197000Y-81990000D01*
X162151000Y-81999000D01*
X162104000Y-82005000D01*
X162057000Y-82009000D01*
X162010000Y-82010000D01*
X161963000Y-82009000D01*
X161916000Y-82005000D01*
X161869000Y-81999000D01*
X161823000Y-81990000D01*
X161777000Y-81979000D01*
X161732000Y-81966000D01*
X161687000Y-81950000D01*
X161644000Y-81932000D01*
X161601000Y-81912000D01*
X161560000Y-81889000D01*
X161520000Y-81865000D01*
X161481000Y-81838000D01*
X161444000Y-81809000D01*
X161408000Y-81779000D01*
X161374000Y-81746000D01*
X161341000Y-81712000D01*
X161311000Y-81676000D01*
X161282000Y-81639000D01*
X161255000Y-81600000D01*
X161231000Y-81560000D01*
X161208000Y-81519000D01*
X161188000Y-81476000D01*
X161170000Y-81433000D01*
X161154000Y-81388000D01*
X161141000Y-81343000D01*
X161130000Y-81297000D01*
X161121000Y-81251000D01*
X161115000Y-81204000D01*
X161111000Y-81157000D01*
X161110000Y-81110000D01*
X161110000Y-78610000D01*
X162910000Y-78610000D01*
X162910000Y-81110000D01*
G36*
X162910000Y-81110000D02*
G01*
X162909000Y-81157000D01*
X162905000Y-81204000D01*
X162899000Y-81251000D01*
X162890000Y-81297000D01*
X162879000Y-81343000D01*
X162866000Y-81388000D01*
X162850000Y-81433000D01*
X162832000Y-81476000D01*
X162812000Y-81519000D01*
X162789000Y-81560000D01*
X162765000Y-81600000D01*
X162738000Y-81639000D01*
X162709000Y-81676000D01*
X162679000Y-81712000D01*
X162646000Y-81746000D01*
X162612000Y-81779000D01*
X162576000Y-81809000D01*
X162539000Y-81838000D01*
X162500000Y-81865000D01*
X162460000Y-81889000D01*
X162419000Y-81912000D01*
X162376000Y-81932000D01*
X162333000Y-81950000D01*
X162288000Y-81966000D01*
X162243000Y-81979000D01*
X162197000Y-81990000D01*
X162151000Y-81999000D01*
X162104000Y-82005000D01*
X162057000Y-82009000D01*
X162010000Y-82010000D01*
X161963000Y-82009000D01*
X161916000Y-82005000D01*
X161869000Y-81999000D01*
X161823000Y-81990000D01*
X161777000Y-81979000D01*
X161732000Y-81966000D01*
X161687000Y-81950000D01*
X161644000Y-81932000D01*
X161601000Y-81912000D01*
X161560000Y-81889000D01*
X161520000Y-81865000D01*
X161481000Y-81838000D01*
X161444000Y-81809000D01*
X161408000Y-81779000D01*
X161374000Y-81746000D01*
X161341000Y-81712000D01*
X161311000Y-81676000D01*
X161282000Y-81639000D01*
X161255000Y-81600000D01*
X161231000Y-81560000D01*
X161208000Y-81519000D01*
X161188000Y-81476000D01*
X161170000Y-81433000D01*
X161154000Y-81388000D01*
X161141000Y-81343000D01*
X161130000Y-81297000D01*
X161121000Y-81251000D01*
X161115000Y-81204000D01*
X161111000Y-81157000D01*
X161110000Y-81110000D01*
X161110000Y-78610000D01*
X162910000Y-78610000D01*
X162910000Y-81110000D01*
G37*
X162057000Y-97991000D02*
X162104000Y-97995000D01*
X162151000Y-98001000D01*
X162197000Y-98010000D01*
X162243000Y-98021000D01*
X162288000Y-98034000D01*
X162333000Y-98050000D01*
X162376000Y-98068000D01*
X162419000Y-98088000D01*
X162460000Y-98111000D01*
X162500000Y-98135000D01*
X162539000Y-98162000D01*
X162576000Y-98191000D01*
X162612000Y-98221000D01*
X162646000Y-98254000D01*
X162679000Y-98288000D01*
X162709000Y-98324000D01*
X162738000Y-98361000D01*
X162765000Y-98400000D01*
X162789000Y-98440000D01*
X162812000Y-98481000D01*
X162832000Y-98524000D01*
X162850000Y-98567000D01*
X162866000Y-98612000D01*
X162879000Y-98657000D01*
X162890000Y-98703000D01*
X162899000Y-98749000D01*
X162905000Y-98796000D01*
X162909000Y-98843000D01*
X162910000Y-98890000D01*
X162910000Y-101390000D01*
X161110000Y-101390000D01*
X161110000Y-98890000D01*
X161111000Y-98843000D01*
X161115000Y-98796000D01*
X161121000Y-98749000D01*
X161130000Y-98703000D01*
X161141000Y-98657000D01*
X161154000Y-98612000D01*
X161170000Y-98567000D01*
X161188000Y-98524000D01*
X161208000Y-98481000D01*
X161231000Y-98440000D01*
X161255000Y-98400000D01*
X161282000Y-98361000D01*
X161311000Y-98324000D01*
X161341000Y-98288000D01*
X161374000Y-98254000D01*
X161408000Y-98221000D01*
X161444000Y-98191000D01*
X161481000Y-98162000D01*
X161520000Y-98135000D01*
X161560000Y-98111000D01*
X161601000Y-98088000D01*
X161644000Y-98068000D01*
X161687000Y-98050000D01*
X161732000Y-98034000D01*
X161777000Y-98021000D01*
X161823000Y-98010000D01*
X161869000Y-98001000D01*
X161916000Y-97995000D01*
X161963000Y-97991000D01*
X162010000Y-97990000D01*
X162057000Y-97991000D01*
G36*
X162057000Y-97991000D02*
G01*
X162104000Y-97995000D01*
X162151000Y-98001000D01*
X162197000Y-98010000D01*
X162243000Y-98021000D01*
X162288000Y-98034000D01*
X162333000Y-98050000D01*
X162376000Y-98068000D01*
X162419000Y-98088000D01*
X162460000Y-98111000D01*
X162500000Y-98135000D01*
X162539000Y-98162000D01*
X162576000Y-98191000D01*
X162612000Y-98221000D01*
X162646000Y-98254000D01*
X162679000Y-98288000D01*
X162709000Y-98324000D01*
X162738000Y-98361000D01*
X162765000Y-98400000D01*
X162789000Y-98440000D01*
X162812000Y-98481000D01*
X162832000Y-98524000D01*
X162850000Y-98567000D01*
X162866000Y-98612000D01*
X162879000Y-98657000D01*
X162890000Y-98703000D01*
X162899000Y-98749000D01*
X162905000Y-98796000D01*
X162909000Y-98843000D01*
X162910000Y-98890000D01*
X162910000Y-101390000D01*
X161110000Y-101390000D01*
X161110000Y-98890000D01*
X161111000Y-98843000D01*
X161115000Y-98796000D01*
X161121000Y-98749000D01*
X161130000Y-98703000D01*
X161141000Y-98657000D01*
X161154000Y-98612000D01*
X161170000Y-98567000D01*
X161188000Y-98524000D01*
X161208000Y-98481000D01*
X161231000Y-98440000D01*
X161255000Y-98400000D01*
X161282000Y-98361000D01*
X161311000Y-98324000D01*
X161341000Y-98288000D01*
X161374000Y-98254000D01*
X161408000Y-98221000D01*
X161444000Y-98191000D01*
X161481000Y-98162000D01*
X161520000Y-98135000D01*
X161560000Y-98111000D01*
X161601000Y-98088000D01*
X161644000Y-98068000D01*
X161687000Y-98050000D01*
X161732000Y-98034000D01*
X161777000Y-98021000D01*
X161823000Y-98010000D01*
X161869000Y-98001000D01*
X161916000Y-97995000D01*
X161963000Y-97991000D01*
X162010000Y-97990000D01*
X162057000Y-97991000D01*
G37*
X167990000Y-81110000D02*
X167989000Y-81157000D01*
X167985000Y-81204000D01*
X167979000Y-81251000D01*
X167970000Y-81297000D01*
X167959000Y-81343000D01*
X167946000Y-81388000D01*
X167930000Y-81433000D01*
X167912000Y-81476000D01*
X167892000Y-81519000D01*
X167869000Y-81560000D01*
X167845000Y-81600000D01*
X167818000Y-81639000D01*
X167789000Y-81676000D01*
X167759000Y-81712000D01*
X167726000Y-81746000D01*
X167692000Y-81779000D01*
X167656000Y-81809000D01*
X167619000Y-81838000D01*
X167580000Y-81865000D01*
X167540000Y-81889000D01*
X167499000Y-81912000D01*
X167456000Y-81932000D01*
X167413000Y-81950000D01*
X167368000Y-81966000D01*
X167323000Y-81979000D01*
X167277000Y-81990000D01*
X167231000Y-81999000D01*
X167184000Y-82005000D01*
X167137000Y-82009000D01*
X167090000Y-82010000D01*
X167043000Y-82009000D01*
X166996000Y-82005000D01*
X166949000Y-81999000D01*
X166903000Y-81990000D01*
X166857000Y-81979000D01*
X166812000Y-81966000D01*
X166767000Y-81950000D01*
X166724000Y-81932000D01*
X166681000Y-81912000D01*
X166640000Y-81889000D01*
X166600000Y-81865000D01*
X166561000Y-81838000D01*
X166524000Y-81809000D01*
X166488000Y-81779000D01*
X166454000Y-81746000D01*
X166421000Y-81712000D01*
X166391000Y-81676000D01*
X166362000Y-81639000D01*
X166335000Y-81600000D01*
X166311000Y-81560000D01*
X166288000Y-81519000D01*
X166268000Y-81476000D01*
X166250000Y-81433000D01*
X166234000Y-81388000D01*
X166221000Y-81343000D01*
X166210000Y-81297000D01*
X166201000Y-81251000D01*
X166195000Y-81204000D01*
X166191000Y-81157000D01*
X166190000Y-81110000D01*
X166190000Y-78610000D01*
X167990000Y-78610000D01*
X167990000Y-81110000D01*
G36*
X167990000Y-81110000D02*
G01*
X167989000Y-81157000D01*
X167985000Y-81204000D01*
X167979000Y-81251000D01*
X167970000Y-81297000D01*
X167959000Y-81343000D01*
X167946000Y-81388000D01*
X167930000Y-81433000D01*
X167912000Y-81476000D01*
X167892000Y-81519000D01*
X167869000Y-81560000D01*
X167845000Y-81600000D01*
X167818000Y-81639000D01*
X167789000Y-81676000D01*
X167759000Y-81712000D01*
X167726000Y-81746000D01*
X167692000Y-81779000D01*
X167656000Y-81809000D01*
X167619000Y-81838000D01*
X167580000Y-81865000D01*
X167540000Y-81889000D01*
X167499000Y-81912000D01*
X167456000Y-81932000D01*
X167413000Y-81950000D01*
X167368000Y-81966000D01*
X167323000Y-81979000D01*
X167277000Y-81990000D01*
X167231000Y-81999000D01*
X167184000Y-82005000D01*
X167137000Y-82009000D01*
X167090000Y-82010000D01*
X167043000Y-82009000D01*
X166996000Y-82005000D01*
X166949000Y-81999000D01*
X166903000Y-81990000D01*
X166857000Y-81979000D01*
X166812000Y-81966000D01*
X166767000Y-81950000D01*
X166724000Y-81932000D01*
X166681000Y-81912000D01*
X166640000Y-81889000D01*
X166600000Y-81865000D01*
X166561000Y-81838000D01*
X166524000Y-81809000D01*
X166488000Y-81779000D01*
X166454000Y-81746000D01*
X166421000Y-81712000D01*
X166391000Y-81676000D01*
X166362000Y-81639000D01*
X166335000Y-81600000D01*
X166311000Y-81560000D01*
X166288000Y-81519000D01*
X166268000Y-81476000D01*
X166250000Y-81433000D01*
X166234000Y-81388000D01*
X166221000Y-81343000D01*
X166210000Y-81297000D01*
X166201000Y-81251000D01*
X166195000Y-81204000D01*
X166191000Y-81157000D01*
X166190000Y-81110000D01*
X166190000Y-78610000D01*
X167990000Y-78610000D01*
X167990000Y-81110000D01*
G37*
X167137000Y-97991000D02*
X167184000Y-97995000D01*
X167231000Y-98001000D01*
X167277000Y-98010000D01*
X167323000Y-98021000D01*
X167368000Y-98034000D01*
X167413000Y-98050000D01*
X167456000Y-98068000D01*
X167499000Y-98088000D01*
X167540000Y-98111000D01*
X167580000Y-98135000D01*
X167619000Y-98162000D01*
X167656000Y-98191000D01*
X167692000Y-98221000D01*
X167726000Y-98254000D01*
X167759000Y-98288000D01*
X167789000Y-98324000D01*
X167818000Y-98361000D01*
X167845000Y-98400000D01*
X167869000Y-98440000D01*
X167892000Y-98481000D01*
X167912000Y-98524000D01*
X167930000Y-98567000D01*
X167946000Y-98612000D01*
X167959000Y-98657000D01*
X167970000Y-98703000D01*
X167979000Y-98749000D01*
X167985000Y-98796000D01*
X167989000Y-98843000D01*
X167990000Y-98890000D01*
X167990000Y-101390000D01*
X166190000Y-101390000D01*
X166190000Y-98890000D01*
X166191000Y-98843000D01*
X166195000Y-98796000D01*
X166201000Y-98749000D01*
X166210000Y-98703000D01*
X166221000Y-98657000D01*
X166234000Y-98612000D01*
X166250000Y-98567000D01*
X166268000Y-98524000D01*
X166288000Y-98481000D01*
X166311000Y-98440000D01*
X166335000Y-98400000D01*
X166362000Y-98361000D01*
X166391000Y-98324000D01*
X166421000Y-98288000D01*
X166454000Y-98254000D01*
X166488000Y-98221000D01*
X166524000Y-98191000D01*
X166561000Y-98162000D01*
X166600000Y-98135000D01*
X166640000Y-98111000D01*
X166681000Y-98088000D01*
X166724000Y-98068000D01*
X166767000Y-98050000D01*
X166812000Y-98034000D01*
X166857000Y-98021000D01*
X166903000Y-98010000D01*
X166949000Y-98001000D01*
X166996000Y-97995000D01*
X167043000Y-97991000D01*
X167090000Y-97990000D01*
X167137000Y-97991000D01*
G36*
X167137000Y-97991000D02*
G01*
X167184000Y-97995000D01*
X167231000Y-98001000D01*
X167277000Y-98010000D01*
X167323000Y-98021000D01*
X167368000Y-98034000D01*
X167413000Y-98050000D01*
X167456000Y-98068000D01*
X167499000Y-98088000D01*
X167540000Y-98111000D01*
X167580000Y-98135000D01*
X167619000Y-98162000D01*
X167656000Y-98191000D01*
X167692000Y-98221000D01*
X167726000Y-98254000D01*
X167759000Y-98288000D01*
X167789000Y-98324000D01*
X167818000Y-98361000D01*
X167845000Y-98400000D01*
X167869000Y-98440000D01*
X167892000Y-98481000D01*
X167912000Y-98524000D01*
X167930000Y-98567000D01*
X167946000Y-98612000D01*
X167959000Y-98657000D01*
X167970000Y-98703000D01*
X167979000Y-98749000D01*
X167985000Y-98796000D01*
X167989000Y-98843000D01*
X167990000Y-98890000D01*
X167990000Y-101390000D01*
X166190000Y-101390000D01*
X166190000Y-98890000D01*
X166191000Y-98843000D01*
X166195000Y-98796000D01*
X166201000Y-98749000D01*
X166210000Y-98703000D01*
X166221000Y-98657000D01*
X166234000Y-98612000D01*
X166250000Y-98567000D01*
X166268000Y-98524000D01*
X166288000Y-98481000D01*
X166311000Y-98440000D01*
X166335000Y-98400000D01*
X166362000Y-98361000D01*
X166391000Y-98324000D01*
X166421000Y-98288000D01*
X166454000Y-98254000D01*
X166488000Y-98221000D01*
X166524000Y-98191000D01*
X166561000Y-98162000D01*
X166600000Y-98135000D01*
X166640000Y-98111000D01*
X166681000Y-98088000D01*
X166724000Y-98068000D01*
X166767000Y-98050000D01*
X166812000Y-98034000D01*
X166857000Y-98021000D01*
X166903000Y-98010000D01*
X166949000Y-98001000D01*
X166996000Y-97995000D01*
X167043000Y-97991000D01*
X167090000Y-97990000D01*
X167137000Y-97991000D01*
G37*
X170530000Y-81110000D02*
X170529000Y-81157000D01*
X170525000Y-81204000D01*
X170519000Y-81251000D01*
X170510000Y-81297000D01*
X170499000Y-81343000D01*
X170486000Y-81388000D01*
X170470000Y-81433000D01*
X170452000Y-81476000D01*
X170432000Y-81519000D01*
X170409000Y-81560000D01*
X170385000Y-81600000D01*
X170358000Y-81639000D01*
X170329000Y-81676000D01*
X170299000Y-81712000D01*
X170266000Y-81746000D01*
X170232000Y-81779000D01*
X170196000Y-81809000D01*
X170159000Y-81838000D01*
X170120000Y-81865000D01*
X170080000Y-81889000D01*
X170039000Y-81912000D01*
X169996000Y-81932000D01*
X169953000Y-81950000D01*
X169908000Y-81966000D01*
X169863000Y-81979000D01*
X169817000Y-81990000D01*
X169771000Y-81999000D01*
X169724000Y-82005000D01*
X169677000Y-82009000D01*
X169630000Y-82010000D01*
X169583000Y-82009000D01*
X169536000Y-82005000D01*
X169489000Y-81999000D01*
X169443000Y-81990000D01*
X169397000Y-81979000D01*
X169352000Y-81966000D01*
X169307000Y-81950000D01*
X169264000Y-81932000D01*
X169221000Y-81912000D01*
X169180000Y-81889000D01*
X169140000Y-81865000D01*
X169101000Y-81838000D01*
X169064000Y-81809000D01*
X169028000Y-81779000D01*
X168994000Y-81746000D01*
X168961000Y-81712000D01*
X168931000Y-81676000D01*
X168902000Y-81639000D01*
X168875000Y-81600000D01*
X168851000Y-81560000D01*
X168828000Y-81519000D01*
X168808000Y-81476000D01*
X168790000Y-81433000D01*
X168774000Y-81388000D01*
X168761000Y-81343000D01*
X168750000Y-81297000D01*
X168741000Y-81251000D01*
X168735000Y-81204000D01*
X168731000Y-81157000D01*
X168730000Y-81110000D01*
X168730000Y-78610000D01*
X170530000Y-78610000D01*
X170530000Y-81110000D01*
G36*
X170530000Y-81110000D02*
G01*
X170529000Y-81157000D01*
X170525000Y-81204000D01*
X170519000Y-81251000D01*
X170510000Y-81297000D01*
X170499000Y-81343000D01*
X170486000Y-81388000D01*
X170470000Y-81433000D01*
X170452000Y-81476000D01*
X170432000Y-81519000D01*
X170409000Y-81560000D01*
X170385000Y-81600000D01*
X170358000Y-81639000D01*
X170329000Y-81676000D01*
X170299000Y-81712000D01*
X170266000Y-81746000D01*
X170232000Y-81779000D01*
X170196000Y-81809000D01*
X170159000Y-81838000D01*
X170120000Y-81865000D01*
X170080000Y-81889000D01*
X170039000Y-81912000D01*
X169996000Y-81932000D01*
X169953000Y-81950000D01*
X169908000Y-81966000D01*
X169863000Y-81979000D01*
X169817000Y-81990000D01*
X169771000Y-81999000D01*
X169724000Y-82005000D01*
X169677000Y-82009000D01*
X169630000Y-82010000D01*
X169583000Y-82009000D01*
X169536000Y-82005000D01*
X169489000Y-81999000D01*
X169443000Y-81990000D01*
X169397000Y-81979000D01*
X169352000Y-81966000D01*
X169307000Y-81950000D01*
X169264000Y-81932000D01*
X169221000Y-81912000D01*
X169180000Y-81889000D01*
X169140000Y-81865000D01*
X169101000Y-81838000D01*
X169064000Y-81809000D01*
X169028000Y-81779000D01*
X168994000Y-81746000D01*
X168961000Y-81712000D01*
X168931000Y-81676000D01*
X168902000Y-81639000D01*
X168875000Y-81600000D01*
X168851000Y-81560000D01*
X168828000Y-81519000D01*
X168808000Y-81476000D01*
X168790000Y-81433000D01*
X168774000Y-81388000D01*
X168761000Y-81343000D01*
X168750000Y-81297000D01*
X168741000Y-81251000D01*
X168735000Y-81204000D01*
X168731000Y-81157000D01*
X168730000Y-81110000D01*
X168730000Y-78610000D01*
X170530000Y-78610000D01*
X170530000Y-81110000D01*
G37*
X169677000Y-97991000D02*
X169724000Y-97995000D01*
X169771000Y-98001000D01*
X169817000Y-98010000D01*
X169863000Y-98021000D01*
X169908000Y-98034000D01*
X169953000Y-98050000D01*
X169996000Y-98068000D01*
X170039000Y-98088000D01*
X170080000Y-98111000D01*
X170120000Y-98135000D01*
X170159000Y-98162000D01*
X170196000Y-98191000D01*
X170232000Y-98221000D01*
X170266000Y-98254000D01*
X170299000Y-98288000D01*
X170329000Y-98324000D01*
X170358000Y-98361000D01*
X170385000Y-98400000D01*
X170409000Y-98440000D01*
X170432000Y-98481000D01*
X170452000Y-98524000D01*
X170470000Y-98567000D01*
X170486000Y-98612000D01*
X170499000Y-98657000D01*
X170510000Y-98703000D01*
X170519000Y-98749000D01*
X170525000Y-98796000D01*
X170529000Y-98843000D01*
X170530000Y-98890000D01*
X170530000Y-101390000D01*
X168730000Y-101390000D01*
X168730000Y-98890000D01*
X168731000Y-98843000D01*
X168735000Y-98796000D01*
X168741000Y-98749000D01*
X168750000Y-98703000D01*
X168761000Y-98657000D01*
X168774000Y-98612000D01*
X168790000Y-98567000D01*
X168808000Y-98524000D01*
X168828000Y-98481000D01*
X168851000Y-98440000D01*
X168875000Y-98400000D01*
X168902000Y-98361000D01*
X168931000Y-98324000D01*
X168961000Y-98288000D01*
X168994000Y-98254000D01*
X169028000Y-98221000D01*
X169064000Y-98191000D01*
X169101000Y-98162000D01*
X169140000Y-98135000D01*
X169180000Y-98111000D01*
X169221000Y-98088000D01*
X169264000Y-98068000D01*
X169307000Y-98050000D01*
X169352000Y-98034000D01*
X169397000Y-98021000D01*
X169443000Y-98010000D01*
X169489000Y-98001000D01*
X169536000Y-97995000D01*
X169583000Y-97991000D01*
X169630000Y-97990000D01*
X169677000Y-97991000D01*
G36*
X169677000Y-97991000D02*
G01*
X169724000Y-97995000D01*
X169771000Y-98001000D01*
X169817000Y-98010000D01*
X169863000Y-98021000D01*
X169908000Y-98034000D01*
X169953000Y-98050000D01*
X169996000Y-98068000D01*
X170039000Y-98088000D01*
X170080000Y-98111000D01*
X170120000Y-98135000D01*
X170159000Y-98162000D01*
X170196000Y-98191000D01*
X170232000Y-98221000D01*
X170266000Y-98254000D01*
X170299000Y-98288000D01*
X170329000Y-98324000D01*
X170358000Y-98361000D01*
X170385000Y-98400000D01*
X170409000Y-98440000D01*
X170432000Y-98481000D01*
X170452000Y-98524000D01*
X170470000Y-98567000D01*
X170486000Y-98612000D01*
X170499000Y-98657000D01*
X170510000Y-98703000D01*
X170519000Y-98749000D01*
X170525000Y-98796000D01*
X170529000Y-98843000D01*
X170530000Y-98890000D01*
X170530000Y-101390000D01*
X168730000Y-101390000D01*
X168730000Y-98890000D01*
X168731000Y-98843000D01*
X168735000Y-98796000D01*
X168741000Y-98749000D01*
X168750000Y-98703000D01*
X168761000Y-98657000D01*
X168774000Y-98612000D01*
X168790000Y-98567000D01*
X168808000Y-98524000D01*
X168828000Y-98481000D01*
X168851000Y-98440000D01*
X168875000Y-98400000D01*
X168902000Y-98361000D01*
X168931000Y-98324000D01*
X168961000Y-98288000D01*
X168994000Y-98254000D01*
X169028000Y-98221000D01*
X169064000Y-98191000D01*
X169101000Y-98162000D01*
X169140000Y-98135000D01*
X169180000Y-98111000D01*
X169221000Y-98088000D01*
X169264000Y-98068000D01*
X169307000Y-98050000D01*
X169352000Y-98034000D01*
X169397000Y-98021000D01*
X169443000Y-98010000D01*
X169489000Y-98001000D01*
X169536000Y-97995000D01*
X169583000Y-97991000D01*
X169630000Y-97990000D01*
X169677000Y-97991000D01*
G37*
X171900000Y-88360000D02*
X169400000Y-88360000D01*
X169353000Y-88359000D01*
X169306000Y-88355000D01*
X169259000Y-88349000D01*
X169213000Y-88340000D01*
X169167000Y-88329000D01*
X169122000Y-88316000D01*
X169077000Y-88300000D01*
X169034000Y-88282000D01*
X168991000Y-88262000D01*
X168950000Y-88239000D01*
X168910000Y-88215000D01*
X168871000Y-88188000D01*
X168834000Y-88159000D01*
X168798000Y-88129000D01*
X168764000Y-88096000D01*
X168731000Y-88062000D01*
X168701000Y-88026000D01*
X168672000Y-87989000D01*
X168645000Y-87950000D01*
X168621000Y-87910000D01*
X168598000Y-87869000D01*
X168578000Y-87826000D01*
X168560000Y-87783000D01*
X168544000Y-87738000D01*
X168531000Y-87693000D01*
X168520000Y-87647000D01*
X168511000Y-87601000D01*
X168505000Y-87554000D01*
X168501000Y-87507000D01*
X168500000Y-87460000D01*
X168501000Y-87413000D01*
X168505000Y-87366000D01*
X168511000Y-87319000D01*
X168520000Y-87273000D01*
X168531000Y-87227000D01*
X168544000Y-87182000D01*
X168560000Y-87137000D01*
X168578000Y-87094000D01*
X168598000Y-87051000D01*
X168621000Y-87010000D01*
X168645000Y-86970000D01*
X168672000Y-86931000D01*
X168701000Y-86894000D01*
X168731000Y-86858000D01*
X168764000Y-86824000D01*
X168798000Y-86791000D01*
X168834000Y-86761000D01*
X168871000Y-86732000D01*
X168910000Y-86705000D01*
X168950000Y-86681000D01*
X168991000Y-86658000D01*
X169034000Y-86638000D01*
X169077000Y-86620000D01*
X169122000Y-86604000D01*
X169167000Y-86591000D01*
X169213000Y-86580000D01*
X169259000Y-86571000D01*
X169306000Y-86565000D01*
X169353000Y-86561000D01*
X169400000Y-86560000D01*
X171900000Y-86560000D01*
X171900000Y-88360000D01*
G36*
X171900000Y-88360000D02*
G01*
X169400000Y-88360000D01*
X169353000Y-88359000D01*
X169306000Y-88355000D01*
X169259000Y-88349000D01*
X169213000Y-88340000D01*
X169167000Y-88329000D01*
X169122000Y-88316000D01*
X169077000Y-88300000D01*
X169034000Y-88282000D01*
X168991000Y-88262000D01*
X168950000Y-88239000D01*
X168910000Y-88215000D01*
X168871000Y-88188000D01*
X168834000Y-88159000D01*
X168798000Y-88129000D01*
X168764000Y-88096000D01*
X168731000Y-88062000D01*
X168701000Y-88026000D01*
X168672000Y-87989000D01*
X168645000Y-87950000D01*
X168621000Y-87910000D01*
X168598000Y-87869000D01*
X168578000Y-87826000D01*
X168560000Y-87783000D01*
X168544000Y-87738000D01*
X168531000Y-87693000D01*
X168520000Y-87647000D01*
X168511000Y-87601000D01*
X168505000Y-87554000D01*
X168501000Y-87507000D01*
X168500000Y-87460000D01*
X168501000Y-87413000D01*
X168505000Y-87366000D01*
X168511000Y-87319000D01*
X168520000Y-87273000D01*
X168531000Y-87227000D01*
X168544000Y-87182000D01*
X168560000Y-87137000D01*
X168578000Y-87094000D01*
X168598000Y-87051000D01*
X168621000Y-87010000D01*
X168645000Y-86970000D01*
X168672000Y-86931000D01*
X168701000Y-86894000D01*
X168731000Y-86858000D01*
X168764000Y-86824000D01*
X168798000Y-86791000D01*
X168834000Y-86761000D01*
X168871000Y-86732000D01*
X168910000Y-86705000D01*
X168950000Y-86681000D01*
X168991000Y-86658000D01*
X169034000Y-86638000D01*
X169077000Y-86620000D01*
X169122000Y-86604000D01*
X169167000Y-86591000D01*
X169213000Y-86580000D01*
X169259000Y-86571000D01*
X169306000Y-86565000D01*
X169353000Y-86561000D01*
X169400000Y-86560000D01*
X171900000Y-86560000D01*
X171900000Y-88360000D01*
G37*
X171900000Y-93440000D02*
X169400000Y-93440000D01*
X169353000Y-93439000D01*
X169306000Y-93435000D01*
X169259000Y-93429000D01*
X169213000Y-93420000D01*
X169167000Y-93409000D01*
X169122000Y-93396000D01*
X169077000Y-93380000D01*
X169034000Y-93362000D01*
X168991000Y-93342000D01*
X168950000Y-93319000D01*
X168910000Y-93295000D01*
X168871000Y-93268000D01*
X168834000Y-93239000D01*
X168798000Y-93209000D01*
X168764000Y-93176000D01*
X168731000Y-93142000D01*
X168701000Y-93106000D01*
X168672000Y-93069000D01*
X168645000Y-93030000D01*
X168621000Y-92990000D01*
X168598000Y-92949000D01*
X168578000Y-92906000D01*
X168560000Y-92863000D01*
X168544000Y-92818000D01*
X168531000Y-92773000D01*
X168520000Y-92727000D01*
X168511000Y-92681000D01*
X168505000Y-92634000D01*
X168501000Y-92587000D01*
X168500000Y-92540000D01*
X168501000Y-92493000D01*
X168505000Y-92446000D01*
X168511000Y-92399000D01*
X168520000Y-92353000D01*
X168531000Y-92307000D01*
X168544000Y-92262000D01*
X168560000Y-92217000D01*
X168578000Y-92174000D01*
X168598000Y-92131000D01*
X168621000Y-92090000D01*
X168645000Y-92050000D01*
X168672000Y-92011000D01*
X168701000Y-91974000D01*
X168731000Y-91938000D01*
X168764000Y-91904000D01*
X168798000Y-91871000D01*
X168834000Y-91841000D01*
X168871000Y-91812000D01*
X168910000Y-91785000D01*
X168950000Y-91761000D01*
X168991000Y-91738000D01*
X169034000Y-91718000D01*
X169077000Y-91700000D01*
X169122000Y-91684000D01*
X169167000Y-91671000D01*
X169213000Y-91660000D01*
X169259000Y-91651000D01*
X169306000Y-91645000D01*
X169353000Y-91641000D01*
X169400000Y-91640000D01*
X171900000Y-91640000D01*
X171900000Y-93440000D01*
G36*
X171900000Y-93440000D02*
G01*
X169400000Y-93440000D01*
X169353000Y-93439000D01*
X169306000Y-93435000D01*
X169259000Y-93429000D01*
X169213000Y-93420000D01*
X169167000Y-93409000D01*
X169122000Y-93396000D01*
X169077000Y-93380000D01*
X169034000Y-93362000D01*
X168991000Y-93342000D01*
X168950000Y-93319000D01*
X168910000Y-93295000D01*
X168871000Y-93268000D01*
X168834000Y-93239000D01*
X168798000Y-93209000D01*
X168764000Y-93176000D01*
X168731000Y-93142000D01*
X168701000Y-93106000D01*
X168672000Y-93069000D01*
X168645000Y-93030000D01*
X168621000Y-92990000D01*
X168598000Y-92949000D01*
X168578000Y-92906000D01*
X168560000Y-92863000D01*
X168544000Y-92818000D01*
X168531000Y-92773000D01*
X168520000Y-92727000D01*
X168511000Y-92681000D01*
X168505000Y-92634000D01*
X168501000Y-92587000D01*
X168500000Y-92540000D01*
X168501000Y-92493000D01*
X168505000Y-92446000D01*
X168511000Y-92399000D01*
X168520000Y-92353000D01*
X168531000Y-92307000D01*
X168544000Y-92262000D01*
X168560000Y-92217000D01*
X168578000Y-92174000D01*
X168598000Y-92131000D01*
X168621000Y-92090000D01*
X168645000Y-92050000D01*
X168672000Y-92011000D01*
X168701000Y-91974000D01*
X168731000Y-91938000D01*
X168764000Y-91904000D01*
X168798000Y-91871000D01*
X168834000Y-91841000D01*
X168871000Y-91812000D01*
X168910000Y-91785000D01*
X168950000Y-91761000D01*
X168991000Y-91738000D01*
X169034000Y-91718000D01*
X169077000Y-91700000D01*
X169122000Y-91684000D01*
X169167000Y-91671000D01*
X169213000Y-91660000D01*
X169259000Y-91651000D01*
X169306000Y-91645000D01*
X169353000Y-91641000D01*
X169400000Y-91640000D01*
X171900000Y-91640000D01*
X171900000Y-93440000D01*
G37*
X127350000Y-81710000D02*
X127350000Y-81726000D01*
X127348000Y-81741000D01*
X127346000Y-81757000D01*
X127343000Y-81772000D01*
X127340000Y-81788000D01*
X127335000Y-81803000D01*
X127330000Y-81818000D01*
X127324000Y-81832000D01*
X127317000Y-81846000D01*
X127310000Y-81860000D01*
X127302000Y-81873000D01*
X127293000Y-81886000D01*
X127283000Y-81899000D01*
X127273000Y-81911000D01*
X127262000Y-81922000D01*
X127251000Y-81933000D01*
X127239000Y-81943000D01*
X127226000Y-81953000D01*
X127213000Y-81962000D01*
X127200000Y-81970000D01*
X127186000Y-81977000D01*
X127172000Y-81984000D01*
X127158000Y-81990000D01*
X127143000Y-81995000D01*
X127128000Y-82000000D01*
X127112000Y-82003000D01*
X127097000Y-82006000D01*
X127081000Y-82008000D01*
X127066000Y-82010000D01*
X127050000Y-82010000D01*
X125850000Y-82010000D01*
X125834000Y-82010000D01*
X125819000Y-82008000D01*
X125803000Y-82006000D01*
X125788000Y-82003000D01*
X125772000Y-82000000D01*
X125757000Y-81995000D01*
X125742000Y-81990000D01*
X125728000Y-81984000D01*
X125714000Y-81977000D01*
X125700000Y-81970000D01*
X125687000Y-81962000D01*
X125674000Y-81953000D01*
X125661000Y-81943000D01*
X125649000Y-81933000D01*
X125638000Y-81922000D01*
X125627000Y-81911000D01*
X125617000Y-81899000D01*
X125607000Y-81886000D01*
X125598000Y-81873000D01*
X125590000Y-81860000D01*
X125583000Y-81846000D01*
X125576000Y-81832000D01*
X125570000Y-81818000D01*
X125565000Y-81803000D01*
X125560000Y-81788000D01*
X125557000Y-81772000D01*
X125554000Y-81757000D01*
X125552000Y-81741000D01*
X125550000Y-81726000D01*
X125550000Y-81710000D01*
X125550000Y-78610000D01*
X127350000Y-78610000D01*
X127350000Y-81710000D01*
G36*
X127350000Y-81710000D02*
G01*
X127350000Y-81726000D01*
X127348000Y-81741000D01*
X127346000Y-81757000D01*
X127343000Y-81772000D01*
X127340000Y-81788000D01*
X127335000Y-81803000D01*
X127330000Y-81818000D01*
X127324000Y-81832000D01*
X127317000Y-81846000D01*
X127310000Y-81860000D01*
X127302000Y-81873000D01*
X127293000Y-81886000D01*
X127283000Y-81899000D01*
X127273000Y-81911000D01*
X127262000Y-81922000D01*
X127251000Y-81933000D01*
X127239000Y-81943000D01*
X127226000Y-81953000D01*
X127213000Y-81962000D01*
X127200000Y-81970000D01*
X127186000Y-81977000D01*
X127172000Y-81984000D01*
X127158000Y-81990000D01*
X127143000Y-81995000D01*
X127128000Y-82000000D01*
X127112000Y-82003000D01*
X127097000Y-82006000D01*
X127081000Y-82008000D01*
X127066000Y-82010000D01*
X127050000Y-82010000D01*
X125850000Y-82010000D01*
X125834000Y-82010000D01*
X125819000Y-82008000D01*
X125803000Y-82006000D01*
X125788000Y-82003000D01*
X125772000Y-82000000D01*
X125757000Y-81995000D01*
X125742000Y-81990000D01*
X125728000Y-81984000D01*
X125714000Y-81977000D01*
X125700000Y-81970000D01*
X125687000Y-81962000D01*
X125674000Y-81953000D01*
X125661000Y-81943000D01*
X125649000Y-81933000D01*
X125638000Y-81922000D01*
X125627000Y-81911000D01*
X125617000Y-81899000D01*
X125607000Y-81886000D01*
X125598000Y-81873000D01*
X125590000Y-81860000D01*
X125583000Y-81846000D01*
X125576000Y-81832000D01*
X125570000Y-81818000D01*
X125565000Y-81803000D01*
X125560000Y-81788000D01*
X125557000Y-81772000D01*
X125554000Y-81757000D01*
X125552000Y-81741000D01*
X125550000Y-81726000D01*
X125550000Y-81710000D01*
X125550000Y-78610000D01*
X127350000Y-78610000D01*
X127350000Y-81710000D01*
G37*
X127081000Y-97992000D02*
X127097000Y-97994000D01*
X127112000Y-97997000D01*
X127128000Y-98000000D01*
X127143000Y-98005000D01*
X127158000Y-98010000D01*
X127172000Y-98016000D01*
X127186000Y-98023000D01*
X127200000Y-98030000D01*
X127213000Y-98038000D01*
X127226000Y-98047000D01*
X127239000Y-98057000D01*
X127251000Y-98067000D01*
X127262000Y-98078000D01*
X127273000Y-98089000D01*
X127283000Y-98101000D01*
X127293000Y-98114000D01*
X127302000Y-98127000D01*
X127310000Y-98140000D01*
X127317000Y-98154000D01*
X127324000Y-98168000D01*
X127330000Y-98182000D01*
X127335000Y-98197000D01*
X127340000Y-98212000D01*
X127343000Y-98228000D01*
X127346000Y-98243000D01*
X127348000Y-98259000D01*
X127350000Y-98274000D01*
X127350000Y-98290000D01*
X127350000Y-101390000D01*
X125550000Y-101390000D01*
X125550000Y-98290000D01*
X125550000Y-98274000D01*
X125552000Y-98259000D01*
X125554000Y-98243000D01*
X125557000Y-98228000D01*
X125560000Y-98212000D01*
X125565000Y-98197000D01*
X125570000Y-98182000D01*
X125576000Y-98168000D01*
X125583000Y-98154000D01*
X125590000Y-98140000D01*
X125598000Y-98127000D01*
X125607000Y-98114000D01*
X125617000Y-98101000D01*
X125627000Y-98089000D01*
X125638000Y-98078000D01*
X125649000Y-98067000D01*
X125661000Y-98057000D01*
X125674000Y-98047000D01*
X125687000Y-98038000D01*
X125700000Y-98030000D01*
X125714000Y-98023000D01*
X125728000Y-98016000D01*
X125742000Y-98010000D01*
X125757000Y-98005000D01*
X125772000Y-98000000D01*
X125788000Y-97997000D01*
X125803000Y-97994000D01*
X125819000Y-97992000D01*
X125834000Y-97990000D01*
X125850000Y-97990000D01*
X127050000Y-97990000D01*
X127066000Y-97990000D01*
X127081000Y-97992000D01*
G36*
X127081000Y-97992000D02*
G01*
X127097000Y-97994000D01*
X127112000Y-97997000D01*
X127128000Y-98000000D01*
X127143000Y-98005000D01*
X127158000Y-98010000D01*
X127172000Y-98016000D01*
X127186000Y-98023000D01*
X127200000Y-98030000D01*
X127213000Y-98038000D01*
X127226000Y-98047000D01*
X127239000Y-98057000D01*
X127251000Y-98067000D01*
X127262000Y-98078000D01*
X127273000Y-98089000D01*
X127283000Y-98101000D01*
X127293000Y-98114000D01*
X127302000Y-98127000D01*
X127310000Y-98140000D01*
X127317000Y-98154000D01*
X127324000Y-98168000D01*
X127330000Y-98182000D01*
X127335000Y-98197000D01*
X127340000Y-98212000D01*
X127343000Y-98228000D01*
X127346000Y-98243000D01*
X127348000Y-98259000D01*
X127350000Y-98274000D01*
X127350000Y-98290000D01*
X127350000Y-101390000D01*
X125550000Y-101390000D01*
X125550000Y-98290000D01*
X125550000Y-98274000D01*
X125552000Y-98259000D01*
X125554000Y-98243000D01*
X125557000Y-98228000D01*
X125560000Y-98212000D01*
X125565000Y-98197000D01*
X125570000Y-98182000D01*
X125576000Y-98168000D01*
X125583000Y-98154000D01*
X125590000Y-98140000D01*
X125598000Y-98127000D01*
X125607000Y-98114000D01*
X125617000Y-98101000D01*
X125627000Y-98089000D01*
X125638000Y-98078000D01*
X125649000Y-98067000D01*
X125661000Y-98057000D01*
X125674000Y-98047000D01*
X125687000Y-98038000D01*
X125700000Y-98030000D01*
X125714000Y-98023000D01*
X125728000Y-98016000D01*
X125742000Y-98010000D01*
X125757000Y-98005000D01*
X125772000Y-98000000D01*
X125788000Y-97997000D01*
X125803000Y-97994000D01*
X125819000Y-97992000D01*
X125834000Y-97990000D01*
X125850000Y-97990000D01*
X127050000Y-97990000D01*
X127066000Y-97990000D01*
X127081000Y-97992000D01*
G37*
X140050000Y-81710000D02*
X140050000Y-81726000D01*
X140048000Y-81741000D01*
X140046000Y-81757000D01*
X140043000Y-81772000D01*
X140040000Y-81788000D01*
X140035000Y-81803000D01*
X140030000Y-81818000D01*
X140024000Y-81832000D01*
X140017000Y-81846000D01*
X140010000Y-81860000D01*
X140002000Y-81873000D01*
X139993000Y-81886000D01*
X139983000Y-81899000D01*
X139973000Y-81911000D01*
X139962000Y-81922000D01*
X139951000Y-81933000D01*
X139939000Y-81943000D01*
X139926000Y-81953000D01*
X139913000Y-81962000D01*
X139900000Y-81970000D01*
X139886000Y-81977000D01*
X139872000Y-81984000D01*
X139858000Y-81990000D01*
X139843000Y-81995000D01*
X139828000Y-82000000D01*
X139812000Y-82003000D01*
X139797000Y-82006000D01*
X139781000Y-82008000D01*
X139766000Y-82010000D01*
X139750000Y-82010000D01*
X138550000Y-82010000D01*
X138534000Y-82010000D01*
X138519000Y-82008000D01*
X138503000Y-82006000D01*
X138488000Y-82003000D01*
X138472000Y-82000000D01*
X138457000Y-81995000D01*
X138442000Y-81990000D01*
X138428000Y-81984000D01*
X138414000Y-81977000D01*
X138400000Y-81970000D01*
X138387000Y-81962000D01*
X138374000Y-81953000D01*
X138361000Y-81943000D01*
X138349000Y-81933000D01*
X138338000Y-81922000D01*
X138327000Y-81911000D01*
X138317000Y-81899000D01*
X138307000Y-81886000D01*
X138298000Y-81873000D01*
X138290000Y-81860000D01*
X138283000Y-81846000D01*
X138276000Y-81832000D01*
X138270000Y-81818000D01*
X138265000Y-81803000D01*
X138260000Y-81788000D01*
X138257000Y-81772000D01*
X138254000Y-81757000D01*
X138252000Y-81741000D01*
X138250000Y-81726000D01*
X138250000Y-81710000D01*
X138250000Y-78610000D01*
X140050000Y-78610000D01*
X140050000Y-81710000D01*
G36*
X140050000Y-81710000D02*
G01*
X140050000Y-81726000D01*
X140048000Y-81741000D01*
X140046000Y-81757000D01*
X140043000Y-81772000D01*
X140040000Y-81788000D01*
X140035000Y-81803000D01*
X140030000Y-81818000D01*
X140024000Y-81832000D01*
X140017000Y-81846000D01*
X140010000Y-81860000D01*
X140002000Y-81873000D01*
X139993000Y-81886000D01*
X139983000Y-81899000D01*
X139973000Y-81911000D01*
X139962000Y-81922000D01*
X139951000Y-81933000D01*
X139939000Y-81943000D01*
X139926000Y-81953000D01*
X139913000Y-81962000D01*
X139900000Y-81970000D01*
X139886000Y-81977000D01*
X139872000Y-81984000D01*
X139858000Y-81990000D01*
X139843000Y-81995000D01*
X139828000Y-82000000D01*
X139812000Y-82003000D01*
X139797000Y-82006000D01*
X139781000Y-82008000D01*
X139766000Y-82010000D01*
X139750000Y-82010000D01*
X138550000Y-82010000D01*
X138534000Y-82010000D01*
X138519000Y-82008000D01*
X138503000Y-82006000D01*
X138488000Y-82003000D01*
X138472000Y-82000000D01*
X138457000Y-81995000D01*
X138442000Y-81990000D01*
X138428000Y-81984000D01*
X138414000Y-81977000D01*
X138400000Y-81970000D01*
X138387000Y-81962000D01*
X138374000Y-81953000D01*
X138361000Y-81943000D01*
X138349000Y-81933000D01*
X138338000Y-81922000D01*
X138327000Y-81911000D01*
X138317000Y-81899000D01*
X138307000Y-81886000D01*
X138298000Y-81873000D01*
X138290000Y-81860000D01*
X138283000Y-81846000D01*
X138276000Y-81832000D01*
X138270000Y-81818000D01*
X138265000Y-81803000D01*
X138260000Y-81788000D01*
X138257000Y-81772000D01*
X138254000Y-81757000D01*
X138252000Y-81741000D01*
X138250000Y-81726000D01*
X138250000Y-81710000D01*
X138250000Y-78610000D01*
X140050000Y-78610000D01*
X140050000Y-81710000D01*
G37*
X139781000Y-97992000D02*
X139797000Y-97994000D01*
X139812000Y-97997000D01*
X139828000Y-98000000D01*
X139843000Y-98005000D01*
X139858000Y-98010000D01*
X139872000Y-98016000D01*
X139886000Y-98023000D01*
X139900000Y-98030000D01*
X139913000Y-98038000D01*
X139926000Y-98047000D01*
X139939000Y-98057000D01*
X139951000Y-98067000D01*
X139962000Y-98078000D01*
X139973000Y-98089000D01*
X139983000Y-98101000D01*
X139993000Y-98114000D01*
X140002000Y-98127000D01*
X140010000Y-98140000D01*
X140017000Y-98154000D01*
X140024000Y-98168000D01*
X140030000Y-98182000D01*
X140035000Y-98197000D01*
X140040000Y-98212000D01*
X140043000Y-98228000D01*
X140046000Y-98243000D01*
X140048000Y-98259000D01*
X140050000Y-98274000D01*
X140050000Y-98290000D01*
X140050000Y-101390000D01*
X138250000Y-101390000D01*
X138250000Y-98290000D01*
X138250000Y-98274000D01*
X138252000Y-98259000D01*
X138254000Y-98243000D01*
X138257000Y-98228000D01*
X138260000Y-98212000D01*
X138265000Y-98197000D01*
X138270000Y-98182000D01*
X138276000Y-98168000D01*
X138283000Y-98154000D01*
X138290000Y-98140000D01*
X138298000Y-98127000D01*
X138307000Y-98114000D01*
X138317000Y-98101000D01*
X138327000Y-98089000D01*
X138338000Y-98078000D01*
X138349000Y-98067000D01*
X138361000Y-98057000D01*
X138374000Y-98047000D01*
X138387000Y-98038000D01*
X138400000Y-98030000D01*
X138414000Y-98023000D01*
X138428000Y-98016000D01*
X138442000Y-98010000D01*
X138457000Y-98005000D01*
X138472000Y-98000000D01*
X138488000Y-97997000D01*
X138503000Y-97994000D01*
X138519000Y-97992000D01*
X138534000Y-97990000D01*
X138550000Y-97990000D01*
X139750000Y-97990000D01*
X139766000Y-97990000D01*
X139781000Y-97992000D01*
G36*
X139781000Y-97992000D02*
G01*
X139797000Y-97994000D01*
X139812000Y-97997000D01*
X139828000Y-98000000D01*
X139843000Y-98005000D01*
X139858000Y-98010000D01*
X139872000Y-98016000D01*
X139886000Y-98023000D01*
X139900000Y-98030000D01*
X139913000Y-98038000D01*
X139926000Y-98047000D01*
X139939000Y-98057000D01*
X139951000Y-98067000D01*
X139962000Y-98078000D01*
X139973000Y-98089000D01*
X139983000Y-98101000D01*
X139993000Y-98114000D01*
X140002000Y-98127000D01*
X140010000Y-98140000D01*
X140017000Y-98154000D01*
X140024000Y-98168000D01*
X140030000Y-98182000D01*
X140035000Y-98197000D01*
X140040000Y-98212000D01*
X140043000Y-98228000D01*
X140046000Y-98243000D01*
X140048000Y-98259000D01*
X140050000Y-98274000D01*
X140050000Y-98290000D01*
X140050000Y-101390000D01*
X138250000Y-101390000D01*
X138250000Y-98290000D01*
X138250000Y-98274000D01*
X138252000Y-98259000D01*
X138254000Y-98243000D01*
X138257000Y-98228000D01*
X138260000Y-98212000D01*
X138265000Y-98197000D01*
X138270000Y-98182000D01*
X138276000Y-98168000D01*
X138283000Y-98154000D01*
X138290000Y-98140000D01*
X138298000Y-98127000D01*
X138307000Y-98114000D01*
X138317000Y-98101000D01*
X138327000Y-98089000D01*
X138338000Y-98078000D01*
X138349000Y-98067000D01*
X138361000Y-98057000D01*
X138374000Y-98047000D01*
X138387000Y-98038000D01*
X138400000Y-98030000D01*
X138414000Y-98023000D01*
X138428000Y-98016000D01*
X138442000Y-98010000D01*
X138457000Y-98005000D01*
X138472000Y-98000000D01*
X138488000Y-97997000D01*
X138503000Y-97994000D01*
X138519000Y-97992000D01*
X138534000Y-97990000D01*
X138550000Y-97990000D01*
X139750000Y-97990000D01*
X139766000Y-97990000D01*
X139781000Y-97992000D01*
G37*
X152750000Y-81710000D02*
X152750000Y-81726000D01*
X152748000Y-81741000D01*
X152746000Y-81757000D01*
X152743000Y-81772000D01*
X152740000Y-81788000D01*
X152735000Y-81803000D01*
X152730000Y-81818000D01*
X152724000Y-81832000D01*
X152717000Y-81846000D01*
X152710000Y-81860000D01*
X152702000Y-81873000D01*
X152693000Y-81886000D01*
X152683000Y-81899000D01*
X152673000Y-81911000D01*
X152662000Y-81922000D01*
X152651000Y-81933000D01*
X152639000Y-81943000D01*
X152626000Y-81953000D01*
X152613000Y-81962000D01*
X152600000Y-81970000D01*
X152586000Y-81977000D01*
X152572000Y-81984000D01*
X152558000Y-81990000D01*
X152543000Y-81995000D01*
X152528000Y-82000000D01*
X152512000Y-82003000D01*
X152497000Y-82006000D01*
X152481000Y-82008000D01*
X152466000Y-82010000D01*
X152450000Y-82010000D01*
X151250000Y-82010000D01*
X151234000Y-82010000D01*
X151219000Y-82008000D01*
X151203000Y-82006000D01*
X151188000Y-82003000D01*
X151172000Y-82000000D01*
X151157000Y-81995000D01*
X151142000Y-81990000D01*
X151128000Y-81984000D01*
X151114000Y-81977000D01*
X151100000Y-81970000D01*
X151087000Y-81962000D01*
X151074000Y-81953000D01*
X151061000Y-81943000D01*
X151049000Y-81933000D01*
X151038000Y-81922000D01*
X151027000Y-81911000D01*
X151017000Y-81899000D01*
X151007000Y-81886000D01*
X150998000Y-81873000D01*
X150990000Y-81860000D01*
X150983000Y-81846000D01*
X150976000Y-81832000D01*
X150970000Y-81818000D01*
X150965000Y-81803000D01*
X150960000Y-81788000D01*
X150957000Y-81772000D01*
X150954000Y-81757000D01*
X150952000Y-81741000D01*
X150950000Y-81726000D01*
X150950000Y-81710000D01*
X150950000Y-78610000D01*
X152750000Y-78610000D01*
X152750000Y-81710000D01*
G36*
X152750000Y-81710000D02*
G01*
X152750000Y-81726000D01*
X152748000Y-81741000D01*
X152746000Y-81757000D01*
X152743000Y-81772000D01*
X152740000Y-81788000D01*
X152735000Y-81803000D01*
X152730000Y-81818000D01*
X152724000Y-81832000D01*
X152717000Y-81846000D01*
X152710000Y-81860000D01*
X152702000Y-81873000D01*
X152693000Y-81886000D01*
X152683000Y-81899000D01*
X152673000Y-81911000D01*
X152662000Y-81922000D01*
X152651000Y-81933000D01*
X152639000Y-81943000D01*
X152626000Y-81953000D01*
X152613000Y-81962000D01*
X152600000Y-81970000D01*
X152586000Y-81977000D01*
X152572000Y-81984000D01*
X152558000Y-81990000D01*
X152543000Y-81995000D01*
X152528000Y-82000000D01*
X152512000Y-82003000D01*
X152497000Y-82006000D01*
X152481000Y-82008000D01*
X152466000Y-82010000D01*
X152450000Y-82010000D01*
X151250000Y-82010000D01*
X151234000Y-82010000D01*
X151219000Y-82008000D01*
X151203000Y-82006000D01*
X151188000Y-82003000D01*
X151172000Y-82000000D01*
X151157000Y-81995000D01*
X151142000Y-81990000D01*
X151128000Y-81984000D01*
X151114000Y-81977000D01*
X151100000Y-81970000D01*
X151087000Y-81962000D01*
X151074000Y-81953000D01*
X151061000Y-81943000D01*
X151049000Y-81933000D01*
X151038000Y-81922000D01*
X151027000Y-81911000D01*
X151017000Y-81899000D01*
X151007000Y-81886000D01*
X150998000Y-81873000D01*
X150990000Y-81860000D01*
X150983000Y-81846000D01*
X150976000Y-81832000D01*
X150970000Y-81818000D01*
X150965000Y-81803000D01*
X150960000Y-81788000D01*
X150957000Y-81772000D01*
X150954000Y-81757000D01*
X150952000Y-81741000D01*
X150950000Y-81726000D01*
X150950000Y-81710000D01*
X150950000Y-78610000D01*
X152750000Y-78610000D01*
X152750000Y-81710000D01*
G37*
X152481000Y-97992000D02*
X152497000Y-97994000D01*
X152512000Y-97997000D01*
X152528000Y-98000000D01*
X152543000Y-98005000D01*
X152558000Y-98010000D01*
X152572000Y-98016000D01*
X152586000Y-98023000D01*
X152600000Y-98030000D01*
X152613000Y-98038000D01*
X152626000Y-98047000D01*
X152639000Y-98057000D01*
X152651000Y-98067000D01*
X152662000Y-98078000D01*
X152673000Y-98089000D01*
X152683000Y-98101000D01*
X152693000Y-98114000D01*
X152702000Y-98127000D01*
X152710000Y-98140000D01*
X152717000Y-98154000D01*
X152724000Y-98168000D01*
X152730000Y-98182000D01*
X152735000Y-98197000D01*
X152740000Y-98212000D01*
X152743000Y-98228000D01*
X152746000Y-98243000D01*
X152748000Y-98259000D01*
X152750000Y-98274000D01*
X152750000Y-98290000D01*
X152750000Y-101390000D01*
X150950000Y-101390000D01*
X150950000Y-98290000D01*
X150950000Y-98274000D01*
X150952000Y-98259000D01*
X150954000Y-98243000D01*
X150957000Y-98228000D01*
X150960000Y-98212000D01*
X150965000Y-98197000D01*
X150970000Y-98182000D01*
X150976000Y-98168000D01*
X150983000Y-98154000D01*
X150990000Y-98140000D01*
X150998000Y-98127000D01*
X151007000Y-98114000D01*
X151017000Y-98101000D01*
X151027000Y-98089000D01*
X151038000Y-98078000D01*
X151049000Y-98067000D01*
X151061000Y-98057000D01*
X151074000Y-98047000D01*
X151087000Y-98038000D01*
X151100000Y-98030000D01*
X151114000Y-98023000D01*
X151128000Y-98016000D01*
X151142000Y-98010000D01*
X151157000Y-98005000D01*
X151172000Y-98000000D01*
X151188000Y-97997000D01*
X151203000Y-97994000D01*
X151219000Y-97992000D01*
X151234000Y-97990000D01*
X151250000Y-97990000D01*
X152450000Y-97990000D01*
X152466000Y-97990000D01*
X152481000Y-97992000D01*
G36*
X152481000Y-97992000D02*
G01*
X152497000Y-97994000D01*
X152512000Y-97997000D01*
X152528000Y-98000000D01*
X152543000Y-98005000D01*
X152558000Y-98010000D01*
X152572000Y-98016000D01*
X152586000Y-98023000D01*
X152600000Y-98030000D01*
X152613000Y-98038000D01*
X152626000Y-98047000D01*
X152639000Y-98057000D01*
X152651000Y-98067000D01*
X152662000Y-98078000D01*
X152673000Y-98089000D01*
X152683000Y-98101000D01*
X152693000Y-98114000D01*
X152702000Y-98127000D01*
X152710000Y-98140000D01*
X152717000Y-98154000D01*
X152724000Y-98168000D01*
X152730000Y-98182000D01*
X152735000Y-98197000D01*
X152740000Y-98212000D01*
X152743000Y-98228000D01*
X152746000Y-98243000D01*
X152748000Y-98259000D01*
X152750000Y-98274000D01*
X152750000Y-98290000D01*
X152750000Y-101390000D01*
X150950000Y-101390000D01*
X150950000Y-98290000D01*
X150950000Y-98274000D01*
X150952000Y-98259000D01*
X150954000Y-98243000D01*
X150957000Y-98228000D01*
X150960000Y-98212000D01*
X150965000Y-98197000D01*
X150970000Y-98182000D01*
X150976000Y-98168000D01*
X150983000Y-98154000D01*
X150990000Y-98140000D01*
X150998000Y-98127000D01*
X151007000Y-98114000D01*
X151017000Y-98101000D01*
X151027000Y-98089000D01*
X151038000Y-98078000D01*
X151049000Y-98067000D01*
X151061000Y-98057000D01*
X151074000Y-98047000D01*
X151087000Y-98038000D01*
X151100000Y-98030000D01*
X151114000Y-98023000D01*
X151128000Y-98016000D01*
X151142000Y-98010000D01*
X151157000Y-98005000D01*
X151172000Y-98000000D01*
X151188000Y-97997000D01*
X151203000Y-97994000D01*
X151219000Y-97992000D01*
X151234000Y-97990000D01*
X151250000Y-97990000D01*
X152450000Y-97990000D01*
X152466000Y-97990000D01*
X152481000Y-97992000D01*
G37*
X165450000Y-81710000D02*
X165450000Y-81726000D01*
X165448000Y-81741000D01*
X165446000Y-81757000D01*
X165443000Y-81772000D01*
X165440000Y-81788000D01*
X165435000Y-81803000D01*
X165430000Y-81818000D01*
X165424000Y-81832000D01*
X165417000Y-81846000D01*
X165410000Y-81860000D01*
X165402000Y-81873000D01*
X165393000Y-81886000D01*
X165383000Y-81899000D01*
X165373000Y-81911000D01*
X165362000Y-81922000D01*
X165351000Y-81933000D01*
X165339000Y-81943000D01*
X165326000Y-81953000D01*
X165313000Y-81962000D01*
X165300000Y-81970000D01*
X165286000Y-81977000D01*
X165272000Y-81984000D01*
X165258000Y-81990000D01*
X165243000Y-81995000D01*
X165228000Y-82000000D01*
X165212000Y-82003000D01*
X165197000Y-82006000D01*
X165181000Y-82008000D01*
X165166000Y-82010000D01*
X165150000Y-82010000D01*
X163950000Y-82010000D01*
X163934000Y-82010000D01*
X163919000Y-82008000D01*
X163903000Y-82006000D01*
X163888000Y-82003000D01*
X163872000Y-82000000D01*
X163857000Y-81995000D01*
X163842000Y-81990000D01*
X163828000Y-81984000D01*
X163814000Y-81977000D01*
X163800000Y-81970000D01*
X163787000Y-81962000D01*
X163774000Y-81953000D01*
X163761000Y-81943000D01*
X163749000Y-81933000D01*
X163738000Y-81922000D01*
X163727000Y-81911000D01*
X163717000Y-81899000D01*
X163707000Y-81886000D01*
X163698000Y-81873000D01*
X163690000Y-81860000D01*
X163683000Y-81846000D01*
X163676000Y-81832000D01*
X163670000Y-81818000D01*
X163665000Y-81803000D01*
X163660000Y-81788000D01*
X163657000Y-81772000D01*
X163654000Y-81757000D01*
X163652000Y-81741000D01*
X163650000Y-81726000D01*
X163650000Y-81710000D01*
X163650000Y-78610000D01*
X165450000Y-78610000D01*
X165450000Y-81710000D01*
G36*
X165450000Y-81710000D02*
G01*
X165450000Y-81726000D01*
X165448000Y-81741000D01*
X165446000Y-81757000D01*
X165443000Y-81772000D01*
X165440000Y-81788000D01*
X165435000Y-81803000D01*
X165430000Y-81818000D01*
X165424000Y-81832000D01*
X165417000Y-81846000D01*
X165410000Y-81860000D01*
X165402000Y-81873000D01*
X165393000Y-81886000D01*
X165383000Y-81899000D01*
X165373000Y-81911000D01*
X165362000Y-81922000D01*
X165351000Y-81933000D01*
X165339000Y-81943000D01*
X165326000Y-81953000D01*
X165313000Y-81962000D01*
X165300000Y-81970000D01*
X165286000Y-81977000D01*
X165272000Y-81984000D01*
X165258000Y-81990000D01*
X165243000Y-81995000D01*
X165228000Y-82000000D01*
X165212000Y-82003000D01*
X165197000Y-82006000D01*
X165181000Y-82008000D01*
X165166000Y-82010000D01*
X165150000Y-82010000D01*
X163950000Y-82010000D01*
X163934000Y-82010000D01*
X163919000Y-82008000D01*
X163903000Y-82006000D01*
X163888000Y-82003000D01*
X163872000Y-82000000D01*
X163857000Y-81995000D01*
X163842000Y-81990000D01*
X163828000Y-81984000D01*
X163814000Y-81977000D01*
X163800000Y-81970000D01*
X163787000Y-81962000D01*
X163774000Y-81953000D01*
X163761000Y-81943000D01*
X163749000Y-81933000D01*
X163738000Y-81922000D01*
X163727000Y-81911000D01*
X163717000Y-81899000D01*
X163707000Y-81886000D01*
X163698000Y-81873000D01*
X163690000Y-81860000D01*
X163683000Y-81846000D01*
X163676000Y-81832000D01*
X163670000Y-81818000D01*
X163665000Y-81803000D01*
X163660000Y-81788000D01*
X163657000Y-81772000D01*
X163654000Y-81757000D01*
X163652000Y-81741000D01*
X163650000Y-81726000D01*
X163650000Y-81710000D01*
X163650000Y-78610000D01*
X165450000Y-78610000D01*
X165450000Y-81710000D01*
G37*
X165181000Y-97992000D02*
X165197000Y-97994000D01*
X165212000Y-97997000D01*
X165228000Y-98000000D01*
X165243000Y-98005000D01*
X165258000Y-98010000D01*
X165272000Y-98016000D01*
X165286000Y-98023000D01*
X165300000Y-98030000D01*
X165313000Y-98038000D01*
X165326000Y-98047000D01*
X165339000Y-98057000D01*
X165351000Y-98067000D01*
X165362000Y-98078000D01*
X165373000Y-98089000D01*
X165383000Y-98101000D01*
X165393000Y-98114000D01*
X165402000Y-98127000D01*
X165410000Y-98140000D01*
X165417000Y-98154000D01*
X165424000Y-98168000D01*
X165430000Y-98182000D01*
X165435000Y-98197000D01*
X165440000Y-98212000D01*
X165443000Y-98228000D01*
X165446000Y-98243000D01*
X165448000Y-98259000D01*
X165450000Y-98274000D01*
X165450000Y-98290000D01*
X165450000Y-101390000D01*
X163650000Y-101390000D01*
X163650000Y-98290000D01*
X163650000Y-98274000D01*
X163652000Y-98259000D01*
X163654000Y-98243000D01*
X163657000Y-98228000D01*
X163660000Y-98212000D01*
X163665000Y-98197000D01*
X163670000Y-98182000D01*
X163676000Y-98168000D01*
X163683000Y-98154000D01*
X163690000Y-98140000D01*
X163698000Y-98127000D01*
X163707000Y-98114000D01*
X163717000Y-98101000D01*
X163727000Y-98089000D01*
X163738000Y-98078000D01*
X163749000Y-98067000D01*
X163761000Y-98057000D01*
X163774000Y-98047000D01*
X163787000Y-98038000D01*
X163800000Y-98030000D01*
X163814000Y-98023000D01*
X163828000Y-98016000D01*
X163842000Y-98010000D01*
X163857000Y-98005000D01*
X163872000Y-98000000D01*
X163888000Y-97997000D01*
X163903000Y-97994000D01*
X163919000Y-97992000D01*
X163934000Y-97990000D01*
X163950000Y-97990000D01*
X165150000Y-97990000D01*
X165166000Y-97990000D01*
X165181000Y-97992000D01*
G36*
X165181000Y-97992000D02*
G01*
X165197000Y-97994000D01*
X165212000Y-97997000D01*
X165228000Y-98000000D01*
X165243000Y-98005000D01*
X165258000Y-98010000D01*
X165272000Y-98016000D01*
X165286000Y-98023000D01*
X165300000Y-98030000D01*
X165313000Y-98038000D01*
X165326000Y-98047000D01*
X165339000Y-98057000D01*
X165351000Y-98067000D01*
X165362000Y-98078000D01*
X165373000Y-98089000D01*
X165383000Y-98101000D01*
X165393000Y-98114000D01*
X165402000Y-98127000D01*
X165410000Y-98140000D01*
X165417000Y-98154000D01*
X165424000Y-98168000D01*
X165430000Y-98182000D01*
X165435000Y-98197000D01*
X165440000Y-98212000D01*
X165443000Y-98228000D01*
X165446000Y-98243000D01*
X165448000Y-98259000D01*
X165450000Y-98274000D01*
X165450000Y-98290000D01*
X165450000Y-101390000D01*
X163650000Y-101390000D01*
X163650000Y-98290000D01*
X163650000Y-98274000D01*
X163652000Y-98259000D01*
X163654000Y-98243000D01*
X163657000Y-98228000D01*
X163660000Y-98212000D01*
X163665000Y-98197000D01*
X163670000Y-98182000D01*
X163676000Y-98168000D01*
X163683000Y-98154000D01*
X163690000Y-98140000D01*
X163698000Y-98127000D01*
X163707000Y-98114000D01*
X163717000Y-98101000D01*
X163727000Y-98089000D01*
X163738000Y-98078000D01*
X163749000Y-98067000D01*
X163761000Y-98057000D01*
X163774000Y-98047000D01*
X163787000Y-98038000D01*
X163800000Y-98030000D01*
X163814000Y-98023000D01*
X163828000Y-98016000D01*
X163842000Y-98010000D01*
X163857000Y-98005000D01*
X163872000Y-98000000D01*
X163888000Y-97997000D01*
X163903000Y-97994000D01*
X163919000Y-97992000D01*
X163934000Y-97990000D01*
X163950000Y-97990000D01*
X165150000Y-97990000D01*
X165166000Y-97990000D01*
X165181000Y-97992000D01*
G37*
X171900000Y-90900000D02*
X168800000Y-90900000D01*
X168784000Y-90900000D01*
X168769000Y-90898000D01*
X168753000Y-90896000D01*
X168738000Y-90893000D01*
X168722000Y-90890000D01*
X168707000Y-90885000D01*
X168692000Y-90880000D01*
X168678000Y-90874000D01*
X168664000Y-90867000D01*
X168650000Y-90860000D01*
X168637000Y-90852000D01*
X168624000Y-90843000D01*
X168611000Y-90833000D01*
X168599000Y-90823000D01*
X168588000Y-90812000D01*
X168577000Y-90801000D01*
X168567000Y-90789000D01*
X168557000Y-90776000D01*
X168548000Y-90763000D01*
X168540000Y-90750000D01*
X168533000Y-90736000D01*
X168526000Y-90722000D01*
X168520000Y-90708000D01*
X168515000Y-90693000D01*
X168510000Y-90678000D01*
X168507000Y-90662000D01*
X168504000Y-90647000D01*
X168502000Y-90631000D01*
X168500000Y-90616000D01*
X168500000Y-90600000D01*
X168500000Y-89400000D01*
X168500000Y-89384000D01*
X168502000Y-89369000D01*
X168504000Y-89353000D01*
X168507000Y-89338000D01*
X168510000Y-89322000D01*
X168515000Y-89307000D01*
X168520000Y-89292000D01*
X168526000Y-89278000D01*
X168533000Y-89264000D01*
X168540000Y-89250000D01*
X168548000Y-89237000D01*
X168557000Y-89224000D01*
X168567000Y-89211000D01*
X168577000Y-89199000D01*
X168588000Y-89188000D01*
X168599000Y-89177000D01*
X168611000Y-89167000D01*
X168624000Y-89157000D01*
X168637000Y-89148000D01*
X168650000Y-89140000D01*
X168664000Y-89133000D01*
X168678000Y-89126000D01*
X168692000Y-89120000D01*
X168707000Y-89115000D01*
X168722000Y-89110000D01*
X168738000Y-89107000D01*
X168753000Y-89104000D01*
X168769000Y-89102000D01*
X168784000Y-89100000D01*
X168800000Y-89100000D01*
X171900000Y-89100000D01*
X171900000Y-90900000D01*
G36*
X171900000Y-90900000D02*
G01*
X168800000Y-90900000D01*
X168784000Y-90900000D01*
X168769000Y-90898000D01*
X168753000Y-90896000D01*
X168738000Y-90893000D01*
X168722000Y-90890000D01*
X168707000Y-90885000D01*
X168692000Y-90880000D01*
X168678000Y-90874000D01*
X168664000Y-90867000D01*
X168650000Y-90860000D01*
X168637000Y-90852000D01*
X168624000Y-90843000D01*
X168611000Y-90833000D01*
X168599000Y-90823000D01*
X168588000Y-90812000D01*
X168577000Y-90801000D01*
X168567000Y-90789000D01*
X168557000Y-90776000D01*
X168548000Y-90763000D01*
X168540000Y-90750000D01*
X168533000Y-90736000D01*
X168526000Y-90722000D01*
X168520000Y-90708000D01*
X168515000Y-90693000D01*
X168510000Y-90678000D01*
X168507000Y-90662000D01*
X168504000Y-90647000D01*
X168502000Y-90631000D01*
X168500000Y-90616000D01*
X168500000Y-90600000D01*
X168500000Y-89400000D01*
X168500000Y-89384000D01*
X168502000Y-89369000D01*
X168504000Y-89353000D01*
X168507000Y-89338000D01*
X168510000Y-89322000D01*
X168515000Y-89307000D01*
X168520000Y-89292000D01*
X168526000Y-89278000D01*
X168533000Y-89264000D01*
X168540000Y-89250000D01*
X168548000Y-89237000D01*
X168557000Y-89224000D01*
X168567000Y-89211000D01*
X168577000Y-89199000D01*
X168588000Y-89188000D01*
X168599000Y-89177000D01*
X168611000Y-89167000D01*
X168624000Y-89157000D01*
X168637000Y-89148000D01*
X168650000Y-89140000D01*
X168664000Y-89133000D01*
X168678000Y-89126000D01*
X168692000Y-89120000D01*
X168707000Y-89115000D01*
X168722000Y-89110000D01*
X168738000Y-89107000D01*
X168753000Y-89104000D01*
X168769000Y-89102000D01*
X168784000Y-89100000D01*
X168800000Y-89100000D01*
X171900000Y-89100000D01*
X171900000Y-90900000D01*
G37*
%TD*%
D11*
%TO.C,U1*%
X140125000Y-122495000D03*
X140125000Y-123765000D03*
X140125000Y-125035000D03*
X140125000Y-126305000D03*
X145075000Y-126305000D03*
X145075000Y-125035000D03*
X145075000Y-123765000D03*
X145075000Y-122495000D03*
%TD*%
D12*
%TO.C,R8*%
X141412500Y-105487500D03*
X141412500Y-107312500D03*
%TD*%
D11*
%TO.C,U4*%
X128825000Y-110755000D03*
X128825000Y-112025000D03*
X128825000Y-113295000D03*
X128825000Y-114565000D03*
X128825000Y-115835000D03*
X128825000Y-117105000D03*
X128825000Y-118375000D03*
X128825000Y-119645000D03*
X133775000Y-119645000D03*
X133775000Y-118375000D03*
X133775000Y-117105000D03*
X133775000Y-115835000D03*
X133775000Y-114565000D03*
X133775000Y-113295000D03*
X133775000Y-112025000D03*
X133775000Y-110755000D03*
%TD*%
D13*
%TO.C,R29*%
X146612500Y-119200000D03*
X144787500Y-119200000D03*
%TD*%
D14*
%TO.C,C3*%
X133750000Y-124837500D03*
X133750000Y-126562500D03*
%TD*%
D12*
%TO.C,R24*%
X161987500Y-102487500D03*
X161987500Y-104312500D03*
%TD*%
%TO.C,R12*%
X146100000Y-105487500D03*
X146100000Y-107312500D03*
%TD*%
D15*
%TO.C,TP3*%
X125300000Y-123000000D03*
%TD*%
D16*
%TO.C,R35*%
X144887500Y-110700000D03*
X146712500Y-110700000D03*
%TD*%
D12*
%TO.C,R21*%
X147400000Y-126275000D03*
X147400000Y-128100000D03*
%TD*%
D11*
%TO.C,U6*%
X164525000Y-111190000D03*
X164525000Y-112460000D03*
X164525000Y-113730000D03*
X164525000Y-115000000D03*
X164525000Y-116270000D03*
X164525000Y-117540000D03*
X164525000Y-118810000D03*
X169475000Y-118810000D03*
X169475000Y-117540000D03*
X169475000Y-116270000D03*
X169475000Y-115000000D03*
X169475000Y-113730000D03*
X169475000Y-112460000D03*
X169475000Y-111190000D03*
%TD*%
D13*
%TO.C,R33*%
X154012500Y-107600000D03*
X152187500Y-107600000D03*
%TD*%
D16*
%TO.C,R2*%
X132256250Y-73100000D03*
X134081250Y-73100000D03*
%TD*%
D17*
%TO.C,C6*%
X162362500Y-115000000D03*
X160637500Y-115000000D03*
%TD*%
D16*
%TO.C,R9*%
X139587500Y-103900000D03*
X141412500Y-103900000D03*
%TD*%
D18*
%TO.C,H4*%
X178600000Y-133000000D03*
X179302944Y-131302944D03*
X179302944Y-134697056D03*
X181000000Y-130600000D03*
D19*
X181000000Y-133000000D03*
D18*
X181000000Y-135400000D03*
X182697056Y-131302944D03*
X182697056Y-134697056D03*
X183400000Y-133000000D03*
%TD*%
D20*
%TO.C,U7*%
X135918750Y-74800000D03*
X137818750Y-74800000D03*
X136868750Y-72925000D03*
%TD*%
D16*
%TO.C,R18*%
X136375000Y-114900000D03*
X138200000Y-114900000D03*
%TD*%
D18*
%TO.C,H3*%
X121600000Y-133000000D03*
X122302944Y-131302944D03*
X122302944Y-134697056D03*
X124000000Y-130600000D03*
D19*
X124000000Y-133000000D03*
D18*
X124000000Y-135400000D03*
X125697056Y-131302944D03*
X125697056Y-134697056D03*
X126400000Y-133000000D03*
%TD*%
D21*
%TO.C,J4*%
X157520000Y-75900000D03*
D22*
X160060000Y-75900000D03*
X162600000Y-75900000D03*
%TD*%
D12*
%TO.C,R7*%
X137200000Y-124775000D03*
X137200000Y-126600000D03*
%TD*%
D13*
%TO.C,R13*%
X126687500Y-115800000D03*
X124862500Y-115800000D03*
%TD*%
D21*
%TO.C,J3*%
X147360000Y-75900000D03*
D22*
X149900000Y-75900000D03*
%TD*%
D17*
%TO.C,C2*%
X143462500Y-131300000D03*
X141737500Y-131300000D03*
%TD*%
D13*
%TO.C,R25*%
X169500000Y-107900000D03*
X167675000Y-107900000D03*
%TD*%
%TO.C,R14*%
X126712500Y-110700000D03*
X124887500Y-110700000D03*
%TD*%
D12*
%TO.C,R1*%
X135500000Y-124775000D03*
X135500000Y-126600000D03*
%TD*%
D23*
%TO.C,U5*%
X121500000Y-92725000D03*
X121500000Y-87275000D03*
D24*
X124530000Y-92425000D03*
X124530000Y-87575000D03*
D25*
X124500000Y-90000000D03*
X121200000Y-89000000D03*
X121200000Y-91000000D03*
X128000000Y-92500000D03*
X130500000Y-92500000D03*
X133000000Y-92500000D03*
%TD*%
D21*
%TO.C,J2*%
X164460000Y-126000000D03*
D22*
X167000000Y-126000000D03*
%TD*%
D17*
%TO.C,C5*%
X146662500Y-114700000D03*
X144937500Y-114700000D03*
%TD*%
D11*
%TO.C,U3*%
X149000000Y-110820000D03*
X149000000Y-112090000D03*
X149000000Y-113360000D03*
X149000000Y-114630000D03*
X149000000Y-115900000D03*
X149000000Y-117170000D03*
X149000000Y-118440000D03*
X153950000Y-118440000D03*
X153950000Y-117170000D03*
X153950000Y-115900000D03*
X153950000Y-114630000D03*
X153950000Y-113360000D03*
X153950000Y-112090000D03*
X153950000Y-110820000D03*
%TD*%
D21*
%TO.C,J1*%
X164460000Y-130000000D03*
D22*
X167000000Y-130000000D03*
%TD*%
D13*
%TO.C,R11*%
X169525000Y-109500000D03*
X167700000Y-109500000D03*
%TD*%
D26*
%TO.C,C4*%
X136137500Y-122500000D03*
X137862500Y-122500000D03*
%TD*%
D16*
%TO.C,R15*%
X136375000Y-116500000D03*
X138200000Y-116500000D03*
%TD*%
%TO.C,R28*%
X144787500Y-117600000D03*
X146612500Y-117600000D03*
%TD*%
D18*
%TO.C,H1*%
X121600000Y-74000000D03*
X122302944Y-72302944D03*
X122302944Y-75697056D03*
X124000000Y-71600000D03*
D19*
X124000000Y-74000000D03*
D18*
X124000000Y-76400000D03*
X125697056Y-72302944D03*
X125697056Y-75697056D03*
X126400000Y-74000000D03*
%TD*%
D26*
%TO.C,C1*%
X147175000Y-122500000D03*
X148900000Y-122500000D03*
%TD*%
D16*
%TO.C,R3*%
X132256250Y-74800000D03*
X134081250Y-74800000D03*
%TD*%
D14*
%TO.C,C8*%
X133800000Y-107337500D03*
X133800000Y-109062500D03*
%TD*%
D12*
%TO.C,R26*%
X171800000Y-117975000D03*
X171800000Y-119800000D03*
%TD*%
%TO.C,R23*%
X167100000Y-102487500D03*
X167100000Y-104312500D03*
%TD*%
D15*
%TO.C,TP2*%
X151400000Y-103700000D03*
%TD*%
D12*
%TO.C,R22*%
X169900000Y-102487500D03*
X169900000Y-104312500D03*
%TD*%
D16*
%TO.C,R6*%
X141687500Y-129700000D03*
X143512500Y-129700000D03*
%TD*%
%TO.C,R16*%
X136387500Y-111700000D03*
X138212500Y-111700000D03*
%TD*%
D13*
%TO.C,R30*%
X154012500Y-109200000D03*
X152187500Y-109200000D03*
%TD*%
D12*
%TO.C,R34*%
X162400000Y-118587500D03*
X162400000Y-120412500D03*
%TD*%
D15*
%TO.C,TP1*%
X137900000Y-107200000D03*
%TD*%
D16*
%TO.C,R17*%
X136375000Y-113300000D03*
X138200000Y-113300000D03*
%TD*%
D27*
%TO.C,R32*%
X160757500Y-120412500D03*
X160757500Y-118587500D03*
%TD*%
D18*
%TO.C,H2*%
X178600000Y-74000000D03*
X179302944Y-72302944D03*
X179302944Y-75697056D03*
X181000000Y-71600000D03*
D19*
X181000000Y-74000000D03*
D18*
X181000000Y-76400000D03*
X182697056Y-72302944D03*
X182697056Y-75697056D03*
X183400000Y-74000000D03*
%TD*%
D16*
%TO.C,R5*%
X141687500Y-128100000D03*
X143512500Y-128100000D03*
%TD*%
D15*
%TO.C,TP4*%
X155100000Y-127400000D03*
%TD*%
D13*
%TO.C,R31*%
X154012500Y-120100000D03*
X152187500Y-120100000D03*
%TD*%
D27*
%TO.C,R20*%
X149042500Y-128100000D03*
X149042500Y-126275000D03*
%TD*%
D16*
%TO.C,R10*%
X146112500Y-103893750D03*
X147937500Y-103893750D03*
%TD*%
D13*
%TO.C,R27*%
X168912500Y-120500000D03*
X167087500Y-120500000D03*
%TD*%
M02*
