M48
; DRILL file {KiCad 7.0.9-7.0.9~ubuntu22.04.1} date Fri 22 Dec 2023 09:34:43 PM MST
; FORMAT={-:-/ absolute / inch / decimal}
; #@! TF.CreationDate,2023-12-22T21:34:43-07:00
; #@! TF.GenerationSoftware,Kicad,Pcbnew,7.0.9-7.0.9~ubuntu22.04.1
; #@! TF.FileFunction,MixedPlating,1,2
FMAT,2
INCH
; #@! TA.AperFunction,Plated,PTH,ViaDrill
T1C0.0157
; #@! TA.AperFunction,Plated,PTH,ComponentDrill
T2C0.0197
; #@! TA.AperFunction,Plated,PTH,ComponentDrill
T3C0.0315
; #@! TA.AperFunction,Plated,PTH,ComponentDrill
T4C0.0433
; #@! TA.AperFunction,Plated,PTH,ComponentDrill
T5C0.0472
; #@! TA.AperFunction,Plated,PTH,ComponentDrill
T6C0.1260
; #@! TA.AperFunction,NonPlated,NPTH,ComponentDrill
T7C0.0433
%
G90
G05
T1
X6.2402Y-3.8265
X6.248Y-3.5628
X6.2638Y-2.8738
X6.2638Y-2.9722
X6.2677Y-2.7754
X6.2717Y-2.673
X6.2835Y-2.2754
X6.2874Y-2.61
X6.2874Y-3.11
X6.2992Y-5.0273
X6.3937Y-4.925
X6.3976Y-2.2754
X6.4764Y-3.61
X6.4764Y-4.1139
X6.4882Y-3.5628
X6.5039Y-3.6927
X6.5669Y-2.9132
X6.5787Y-2.858
X6.5866Y-2.8147
X6.6299Y-3.4919
X6.656Y-3.7532
X6.7362Y-4.61
X6.7441Y-3.0076
X6.7559Y-2.8935
X6.7638Y-4.4328
X6.7677Y-3.5588
X6.7746Y-3.4801
X6.7835Y-3.6218
X6.7992Y-3.2714
X6.8386Y-3.5431
X6.8504Y-3.5864
X6.878Y-3.0116
X6.878Y-3.3108
X6.878Y-3.4447
X6.8858Y-3.6218
X6.9488Y-3.61
X6.9567Y-4.61
X6.9764Y-4.7006
X7.0Y-3.6484
X7.0079Y-3.5716
X7.0433Y-3.6769
X7.0512Y-3.1139
X7.0512Y-3.4604
X7.0512Y-4.11
X7.0551Y-3.547
X7.2146Y-4.6833
X7.2559Y-2.6139
X7.3425Y-3.547
X7.3583Y-3.5982
X7.378Y-3.6336
X7.3819Y-3.7321
X7.3898Y-3.5003
X7.3994Y-3.6917
X7.4252Y-3.547
X7.4739Y-3.984
X7.4983Y-4.484
X7.6432Y-3.6139
X7.6794Y-4.4801
X7.7087Y-3.9722
X7.7549Y-4.5858
X7.7756Y-3.8147
X7.8071Y-3.6258
X7.811Y-3.3019
X7.8386Y-3.8305
X7.8465Y-3.6809
X7.8514Y-3.3758
X7.8652Y-4.6724
X7.8927Y-4.7511
X7.9016Y-3.673
X7.9016Y-3.8856
X7.9724Y-3.6887
X7.9724Y-3.795
X8.063Y-3.673
X8.063Y-3.8738
X8.0984Y-4.9958
X8.1772Y-4.8895
X8.185Y-3.8777
X8.2323Y-3.2754
X8.2323Y-3.3777
X8.4016Y-4.2911
X8.409Y-4.6769
X8.4134Y-5.0155
X8.4139Y-4.5746
X8.4213Y-3.3817
X8.4961Y-3.5431
X8.5231Y-3.9323
X8.5236Y-4.5195
X8.5276Y-4.6769
X8.5394Y-4.2006
X8.5748Y-3.9092
X8.622Y-4.6769
X8.6969Y-3.7163
X8.7047Y-4.4683
X8.7126Y-3.4683
T2
X5.811Y-2.126
X5.811Y-5.1181
X5.8387Y-2.0592
X5.8387Y-2.1928
X5.8387Y-5.0513
X5.8387Y-5.1849
X5.9055Y-2.0315
X5.9055Y-2.2205
X5.9055Y-5.0236
X5.9055Y-5.2126
X5.9723Y-2.0592
X5.9723Y-2.1928
X5.9723Y-5.0513
X5.9723Y-5.1849
X6.0Y-2.126
X6.0Y-5.1181
X8.5669Y-2.126
X8.5669Y-5.1181
X8.5946Y-2.0592
X8.5946Y-2.1928
X8.5946Y-5.0513
X8.5946Y-5.1849
X8.6614Y-2.0315
X8.6614Y-2.2205
X8.6614Y-5.0236
X8.6614Y-5.2126
X8.7282Y-2.0592
X8.7282Y-2.1928
X8.7282Y-5.0513
X8.7282Y-5.1849
X8.7559Y-2.126
X8.7559Y-5.1181
T3
X8.0331Y-4.1013
X8.0331Y-4.4013
X8.1331Y-4.1013
X8.1331Y-4.4013
X8.1654Y-3.4635
X8.1654Y-3.7635
X8.2331Y-4.1013
X8.2331Y-4.4013
X8.2654Y-3.4635
X8.2654Y-3.7635
X8.3331Y-4.1013
X8.3331Y-4.4013
X8.3654Y-3.4635
X8.3654Y-3.7635
X8.4331Y-4.1013
X8.4331Y-4.4013
X8.4654Y-3.4635
X8.4654Y-3.7635
X8.5331Y-4.1013
X8.5331Y-4.4013
X8.6331Y-4.1013
X8.6331Y-4.4013
T4
X5.9528Y-2.3722
X5.9528Y-2.4722
X5.9641Y-2.673
X5.9641Y-2.773
X5.9641Y-2.873
X5.9641Y-2.973
X5.9641Y-3.1635
X5.9641Y-3.2635
X5.9641Y-3.4572
X5.9641Y-3.5572
X5.9641Y-3.6572
X5.9641Y-3.7572
X5.9641Y-3.9509
X5.9641Y-4.0509
X5.9641Y-4.2265
X5.9641Y-4.3265
X5.9641Y-4.4265
X5.9641Y-4.5265
X5.9641Y-4.7202
X5.9641Y-4.8202
X6.2071Y-2.1179
X6.3071Y-2.1179
X7.152Y-5.0706
X7.252Y-5.0706
X8.0822Y-2.373
X8.0822Y-2.473
X8.0822Y-2.573
X8.0822Y-2.673
X8.0822Y-2.9234
X8.0822Y-3.0234
X8.0822Y-3.1234
X8.0822Y-3.2234
X8.1969Y-5.11
X8.2969Y-5.11
X8.3932Y-2.3746
X8.3932Y-2.4746
X8.3932Y-2.5746
X8.3932Y-2.6746
X8.3937Y-2.9234
X8.3937Y-3.0234
X8.3937Y-3.1234
X8.3937Y-3.2234
T5
X6.2047Y-3.2793
X6.2057Y-3.9368
X6.6216Y-4.9299
X7.3189Y-3.3384
X7.3228Y-2.1887
X7.3346Y-3.8659
X7.4724Y-3.1887
X7.4818Y-4.0746
X7.6732Y-4.2832
X7.7116Y-3.0805
X8.0822Y-2.1399
X8.7008Y-4.5785
X8.7244Y-3.988
T6
X5.9055Y-2.126
X5.9055Y-5.1181
X8.6614Y-2.126
X8.6614Y-5.1181
T7
X5.8528Y-2.3722
X5.8528Y-2.4722
X5.8641Y-3.1635
X5.8641Y-3.2635
X5.8641Y-3.9509
X5.8641Y-4.0509
X5.8641Y-4.7202
X5.8641Y-4.8202
X6.2071Y-2.0179
X6.3071Y-2.0179
X7.152Y-5.1706
X7.252Y-5.1706
X8.1969Y-5.21
X8.2969Y-5.21
T0
M30
